<ttFont>
          <CharString index="0">
            20 -16 56 -40 16 -20 22 45 31 26 45 32 -19 12 -58 43 -17 20 -40 -21 -33 -42 -23 -39 rrcurveto
            return
          </CharString>
          <CharString index="1">
            222 113 rmoveto
            53 -1 78 58 vvcurveto
            115 1 130 3 66 vhcurveto
            10 6 35 8 56 28 62 -11 27 -15 48 -27 rrcurveto
            2 -51 0 -60 -50 vvcurveto
            -110 -3 -126 -2 -106 vhcurveto
            -10 -6 -34 -5 -56 -28 -62 11 -28 15 -48 27 rrcurveto
            -180 249 rmoveto
            29 -9 26 -120 -95 vvcurveto
            -50 -7 -43 -18 -17 vhcurveto
            -18 callgsubr
            -35 46 -19 82 74 vvcurveto
            49 8 50 18 30 vhcurveto
            -44 4 -175 57 -87 12 -69 -31 -120 -28 -83 -6 rrcurveto
            43 -25 17 -61 -61 vvcurveto
            -73 -25 -80 -34 -38 vhcurveto
            return
          </CharString>
          <CharString index="2">
            -20 hstemhm
            89 135 -117 137 201 130 hintmask 11110100
            582 535 rmoveto
            32 1 16 1 10 vhcurveto
            44 10 46 36 8 83 rrcurveto
            -13 -49 -37 -6 -35 hhcurveto
            -39 -36 6 13 -41 hvcurveto
            4 -56 3 -52 2 -47 rrcurveto
            -1 -75 0 -65 -63 vvcurveto
            -114 -3 -108 -14 -39 vhcurveto
            -57 -2 -47 -17 -32 -20 -76 93 rcurveline
            hintmask 11101100
            5 141 15 131 145 vvcurveto
            -26 137 -45 7 -121 11 rrcurveto
            40 -57 15 -63 -69 vvcurveto
            -76 -15 -69 -36 -46 vhcurveto
            hintmask 11110100
            -72 callsubr
            return
          </CharString>
          <CharString index="3">
            502 160 rmoveto
            -107 159 -91 208 -48 119 5 35 21 25 36 14 rrcurveto
            -1 -13 -13 0 -13 -107 -84 28 -53 hhcurveto
            -8 -8 -1 -2 -7 hvcurveto
            80 -57 45 -66 -84 vvcurveto
            -50 -16 -55 -33 -63 vhcurveto
            32 -48 13 -53 -55 vvcurveto
            -118 -63 -123 -81 -77 vhcurveto
            101 33 56 47 36 63 59 -48 23 -12 59 -16 rrcurveto
            -54 63 -20 53 163 vvcurveto
            102 vlineto
            -228 107 195 -324 350 hhcurveto
            92 103 20 46 117 hvcurveto
            -7 -48 -43 -2 -40 hhcurveto
            -119 -89 44 50 -90 hvcurveto
            26 -66 -42 5 -43 3 -79 86 rlinecurve
            -9 48 -3 53 39 vvcurveto
            89 21 93 31 77 vhcurveto
            -33 63 -16 55 50 vvcurveto
            84 45 66 80 57 vhcurveto
            -4 callgsubr
            -58 -77 -28 -120 hhcurveto
            -13 -13 0 1 -13 hvcurveto
            39 -15 21 -29 3 -40 rrcurveto
            1 6 -175 -205 vvcurveto
            -27 5 -37 3 -63 vhcurveto
            return
          </CharString>
          <CharString index="4">
            214 -1 callgsubr
            -75 -9 -49 -18 -16 vhcurveto
            1 6 8 1 8 hhcurveto
            57 127 -31 -23 30 hvcurveto
            8 callsubr
            58 4 52 8 43 vhcurveto
            -2 -14 -13 -1 -29 hhcurveto
            -52 -56 9 30 -92 hvcurveto
            118 -410 rmoveto
            -47 14 -59 10 -45 5 rrcurveto
            3 47 2 51 39 vvcurveto
            9 callgsubr
            return
          </CharString>
          <CharString index="5">
            -20 hstem
            99 125 145 138 vstem
            254 661 rmoveto
            -29 45 91 -26 37 hhcurveto
            53 50 55 70 26 hvcurveto
            -6 -24 -26 -6 -26 hhcurveto
            -82 -75 34 27 -41 hvcurveto
            -64 -37 -53 -24 -75 hhcurveto
            -35 -24 6 1 -13 hvcurveto
            42 -56 12 -75 -74 vvcurveto
            -67 -8 -67 -8 -55 vhcurveto
            85 21 107 18 73 5 rrcurveto
            15 -19 6 -48 -52 vvcurveto
            -58 -8 -64 -12 -33 vhcurveto
            -133 63 -95 66 -39 1 rrcurveto
            4 -15 1 -13 -14 vvcurveto
            -44 -19 -39 -31 -36 vhcurveto
            178 -9 79 -38 57 -35 rrcurveto
            38 40 69 23 69 hhcurveto
            -17 67 -5 77 73 vvcurveto
            77 5 72 4 53 vhcurveto
            -142 -6 -70 -3 -65 -20 rrcurveto
            -9 38 -6 40 38 vvcurveto
            46 9 46 21 40 vhcurveto
            return
          </CharString>
          <CharString index="6">
            199 455 rmoveto
            -85 callsubr
            215 vlineto
            123 55 13 -14 rlineto
            -76 1 -76 -76 vvcurveto
            -29 -11 -117 -15 -53 vhcurveto
            6 -6 38 40 62 49 52 19 rlinecurve
            -6 27 -3 25 118 vvcurveto
            138 4 41 10 36 vhcurveto
            -55 26 -26 22 -46 42 -48 -50 -42 -35 -57 -37 rrcurveto
            return
          </CharString>
          <CharString index="7">
            rmoveto
            8 28 18 31 20 20 rrcurveto
            7 -83 vlineto
            97 86 rlineto
            49 2 41 12 31 vhcurveto
            -13 4 rlineto
            -11 -18 -45 -10 -50 hhcurveto
            -41 -92 6 17 -82 hvcurveto
            -21 -40 -13 -62 -1 -59 11 -8 rcurveline
            41 16 23 4 51 hhcurveto
            53 71 -5 -5 41 hvcurveto
            -84 -79 rlineto
            -95 hlineto
            -26 -24 -29 -21 -25 -10 rrcurveto
            -11 104 vlineto
            -124 -117 rlineto
            -31 13 -54 5 -9 vhcurveto
            return
          </CharString>
          <CharString index="8">
            -20 hstem
            71 -50 callsubr
            20 432 rmoveto
            39 -23 12 -36 -92 vvcurveto
            -81 -10 -104 -10 -14 vhcurveto
            49 -26 24 -17 54 -47 42 44 37 25 77 41 1 -148 2 -40 6 -34 -75 -24 rcurveline
            -54 42 -104 55 -31 3 -31 -29 -24 -48 -11 -56 rrcurveto
            71 62 -24 -56 76 hvcurveto
            64 68 108 48 74 hhcurveto
            -6 28 -2 57 84 vvcurveto
            460 vlineto
            -45 -22 -67 -16 -63 -4 rrcurveto
            -13 vlineto
            39 -11 6 -17 -93 vvcurveto
            -136 vlineto
            -96 -42 -42 32 rlineto
            182 vlineto
            70 1 26 6 45 vhcurveto
            -35 -15 -92 -21 -55 -6 rrcurveto
            return
          </CharString>
          <CharString index="9">
            -20 hstemhm
            123 134 135 125 142 125 -104 127 hintmask 11111100
            605 -87 rmoveto
            37 45 90 60 66 41 rrcurveto
            -8 42 -6 48 47 vvcurveto
            60 21 59 33 45 vhcurveto
            hintmask 11111010
            -20 36 -11 45 45 vvcurveto
            118 61 123 79 6 vhcurveto
            -74 -38 -15 -62 hhcurveto
            -31 -55 1 14 -45 hvcurveto
            27 -10 11 -32 -32 vvcurveto
            -8 -1 -8 -1 -7 vhcurveto
            -38 -522 -36 -38 -87 137 rlineto
            224 vlineto
            107 17 22 27 28 vhcurveto
            -57 39 -31 62 -20 56 -13 -54 -31 -64 -60 -39 rrcurveto
            37 -46 6 -14 -134 vvcurveto
            -186 vlineto
            -80 -138 -37 39 -35 521 rlineto
            -1 6 0 15 callsubr
            11 29 16 22 vhcurveto
            -48 -9 -11 5 -49 -47 rrcurveto
            29 -25 -24 22 -114 hhcurveto
            84 -3 44 -366 -194 vvcurveto
            -49 -8 -51 -3 -16 vhcurveto
            59 -34 84 -41 58 -66 36 45 77 130 26 41 21 -39 74 -111 58 -66 rrcurveto
            return
          </CharString>
          <CharString index="10">
            18 -14 50 -36 14 -18 20 40 28 23 40 29 -17 11 -52 38 -15 18 -36 -19 -29 -37 -21 -35 rrcurveto
            return
          </CharString>
          <CharString index="11">
            20 -16 5 -8 21 -18 50 50 71 62 24 16 -19 12 -58 43 -17 20 -24 -47 -53 -83 -20 -31 rrcurveto
            return
          </CharString>
          <CharString index="12">
            795 -160 rmoveto
            -12 callgsubr
            -89 -77 25 75 -124 hvcurveto
            11 -22 18 -35 17 -22 -79 23 -158 119 -18 53 16 30 35 14 23 9 rrcurveto
            -19 19 -14 74 87 vvcurveto
            253 vlineto
            -28 callsubr
            2 callgsubr
            -76 -69 -26 -108 hhcurveto
            -22 -24 1 3 -25 hvcurveto
            71 -48 28 7 -126 -35 callgsubr
            45 -40 8 -66 -57 -43 callgsubr
            139 66 -192 219 -28 callgsubr
            return
          </CharString>
          <CharString index="13">
            rmoveto
            -19 16 -64 43 -88 58 -56 -43 -67 -40 -47 -34 20 -16 5 -8 21 -18 31 17 56 24 38 13 35 -12 57 -24 32 -18 20 18 6 8 20 16 rrcurveto
            endchar
          </CharString>
          <CharString index="14">
            rmoveto
            10 -23 1 -10 10 -25 68 20 122 20 28 3 -11 19 -30 66 -5 26 -44 -30 -116 -48 -33 -18 rrcurveto
            endchar
          </CharString>
          <CharString index="15">
            -20 hstem
            125 127 243 145 vstem
            305 739 rmoveto
            -7 -48 -42 -9 -51 hhcurveto
            -43 -47 5 12 -56 -5 callgsubr
            6 -3 6 -2 7 -2 rrcurveto
            2 -21 1 -20 7 callgsubr
            -24 -2 -20 -6 -18 vhcurveto
            -20 -55 -25 -50 -45 -27 rrcurveto
            6 44 42 5 58 hhcurveto
            36 47 -3 -9 60 hvcurveto
            -52 73 -11 76 85 vvcurveto
            53 vlineto
            5 41 48 3 58 hhcurveto
            32 26 -2 -4 38 hvcurveto
            -42 vlineto
            -87 0 -88 -35 -37 vhcurveto
            55 -18 54 -44 12 -35 22 35 26 39 63 23 rrcurveto
            -46 29 -6 66 69 vvcurveto
            65 24 68 23 43 vhcurveto
            -40 29 -9 66 59 vvcurveto
            33 1 31 4 20 vhcurveto
            8 45 17 60 45 27 rrcurveto
            -8 -61 -60 -8 -56 hhcurveto
            -26 -25 2 4 -24 hvcurveto
            27 -64 7 -46 -66 vvcurveto
            -144 vlineto
            -3 -38 -28 -1 -36 hhcurveto
            -50 -49 0 5 -44 hvcurveto
            127 vlineto
            70 14 96 41 36 vhcurveto
            return
          </CharString>
          <CharString index="16">
            -20 hstemhm
            hintmask 01111000
            -82 callgsubr
            hintmask 10111000
            10 58 39 1 144 hhcurveto
            22 61 -3 -5 17 hvcurveto
            10 22 7 39 34 vvcurveto
            12 -1 10 -1 9 vhcurveto
            -65 -5 -122 8 -95 -21 108 96 rcurveline
            return
          </CharString>
          <CharString index="17">
            vlineto
            69 -40 callsubr
            -27 -56 -48 -15 -44 hhcurveto
            -16 -16 2 5 -15 hvcurveto
            25 -45 5 -36 -67 vvcurveto
            return
          </CharString>
          <CharString index="18">
            -21 4 -17 16 -22 vhcurveto
            -68 -39 12 17 -50 hvcurveto
            100 142 44 62 37 52 57 1 rlinecurve
            4 4 -1 5 hhcurveto
            -20 10 -11 10 19 vvcurveto
            43 62 90 174 231 vhcurveto
            -14 -106 -72 -6 -80 hhcurveto
            -60 -32 0 18 -134 hvcurveto
            -42 -43 -50 -28 -68 -22 rrcurveto
            return
          </CharString>
          <CharString index="19">
            rmoveto
            -32 -72 -26 -31 -15 -8 rrcurveto
            154 hlineto
            -1 3 -1 4 5 vvcurveto
            30 20 60 4 10 vhcurveto
            255 565 32 72 26 31 15 8 rlinecurve
            -154 hlineto
            1 -3 1 -4 -5 vvcurveto
            -30 -20 -60 -4 -10 vhcurveto
            return
          </CharString>
          <CharString index="20">
            40 -1 65 -17 25 -17 rlinecurve
            21 17 20 11 24 hhcurveto
            12 13 -2 -7 13 hvcurveto
            41 -16 -30 20 -28 hhcurveto
            -18 -49 0 -15 -15 hvcurveto
            -28 90 return
          </CharString>
          <CharString index="21">
            rmoveto
            -20 16 -6 8 -20 18 -32 -25 -39 -29 -33 -24 -34 24 -40 29 -31 25 -21 -18 -5 -8 -20 -16 47 -46 53 -56 50 -59 88 93 44 48 19 20 rrcurveto
            endchar
          </CharString>
          <CharString index="22">
            -18 30 -42 -11 -60 -12 -47 -7 rlinecurve
            -11 vlineto
            37 -16 rlineto
            -349 -37 callsubr
            return
          </CharString>
          <CharString index="23">
            rmoveto
            -25 2 -59 -45 vvcurveto
            -63 -3 -64 -7 -16 vhcurveto
            22 -7 110 -43 26 -25 15 17 57 40 58 13 rrcurveto
            282 vlineto
            -39 4 -41 7 -33 28 -45 -28 -84 -14 -38 -2 rrcurveto
            181 -271 rmoveto
            -17 13 -67 24 -3 1 rrcurveto
            2 36 1 38 36 vvcurveto
            51 -1 44 -1 23 vhcurveto
            -17 24 45 -13 19 hhcurveto
            return
          </CharString>
          <CharString index="24">
            384 rmoveto
            65 64 -13 -20 59 hvcurveto
            -48 -129 -47 -126 -61 -120 -54 -6 rlinecurve
            71 1 56 20 58 53 41 -37 14 -17 53 -20 rrcurveto
            -23 36 -9 33 33 vvcurveto
            31 8 32 13 33 vhcurveto
            50 129 50 -28 43 -32 33 -32 rlinecurve
            -1 -65 -2 -54 -3 -32 89 -29 131 -63 45 -35 80 83 39 18 75 36 rrcurveto
            -7 13 -5 32 36 vvcurveto
            44 7 49 15 27 vhcurveto
            -63 -26 -45 -29 -57 -52 6 -12 4 -30 3 -23 rrcurveto
            -1 -50 -27 -6 -5 hvcurveto
            -58 41 -25 21 -21 14 rrcurveto
            -5 34 -3 29 30 vvcurveto
            27 3 56 5 28 vhcurveto
            5 18 16 2 14 hhcurveto
            31 24 -20 -14 16 hvcurveto
            29 23 36 34 36 17 -43 21 -34 36 -25 22 rrcurveto
            -17 -24 -19 -12 -31 hhcurveto
            hintmask 11110100
            -13 -16 2 3 -18 hvcurveto
            169 vlineto
            21 14 26 15 15 13 rrcurveto
            -26 45 23 -18 38 hhcurveto
            51 69 33 91 1 hvcurveto
            -8 -34 -31 -4 -32 hhcurveto
            -52 -31 12 29 -60 hvcurveto
            -44 -31 -53 -13 -81 -4 rrcurveto
            7 -31 -50 2 -28 hhcurveto
            -92 -117 -28 -22 -14 hvcurveto
            8 42 31 4 22 hhcurveto
            37 33 -11 -25 -14 -2 -21 -7 -19 hvcurveto
            -70 -188 rlineto
            1 -24 -24 0 -21 hhcurveto
            -31 -66 -7 -17 -43 hvcurveto
            435 239 rmoveto
            2 -12 rlineto
            -1 -56 0 -82 -109 vvcurveto
            -27 13 -30 9 -33 6 rrcurveto
            return
          </CharString>
          <CharString index="25">
            93 96 -35 141 hhcurveto
            6 6 0 1 7 hvcurveto
            -84 -169 -72 -50 -65 -14 rrcurveto
            14 -16 8 -15 -18 vvcurveto
            -1 -33 -24 -42 -51 -68 -158 -209 rcurveline
            8 59 46 1 39 hhcurveto
            return
          </CharString>
          <CharString index="26">
            -21 746 -20 62 1 callsubr
            316 -99 rmoveto
            38 40 62 49 52 19 rrcurveto
            -6 27 -3 25 118 vvcurveto
            138 4 41 10 36 vhcurveto
            -55 26 -26 22 -46 42 -48 -50 -42 -35 -57 -37 rrcurveto
            270 -90 callsubr
            -526 -37 callsubr
            205 vlineto
            123 55 13 -14 rlineto
            -76 1 -76 -76 vvcurveto
            -29 -11 -117 -15 -53 vhcurveto
            return
          </CharString>
          <CharString index="27">
            2 callsubr
            19 33 24 69 1 93 -44 rcurveline
            25 24 41 17 56 1 rrcurveto
            118 vlineto
            -37 -20 -40 -22 -46 -3 -91 44 rcurveline
            -30 -18 -52 -23 -41 -2 rrcurveto
            endchar
          </CharString>
          <CharString index="28">
            29 37 68 10 27 hhcurveto
            32 48 -13 -13 19 hvcurveto
            66 102 rlineto
            2 -6 -6 2 -6 hhcurveto
            -14 -16 -6 -10 -11 hvcurveto
            6 -11 -42 13 -39 hhcurveto
            -19 -10 -5 -4 -15 hvcurveto
            21 56 51 20 102 19 rrcurveto
            -10 13 -5 29 17 vvcurveto
            45 vlineto
            11 1 11 3 6 vhcurveto
            -4 hlineto
            -23 -79 23 29 -34 hvcurveto
            -17 -23 -100 -48 -27 -5 rrcurveto
            return
          </CharString>
          <CharString index="29">
            rmoveto
            251 vlineto
            -20 5 -39 3 -25 28 -13 -34 -49 -57 -36 -11 rrcurveto
            -8 5 20 -6 20 hhcurveto
            17 18 5 11 7 hvcurveto
            -246 vlineto
            24 -11 14 -12 21 -23 17 14 49 46 13 13 rrcurveto
            -2 -4 -5 -1 -4 hhcurveto
            -16 -14 8 27 hvcurveto
            return
          </CharString>
          <CharString index="30">
            -16 callgsubr
            199 -20 hstemhm
            102 153 -136 136 194 122 hintmask 1100111010000000
            537 486 rmoveto
            21 25 202 17 35 vhcurveto
            1 -6 -9 1 -10 hhcurveto
            hintmask 1101010110000000
            -52 -94 -98 callgsubr
            hintmask 1100111010000000
            23 -28 13 -60 -60 vvcurveto
            -78 -20 -78 -42 -11 vhcurveto
            89 -29 157 -27 117 -71 75 63 49 27 63 15 -8 17 -4 101 -7 113 rrcurveto
            31 39 62 7 21 vhcurveto
            hintmask 1010111010000000
            -14 -25 -39 -6 -45 hhcurveto
            -44 -50 6 10 -50 hvcurveto
            -6 -21 -22 -46 -11 -20 rrcurveto
            -5 84 3 -14 34 hhcurveto
            2 -35 1 -30 -52 vvcurveto
            hintmask 1100111010000000
            -46 -1 -40 -2 -10 vhcurveto
            -101 6 -7 7 -80 19 rrcurveto
            93 -3 128 111 vvcurveto
            102 3 89 12 33 vhcurveto
            19 24 2 35 hhcurveto
            43 46 -3 -14 19 hvcurveto
            12 -64 15 -40 54 -37 rrcurveto
            return
          </CharString>
          <CharString index="31">
            265 -33 -21 353 95 343 -20 21 -20 37 -20 hstemhm
            27 247 -132 132 226 137 hintmask 11001101
            612 -45 callgsubr
            hintmask 11010101
            -32 callsubr
            hintmask 11100011
            -22 -23 -1 -24 hhcurveto
            89 -66 22 -28 -86 vvcurveto
            -49 -2 -67 -12 -47 vhcurveto
            hintmask 11001101
            -34 -36 2 16 -31 hvcurveto
            -130 vlineto
            31 11 36 5 37 1 rrcurveto
            13 -47 0 -55 -38 vvcurveto
            -52 -70 -82 -30 -15 vhcurveto
            159 149 -17 -47 107 hvcurveto
            55 71 54 57 77 14 rrcurveto
            -6 21 -2 25 25 vvcurveto
            63 15 119 26 53 vhcurveto
            -37 134 -21 27 -8 128 rrcurveto
            -112 -539 rmoveto
            -34 -15 -35 -27 -19 -30 -34 6 -66 14 -27 8 -6 69 -3 66 -2 63 28 -2 27 -6 24 -8 rrcurveto
            130 vlineto
            -25 -12 -27 -4 -27 -2 rrcurveto
            83 2 75 2 56 -14 callsubr
          </CharString>
          <CharString index="32">
            -21 753 -20 hstemhm
            133 121 198 138 -124 146 hintmask 11110100
            0 callsubr
            24 -53 29 -31 31 46 27 50 27 13 4 rrcurveto
            hintmask 11111000
            -12 30 -8 41 43 vvcurveto
            58 15 72 41 42 vhcurveto
            -11 hlineto
            -60 -27 -37 -39 hhcurveto
            -11 -50 2 16 -32 hvcurveto
            29 -27 7 -55 -40 -41 -6 -38 -21 vvcurveto
            -6 -4 -95 -94 -91 -49 4 234 1 61 45 78 rrcurveto
            -11 -67 -4 0 -54 hhcurveto
            -64 -21 9 13 -45 hvcurveto
            9 -77 24 -26 48 -14 rrcurveto
            2 -21 1 -33 7 callgsubr
            -75 -38 -7 callsubr
            -18 81 -9 89 -5 94 131 82 rcurveline
            hintmask 11110100
            34 -30 35 -29 5 -3 -6 -165 2 -46 -23 -24 60 -30 41 -43 13 -54 20 56 23 32 57 39 rrcurveto
            return
          </CharString>
          <CharString index="33">
            -107 callsubr
            endchar
          </CharString>
          <CharString index="34">
            rmoveto
            -33 18 -116 48 -44 30 -5 -26 -30 -66 -11 -19 28 -3 122 -20 68 -20 10 25 1 10 10 23 rrcurveto
            endchar
          </CharString>
          <CharString index="35">
            21 -15 12 -84 -90 vvcurveto
            -18 -1 -31 -3 -18 vhcurveto
            64 -53 57 -48 19 -40 rrcurveto
            20 33 94 30 135 -92 callgsubr
            return
          </CharString>
          <CharString index="36">
            15 vlineto
            -18 7 -9 24 42 vvcurveto
            return
          </CharString>
          <CharString index="37">
            42 -4 -42 32 -51 hhcurveto
            -15 -39 -13 -16 -26 -14 rrcurveto
            endchar
          </CharString>
          <CharString index="38">
            rmoveto
            -97 callsubr
            return
          </CharString>
          <CharString index="39">
            19 34 2 35 hhcurveto
            43 26 -3 -14 19 hvcurveto
            return
          </CharString>
          <CharString index="40">
            2 -18 2 -18 -18 vvcurveto
            -18 -2 -18 -2 -18 vhcurveto
            return
          </CharString>
          <CharString index="41">
            44 1 35 2 23 vhcurveto
            -114 -8 -52 -8 -52 -18 rrcurveto
            -3 21 -1 28 27 vvcurveto
            26 1 19 2 21 vhcurveto
            return
          </CharString>
          <CharString index="42">
            42 48 12 16 38 hvcurveto
            28 -28 17 -2 72 -34 6 9 rcurveline
            -57 70 -13 24 109 vvcurveto
            return
          </CharString>
          <CharString index="43">
            16 callgsubr
            hintmask 10000000
            -60 callgsubr
            153 -39 callsubr
            hintmask 10000000
            -17 -35 -41 -1 -37 hhcurveto
            -151 -24 callgsubr
          </CharString>
          <CharString index="44">
            40 39 -5 -12 33 hvcurveto
            return
          </CharString>
          <CharString index="45">
            -17 -35 -41 -1 -37 hhcurveto
            return
          </CharString>
          <CharString index="46">
            -37 -56 callsubr
            return
          </CharString>
          <CharString index="47">
            13 -20 2 -8 12 -22 58 28 100 33 25 7 -13 16 -37 53 -9 23 -35 -34 -90 -56 -26 -20 rrcurveto
            return
          </CharString>
          <CharString index="48">
            -35 8 -11 19 127 vvcurveto
            99 5 41 20 32 vhcurveto
            return
          </CharString>
          <CharString index="49">
            hstemhm
            109 148 -131 131 return
          </CharString>
          <CharString index="50">
            -63 callsubr
            -3 18 -1 18 18 vvcurveto
            return
          </CharString>
          <CharString index="51">
            -41 1 17 -35 hvcurveto
            return
          </CharString>
          <CharString index="52">
            -30 callsubr
            -42 vlineto
            -27 -24 -29 -18 -27 -10 rrcurveto
            -11 83 -243 vlineto
            -107 -20 -21 -37 -9 vhcurveto
            return
          </CharString>
          <CharString index="53">
            -3 rmoveto
            7 20 20 3 19 hhcurveto
            return
          </CharString>
          <CharString index="54">
            vlineto
            -18 30 -42 -11 -60 -12 -47 -7 rlinecurve
            -11 vlineto
            37 -16 rlineto
            return
          </CharString>
          <CharString index="55">
            rmoveto
            -2 -3 -46 -8 -29 hhcurveto
            -20 -21 3 7 -22 hvcurveto
            25 -26 148 -170 24 -27 -24 -28 -149 -178 -25 -25 rrcurveto
            6 22 23 4 25 hhcurveto
            22 23 -3 -7 26 hvcurveto
            202 231 rlineto
            return
          </CharString>
          <CharString index="56">
            170 -22 -21 378 -22 callgsubr
            return
          </CharString>
          <CharString index="57">
            125 138 -31 callgsubr
            return
          </CharString>
          <CharString index="58">
            -18 19 36 -9 37 hhcurveto
            38 37 10 15 16 hvcurveto
            -67 vlineto
            -85 -18 -85 -74 -108 vvcurveto
            -16 1 -17 5 -14 vhcurveto
            return
          </CharString>
          <CharString index="59">
            455 rmoveto
            -77 callgsubr
            return
          </CharString>
          <CharString index="60">
            13 -31 24 -34 28 -18 15 32 54 58 36 14 rrcurveto
            11 vlineto
            -35 return
          </CharString>
          <CharString index="61">
            6 -47 17 -27 44 -37 15 34 56 55 34 15 rrcurveto
            11 vlineto
            -37 7 -8 30 124 vvcurveto
            236 vlineto
            -45 -22 -67 -16 -63 -4 rrcurveto
            -13 vlineto
            39 -11 6 -17 -93 vvcurveto
            -156 vlineto
            -96 -42 -42 32 rlineto
            202 vlineto
            70 1 26 6 45 vhcurveto
            -35 -15 -92 -21 -55 -6 rrcurveto
            endchar
          </CharString>
          <CharString index="62">
            -20 hstem
            69 130 137 123 return
          </CharString>
          <CharString index="63">
            -15 19 -12 31 32 vvcurveto
            26 8 27 19 22 vhcurveto
            -96 -8 -47 -91 -18 -53 rrcurveto
            -75 6 60 -29 41 hhcurveto
            12 45 10 28 32 26 rrcurveto
            return
          </CharString>
          <CharString index="64">
            55 57 89 48 66 8 rrcurveto
            return
          </CharString>
          <CharString index="65">
            18 1 18 3 18 vhcurveto
            return
          </CharString>
          <CharString index="66">
            216 -126 126 190 138 -123 146 hintmask 11110010
            return
          </CharString>
          <CharString index="67">
            8 55 27 32 vhcurveto
            return
          </CharString>
          <CharString index="68">
            hlineto
            hintmask 01100000
            -63 callsubr
            138 vlineto
            return
          </CharString>
          <CharString index="69">
            hlineto
            -33 callgsubr
            return
          </CharString>
          <CharString index="70">
            vlineto
            -37 -11 -21 -16 -6 vhcurveto
            -15 184 -71 callsubr
            return
          </CharString>
          <CharString index="71">
            rmoveto
            -55 -28 -40 -40 -40 28 -39 58 53 27 40 41 39 -27 39 -56 hvcurveto
            -59 vmoveto
            14 6 -11 -9 hvcurveto
            return
          </CharString>
          <CharString index="72">
            -63 callsubr
            150 -11 callsubr
            -13 109 hlineto
            40 5 39 12 33 vhcurveto
            -160 hlineto
            17 -35 1 -41 -37 vvcurveto
            -108 -13 vlineto
            -61 callgsubr
          </CharString>
          <CharString index="73">
            -37 -1 -41 -17 -35 vhcurveto
            return
          </CharString>
          <CharString index="74">
            -48 -41 -89 -37 -58 -15 rrcurveto
            20 -40 return
          </CharString>
          <CharString index="75">
            -15 -99 -89 -2 -149 hhcurveto
            return
          </CharString>
          <CharString index="76">
            4 190 rmoveto
            -133 -75 vlineto
            31 37 33 71 11 25 rrcurveto
            return
          </CharString>
          <CharString index="77">
            -33 callsubr
            0 -26 -119 vvcurveto
            return
          </CharString>
          <CharString index="78">
            103 -99 -21 138 -20 hstemhm
            hintmask 01100000
            return
          </CharString>
          <CharString index="79">
            90 60 111 66 1 vhcurveto
            return
          </CharString>
          <CharString index="80">
            8 -23 callgsubr
            return
          </CharString>
          <CharString index="81">
            rmoveto
            17 -24 8 -33 -34 vvcurveto
            -39 -10 -39 -15 -28 vhcurveto
            90 20 38 107 23 65 rrcurveto
            75 -5 -55 29 -37 15 callgsubr
          </CharString>
          <CharString index="82">
            -11 -7 -10 -12 -15 -8 10 10 10 8 11 14 vhcurveto
            return
          </CharString>
          <CharString index="83">
            824 -53 rmoveto
            -104 64 -122 207 159 vvcurveto
            -26 17 -55 138 111 vvcurveto
            42 8 38 19 27 vhcurveto
            -14 -9 -71 -22 -48 -3 rrcurveto
            return
          </CharString>
          <CharString index="84">
            256 -27 -21 50 101 return
          </CharString>
          <CharString index="85">
            rmoveto
            -71 callgsubr
            return
          </CharString>
          <CharString index="86">
            vhcurveto
            20 13 rlineto
            -36 56 45 -23 36 hhcurveto
            37 29 26 63 22 hvcurveto
            -78 17 -62 19 -47 25 -33 callsubr
            return
          </CharString>
          <CharString index="87">
            -3 18 -1 18 18 vvcurveto
            -42 callsubr
            return
          </CharString>
          <CharString index="88">
            195 rmoveto
            -107 callsubr
            return
          </CharString>
          <CharString index="89">
            -32 rmoveto
            37 27 97 26 50 6 rrcurveto
            -9 25 -3 22 45 vvcurveto
            15 0 15 1 16 vhcurveto
            -63 -18 -21 -29 -7 -42 return
          </CharString>
          <CharString index="90">
            -34 callsubr
            -9 callsubr
            return
          </CharString>
          <CharString index="91">
            171 -22 -21 687 88 -88 102 return
          </CharString>
          <CharString index="92">
            vlineto
            -34 callsubr
            return
          </CharString>
          <CharString index="93">
            vhcurveto
            63 21 98 7 42 1 9 -69 33 -119 18 -53 -25 -43 -15 -149 -1 -60 rrcurveto
            endchar
          </CharString>
          <CharString index="94">
            -15 0 -16 -1 -15 vhcurveto
            endchar
          </CharString>
          <CharString index="95">
            -74 -33 -25 -62 hhcurveto
            -31 -60 2 23 -45 hvcurveto
            16 -22 21 -28 -29 vvcurveto
            -6 0 -6 -1 -6 vhcurveto
            return
          </CharString>
          <CharString index="96">
            vlineto
            -62 callsubr
            return
          </CharString>
          <CharString index="97">
            15 8 rlinecurve
            -144 hlineto
            1 -3 1 -4 -5 vvcurveto
            -30 -14 -59 -3 -11 vhcurveto
            -21 -80 rlineto
            return
          </CharString>
          <CharString index="98">
            160 -38 callsubr
            return
          </CharString>
          <CharString index="99">
            -11 callgsubr
            -101 -24 callgsubr
          </CharString>
          <CharString index="100">
            -85 -57 -34 vhcurveto
            -1 7 8 0 7 61 39 19 46 hhcurveto
            25 27 -6 -17 34 hvcurveto
            return
          </CharString>
          <CharString index="101">
            596 -21 203 -20 hstem
            return
          </CharString>
          <CharString index="102">
            482 -66 -21 820 -20 return
          </CharString>
          <CharString index="103">
            hintmask 10000000
            -60 callgsubr
            103 hlineto
            hintmask 01100000
            -63 callsubr
            return
          </CharString>
          <CharString index="104">
            315 -209 57 899 -20 return
          </CharString>
          <CharString index="105">
            rmoveto
            -116 vlineto
            return
          </CharString>
          <CharString index="106">
            21 -21 788 -20 22 -20 hstemhm
            41 95 85 98 157 95 85 98 return
          </CharString>
          <CharString index="107">
            653 39 rmoveto
            -31 31 -10 81 68 vvcurveto
            46 4 39 6 15 vhcurveto
            -37 return
          </CharString>
          <CharString index="108">
            -45 callsubr
            vstem
            return
          </CharString>
          <CharString index="109">
            -2 callsubr
            20 return
          </CharString>
          <CharString index="110">
            542 188 3 -20 hstemhm
            return
          </CharString>
          <CharString index="111">
            240 -103 103 -103 240 return
          </CharString>
          <CharString index="112">
            118 82 66 89 101 return
          </CharString>
          <CharString index="113">
            -21 256 -20 hstem
            return
          </CharString>
          <CharString index="114">
            -15 callsubr
            endchar
          </CharString>
          <CharString index="115">
            -43 callsubr
            -12 68 -6 69 73 vvcurveto
            return
          </CharString>
          <CharString index="116">
            258 -11 -21 52 226 -6 223 -117 95 return
          </CharString>
          <CharString index="117">
            rrcurveto
            -43 27 -17 58 61 vvcurveto
            74 24 80 33 41 vhcurveto
            return
          </CharString>
          <CharString index="118">
            -21 178 -20 hstem
            return
          </CharString>
          <CharString index="119">
            22 vlineto
            -13 callgsubr
            return
          </CharString>
          <CharString index="120">
            hlineto
            -63 callsubr
            return
          </CharString>
          <CharString index="121">
            -21 746 -20 62 -20 hstem
            69 130 return
          </CharString>
          <CharString index="122">
            6 6 vvcurveto
            28 return
          </CharString>
        <CharString name=".notdef">
          299 -283 70 195 90 318 174 -13 42 282 71 hstemhm
          50 70 113 67 11 233 -215 88 -69 49 70 77 88 70 hintmask 1110111001110000
          702 -283 rmoveto
          1229 -652 -1229 vlineto
          70 1158 rmoveto
          512 -1088 -512 hlineto
          277 355 rmoveto
          hintmask 1101111100010000
          159 147 31 123 vvcurveto
          115 -103 23 -70 vhcurveto
          hintmask 1110111100010000
          -24 -36 -2 -27 hvcurveto
          -46 -32 -24 -58 -82 64 -10 37 hvcurveto
          6 vlineto
          0 -34 14 62 vvcurveto
          hintmask 1101111001110000
          45 37 34 46 54 30 -40 -55 vhcurveto
          -110 -119 -30 -174 vvcurveto
          hintmask 1110111010110000
          -19 -115 rmoveto
          -25 20 -20 24 25 19 20 25 25 -19 20 -25 -24 -20 -20 -25 vhcurveto
          endchar
        </CharString>
        <CharString name="A">
          -47 callgsubr
          7 -20 hstemhm
          hintmask 11010000
          -24 callsubr
          hintmask 11100000
          20 -16 -35 7 -35 hhcurveto
          -92 -120 -47 -23 -15 hvcurveto
          8 42 30 4 26 hhcurveto
          42 15 -11 -28 -10 -2 -18 -7 -23 hvcurveto
          -54 -185 rlineto
          25 -45 -33 13 -33 hhcurveto
          -25 -25 -7 -15 -30 hvcurveto
          1 -3 rlineto
          1 12 3 0 2 hhcurveto
          44 59 -41 -49 47 hvcurveto
          -32 -112 -37 -130 -63 -113 -52 -9 rlinecurve
          67 1 53 20 55 53 41 -37 14 -17 53 -20 rrcurveto
          -24 35 -10 41 41 vvcurveto
          28 5 27 8 26 vhcurveto
          16 52 47 -67 39 -64 23 -32 rlinecurve
          28 54 41 67 38 51 24 -76 rcurveline
          8 -25 13 -40 -38 vvcurveto
          -24 -5 -24 -13 -16 vhcurveto
          46 12 17 10 34 35 72 -43 76 -29 74 -27 rrcurveto
          -454 277 rmoveto
          -22 28 -30 38 -26 28 79 258 rcurveline
          77 -250 -24 -34 -31 -37 -23 -31 rlinecurve
          endchar
        </CharString>
        <CharString name="AE">
          476 -52 -21 420 90 248 36 41 -20 hstemhm
          237 197 0 148 hintmask 11111000
          -2 -83 callsubr
          endchar
        </CharString>
        <CharString name="AEacute">
          493 -52 -21 420 90 248 36 223 -20 hstemhm
          254 197 0 148 hintmask 11111000
          15 -83 callsubr
          33 456 -93 callsubr
        </CharString>
        <CharString name="Aacute">
          -47 callgsubr
          200 -20 hstem
          824 -53 -107 callgsubr
          -69 626 -93 callsubr
        </CharString>
        <CharString name="Abreve">
          -47 callgsubr
          59 65 66 -20 hstem
          824 -53 -107 callgsubr
          142 679 -79 callgsubr
        </CharString>
        <CharString name="Acircumflex">
          -47 callgsubr
          202 -20 hstem
          824 -53 -107 callgsubr
          171 607 -94 callsubr
        </CharString>
        <CharString name="Adieresis">
          -47 callgsubr
          202 -20 hstem
          824 -53 -107 callgsubr
          -183 633 -87 callgsubr
        </CharString>
        <CharString name="Agrave">
          -47 callgsubr
          200 -20 hstem
          824 -53 -107 callgsubr
          60 626 -73 callsubr
        </CharString>
        <CharString name="Amacron">
          -47 callgsubr
          87 73 18 -20 hstemhm
          hintmask 11101000
          824 -53 -107 callgsubr
          -162 700 rmoveto
          -67 callsubr
          hintmask 11110000
          -68 callgsubr
          hintmask 11101000
          -42 callsubr
          hintmask 11110000
          -46 callgsubr
          hintmask 11101000
          -61 callgsubr
        </CharString>
        <CharString name="Aogonek">
          277 -212 -21 918 58 7 -20 hstemhm
          hintmask 10100000
          -24 callsubr
          hintmask 11000000
          20 -16 -35 7 -35 hhcurveto
          -92 -120 -47 -23 -15 hvcurveto
          8 42 30 4 26 hhcurveto
          42 15 -11 -28 -10 -2 -18 -7 -23 hvcurveto
          -54 -185 rlineto
          25 -45 -33 13 -33 hhcurveto
          -25 -25 -7 -15 -30 hvcurveto
          1 -3 rlineto
          1 12 3 0 2 hhcurveto
          44 59 -41 -49 47 hvcurveto
          -32 -112 -37 -130 -63 -113 -52 -9 rlinecurve
          67 1 53 20 55 53 41 -37 14 -17 53 -20 rrcurveto
          -24 35 -10 41 41 vvcurveto
          28 5 27 8 26 vhcurveto
          16 52 47 -67 39 -64 23 -32 rlinecurve
          28 54 41 67 38 51 24 -76 rcurveline
          8 -25 13 -40 -38 vvcurveto
          -24 -5 -24 -13 -16 vhcurveto
          24 6 16 6 14 9 -81 -122 rcurveline
          40 -83 -87 callsubr
          69 100 63 -34 65 -25 64 -23 rlinecurve
          -454 277 rmoveto
          -22 28 -30 38 -26 28 79 258 rcurveline
          77 -250 -24 -34 -31 -37 -23 -31 rlinecurve
          endchar
        </CharString>
        <CharString name="Aring">
          -47 callgsubr
          43 59 -59 159 hstemhm
          hintmask 11101000
          824 -53 -107 callgsubr
          1 724 -36 callsubr
          hintmask 11110000
          -25 callsubr
          endchar
        </CharString>
        <CharString name="Aringacute">
          -47 callgsubr
          25 59 -59 159 17 -20 hstemhm
          hintmask 11101000
          375 927 rmoveto
          -48 -28 -31 -34 -6 hvcurveto
          -33 -15 -30 -15 -14 -7 10 -23 1 -10 10 -25 23 6 29 8 30 6 rrcurveto
          -12 14 19 -7 26 hhcurveto
          37 25 20 26 11 hvcurveto
          50 10 47 7 17 2 rrcurveto
          hintmask 11110100
          -11 19 -30 66 -5 26 -19 -13 -30 -15 -31 -15 rrcurveto
          hintmask 11101000
          16 -14 -21 10 -29 hhcurveto
          -59 vmoveto
          14 6 -11 -9 hvcurveto
          hintmask 11110100
          -25 callsubr
          449 -921 -107 callgsubr
          endchar
        </CharString>
        <CharString name="Atilde">
          -47 callgsubr
          84 71 45 -20 hstem
          824 -53 -107 callgsubr
          -167 678 -80 callsubr
        </CharString>
        <CharString name="B">
          228 -69 -21 857 -20 hstemhm
          130 135 193 119 -119 144 hintmask 11110000
          267 632 rmoveto
          54 -27 63 -11 78 -1 rrcurveto
          -3 -18 -1 -13 -14 vvcurveto
          -12 1 -36 1 -16 vhcurveto
          -52 -44 -60 -27 -81 -18 rrcurveto
          -2 43 0 41 44 vvcurveto
          36 1 37 1 36 vhcurveto
          357 -271 rmoveto
          -2 -13 -16 -1 -14 hhcurveto
          -45 -44 6 9 -46 hvcurveto
          59 23 54 36 36 15 rrcurveto
          -13 43 -5 39 37 vvcurveto
          13 1 13 1 12 vhcurveto
          23 14 13 46 7 25 rrcurveto
          -3 -18 -18 -1 -18 hhcurveto
          -97 -130 57 25 -23 hvcurveto
          -44 -55 -52 -14 -59 hhcurveto
          -40 -41 6 7 -42 hvcurveto
          6 -67 31 -31 46 -14 rrcurveto
          10 -34 8 -45 -46 vvcurveto
          -48 -8 -50 -22 -41 vhcurveto
          14 -26 12 -68 -44 vvcurveto
          -63 -29 -92 -62 -20 vhcurveto
          2 -4 108 -11 119 -33 85 -75 rlinecurve
          87 89 137 23 72 12 rrcurveto
          hintmask 11101000
          -29 48 -14 79 61 vvcurveto
          48 9 47 16 39 vhcurveto
          -162 -91 rmoveto
          2 -55 3 -63 7 -41 -48 -18 -27 -15 -36 -26 -23 17 -51 21 -27 8 rrcurveto
          -6 40 -2 28 40 vvcurveto
          34 2 45 4 36 vhcurveto
          77 -12 39 -11 86 -28 rrcurveto
          endchar
        </CharString>
        <CharString name="C">
          171 -22 -21 687 13 callgsubr
          hintmask 10101000
          47 -54 callsubr
          88 116 -17 -33 110 hvcurveto
          70 59 44 11 43 5 rrcurveto
          -9 28 -8 60 69 vvcurveto
          28 1 30 4 31 vhcurveto
          -6 2 -55 -60 -52 -60 -19 -83 rlinecurve
          -169 17 rlineto
          -5 55 -2 79 84 vvcurveto
          123 6 131 14 76 vhcurveto
          -68 callsubr
          11 -61 16 -39 47 -35 7 3 rcurveline
          5 50 22 168 15 31 rrcurveto
          1 -6 -9 1 -10 hhcurveto
          hintmask 11001000
          -52 -84 -98 callgsubr
          hintmask 11010000
          -72 callgsubr
          endchar
        </CharString>
        <CharString name="CR">
          -174 endchar
        </CharString>
        <CharString name="Cacute">
          -16 callsubr
          197 -20 -58 callsubr
          hintmask 10110100
          47 -54 callsubr
          88 116 -17 -33 110 hvcurveto
          70 59 44 11 43 5 rrcurveto
          -9 28 -8 60 69 vvcurveto
          28 1 30 4 31 vhcurveto
          -6 2 -55 -60 -52 -60 -19 -83 rlinecurve
          -169 17 rlineto
          -5 55 -2 79 84 vvcurveto
          123 6 131 14 76 vhcurveto
          -68 callsubr
          11 -61 16 -39 47 -35 7 3 rcurveline
          5 50 22 168 15 31 rrcurveto
          1 -6 -9 1 -10 hhcurveto
          hintmask 11010100
          -52 -84 -98 callgsubr
          hintmask 11011000
          -72 callgsubr
          204 847 -93 callsubr
        </CharString>
        <CharString name="Ccaron">
          -16 callsubr
          199 -20 -58 callsubr
          hintmask 10110100
          47 -54 callsubr
          88 116 -17 -33 110 hvcurveto
          70 59 44 11 43 5 rrcurveto
          -9 28 -8 60 69 vvcurveto
          28 1 30 4 31 vhcurveto
          -6 2 -55 -60 -52 -60 -19 -83 rlinecurve
          -169 17 rlineto
          -5 55 -2 79 84 vvcurveto
          123 6 131 14 76 vhcurveto
          -68 callsubr
          11 -61 16 -39 47 -35 7 3 rcurveline
          5 50 22 168 15 31 rrcurveto
          1 -6 -9 1 -10 hhcurveto
          hintmask 11010100
          -52 -84 -98 callgsubr
          hintmask 11011000
          -72 callgsubr
          444 903 -90 callgsubr
        </CharString>
        <CharString name="Ccedilla">
          173 -10 callgsubr
          723 88 -88 102 hstemhm
          111 148 -131 131 hintmask 11101010
          302 -135 rmoveto
          -8 callgsubr
          15 15 -2 -2 15 hvcurveto
          1 -37 0 -43 1 -6 rrcurveto
          15 -15 -43 7 -18 hhcurveto
          -28 -30 -20 -41 -16 hvcurveto
          7 13 13 2 12 hhcurveto
          24 20 -11 -21 17 hvcurveto
          25 17 65 17 40 1 rrcurveto
          -4 6 -1 112 20 vvcurveto
          -42 31 rlineto
          -61 53 hlineto
          21 -5 21 -5 21 -7 70 59 44 11 43 5 rrcurveto
          -9 28 -8 60 69 vvcurveto
          28 1 30 4 31 vhcurveto
          -6 2 -55 -60 -52 -60 -19 -83 rlinecurve
          -169 17 rlineto
          -5 55 -2 79 84 vvcurveto
          123 6 131 14 76 vhcurveto
          -68 callsubr
          11 -61 16 -39 47 -35 7 3 rcurveline
          5 50 22 168 15 31 rrcurveto
          1 -6 -9 1 -10 hhcurveto
          hintmask 11110010
          -52 -84 -98 callgsubr
          hintmask 11110100
          -72 callgsubr
          1 -3 rlineto
          7 20 20 3 19 hhcurveto
          51 62 -6 -11 64 hvcurveto
          -75 0 -16 -1 -15 vhcurveto
          endchar
        </CharString>
        <CharString name="Ccircumflex">
          -16 callsubr
          199 -20 -58 callsubr
          hintmask 10110100
          47 -54 callsubr
          88 116 -17 -33 110 hvcurveto
          70 59 44 11 43 5 rrcurveto
          -9 28 -8 60 69 vvcurveto
          28 1 30 4 31 vhcurveto
          -6 2 -55 -60 -52 -60 -19 -83 rlinecurve
          -169 17 rlineto
          -5 55 -2 79 84 vvcurveto
          123 6 131 14 76 vhcurveto
          -68 callsubr
          11 -61 16 -39 47 -35 7 3 rcurveline
          5 50 22 168 15 31 rrcurveto
          1 -6 -9 1 -10 hhcurveto
          hintmask 11010100
          -52 -84 -98 callgsubr
          hintmask 11011000
          -72 callgsubr
          444 828 -94 callsubr
        </CharString>
        <CharString name="Cdotaccent">
          -16 callsubr
          199 -20 -58 callsubr
          hintmask 10110100
          47 -54 callsubr
          88 116 -17 -33 110 hvcurveto
          70 59 44 11 43 5 rrcurveto
          -9 28 -8 60 69 vvcurveto
          28 1 30 4 31 vhcurveto
          -6 2 -55 -60 -52 -60 -19 -83 rlinecurve
          -169 17 rlineto
          -5 55 -2 79 84 vvcurveto
          123 6 131 14 76 vhcurveto
          -68 callsubr
          11 -61 16 -39 47 -35 7 3 rcurveline
          5 50 22 168 15 31 rrcurveto
          1 -6 -9 1 -10 hhcurveto
          hintmask 11010100
          -52 -84 -98 callgsubr
          hintmask 11011000
          -72 callgsubr
          192 854 -69 callsubr
          endchar
        </CharString>
        <CharString name="D">
          249 -33 -21 791 -20 21 -20 37 -36 callgsubr
          hintmask 10011100
          596 -45 callgsubr
          hintmask 10101100
          -32 callsubr
          hintmask 11001100
          -101 callgsubr
          endchar
        </CharString>
        <CharString name="Dcaron">
          249 -33 -21 791 -20 21 -20 227 -36 callgsubr
          hintmask 10111100
          596 -45 callgsubr
          -32 callsubr
          hintmask 11011100
          -101 callgsubr
          48 759 -90 callgsubr
        </CharString>
        <CharString name="Dcroat">
          -76 callsubr
        </CharString>
        <CharString name="Ddotbelow">
          249 -252 -21 1010 -20 21 -20 37 -36 callgsubr
          hintmask 10011100
          596 -45 callgsubr
          hintmask 10101100
          -32 callsubr
          hintmask 11001100
          -101 callgsubr
          -194 -341 rmoveto
          -74 callsubr
        </CharString>
        <CharString name="E">
          170 -22 -21 378 90 219 13 callgsubr
          hintmask 11011000
          -106 callgsubr
          hintmask 11100100
          -52 -84 -98 callgsubr
          hintmask 11101000
          -72 callgsubr
          endchar
        </CharString>
        <CharString name="Eacute">
          -51 callsubr
          197 -20 -58 callsubr
          hintmask 11011100
          -106 callgsubr
          hintmask 11101010
          -52 -84 -98 callgsubr
          hintmask 11101100
          -72 callgsubr
          202 847 -93 callsubr
        </CharString>
        <CharString name="Ebreve">
          -51 callsubr
          56 65 66 -20 -58 callsubr
          hintmask 11011110
          -106 callgsubr
          hintmask 11101101
          -52 -84 -98 callgsubr
          hintmask 11101110
          -72 callgsubr
          413 900 -79 callgsubr
        </CharString>
        <CharString name="Ecaron">
          -51 callsubr
          199 -20 -58 callsubr
          hintmask 11011100
          -106 callgsubr
          hintmask 11101010
          -52 -84 -98 callgsubr
          hintmask 11101100
          -72 callgsubr
          442 903 -90 callgsubr
        </CharString>
        <CharString name="Ecircumflex">
          -51 callsubr
          199 -20 -58 callsubr
          hintmask 11011100
          -106 callgsubr
          hintmask 11101010
          -52 -84 -98 callgsubr
          hintmask 11101100
          -72 callgsubr
          442 828 -94 callsubr
        </CharString>
        <CharString name="Edieresis">
          -51 callsubr
          199 -20 -58 callsubr
          hintmask 11011100
          -106 callgsubr
          hintmask 11101010
          -52 -84 -98 callgsubr
          hintmask 11101100
          -72 callgsubr
          282 854 -69 callsubr
          -199 -69 callgsubr
        </CharString>
        <CharString name="Edotaccent">
          -51 callsubr
          199 -20 -58 callsubr
          hintmask 11011100
          -106 callgsubr
          hintmask 11101010
          -52 -84 -98 callgsubr
          hintmask 11101100
          -72 callgsubr
          190 854 -69 callsubr
          endchar
        </CharString>
        <CharString name="Edotbelow">
          170 -252 -21 608 90 219 13 callgsubr
          hintmask 11011000
          -106 callgsubr
          hintmask 11100100
          -52 -84 -98 callgsubr
          hintmask 11101000
          -72 callgsubr
          180 -197 rmoveto
          -74 callsubr
        </CharString>
        <CharString name="Egrave">
          -51 callsubr
          197 -20 -58 callsubr
          hintmask 11011100
          -106 callgsubr
          hintmask 11101010
          -52 -84 -98 callgsubr
          hintmask 11101100
          -72 callgsubr
          331 847 -73 callsubr
        </CharString>
        <CharString name="Emacron">
          -51 callsubr
          84 73 18 -20 -58 callsubr
          hintmask 11011010
          -106 callgsubr
          hintmask 11101001
          -52 -84 -98 callgsubr
          hintmask 11100110
          -72 callgsubr
          109 921 rmoveto
          -67 callsubr
          hintmask 11101010
          -68 callgsubr
          hintmask 11100110
          -42 callsubr
          hintmask 11101010
          -46 callgsubr
          hintmask 11100110
          -61 callgsubr
        </CharString>
        <CharString name="Eng">
          339 -258 -21 1026 -20 hstemhm
          137 132 248 132 -132 144 hintmask 11101000
          661 112 rmoveto
          69 13 129 24 59 vhcurveto
          hintmask 11110000
          -33 63 -16 55 50 vvcurveto
          84 45 66 80 57 vhcurveto
          -4 callgsubr
          -58 -86 -28 -120 hhcurveto
          -13 -13 0 1 -13 hvcurveto
          39 -15 21 -29 3 -40 rrcurveto
          1 6 -175 -205 vvcurveto
          -35 0 -35 -1 -36 vhcurveto
          -105 174 -88 204 -47 117 5 35 21 25 36 14 rrcurveto
          -1 -13 -13 0 -13 -120 -86 28 -58 hhcurveto
          -8 -8 -1 -2 -7 hvcurveto
          80 -57 45 -66 -84 vvcurveto
          -50 -16 -55 -33 -63 vhcurveto
          32 -48 13 -53 -55 vvcurveto
          -118 -63 -123 -81 -77 vhcurveto
          114 33 58 47 41 63 59 -48 23 -12 59 -16 rrcurveto
          -54 63 -20 53 163 vvcurveto
          93 vlineto
          55 -118 78 -147 111 -115 rrcurveto
          -13 vlineto
          -32 -54 -84 -89 -45 -28 24 -49 rcurveline
          78 65 166 111 67 37 rrcurveto
          5 vlineto
          hintmask 11101000
          -20 12 -6 50 70 vvcurveto
          endchar
        </CharString>
        <CharString name="Eogonek">
          172 -212 -21 568 -22 callgsubr
          hstemhm
          111 148 -131 131 hintmask 11011000
          49 -54 callsubr
          42 50 -4 -7 52 hvcurveto
          -64 -56 35 -138 -87 callsubr
          54 57 33 -7 34 -9 33 -10 rlinecurve
          70 59 44 11 43 5 rrcurveto
          -9 28 -8 60 69 vvcurveto
          28 1 30 4 31 vhcurveto
          -6 2 -55 -60 -52 -60 -19 -83 rlinecurve
          -169 17 rlineto
          -5 55 -2 79 84 vvcurveto
          18 vlineto
          4 19 26 1 12 hhcurveto
          31 26 -44 -30 16 hvcurveto
          13 35 23 55 23 24 -28 21 -13 57 -14 31 rrcurveto
          -35 -25 -28 -24 -28 hhcurveto
          -10 -23 1 2 -18 hvcurveto
          2 83 6 79 10 52 rrcurveto
          -68 callsubr
          11 -47 16 -32 47 -26 7 3 rcurveline
          5 44 22 147 15 28 rrcurveto
          1 -6 -9 1 -10 hhcurveto
          hintmask 11100100
          -52 -84 -98 callgsubr
          hintmask 11101000
          -72 callgsubr
          endchar
        </CharString>
        <CharString name="Eth">
          -76 callsubr
        </CharString>
        <CharString name="Etilde">
          -51 callsubr
          81 71 45 -20 -58 callsubr
          hintmask 11011110
          -106 callgsubr
          hintmask 11101101
          -52 -84 -98 callgsubr
          hintmask 11101110
          -72 callgsubr
          104 899 -80 callsubr
        </CharString>
        <CharString name="Euro">
          179 -52 -21 127 142 105 94 105 144 0 88 -88 102 hstemhm
          74 190 -141 141 hintmask 11110010
          74 518 rmoveto
          -140 vlineto
          15 5 17 4 18 3 rrcurveto
          hintmask 11110001
          -27 -1 -28 -31 vvcurveto
          hintmask 11110010
          -17 3 -17 4 -15 8 rrcurveto
          -140 vlineto
          15 5 15 4 17 3 -7 -67 -31 -61 -36 -9 89 -29 147 -27 117 -71 75 63 49 27 63 15 -10 22 2 89 -12 119 -63 -72 -41 -47 -20 -89 -101 6 3 7 -80 19 rrcurveto
          33 0 37 -1 40 vhcurveto
          75 13 callsubr
          140 -11 callsubr
          -76 94 77 13 callsubr
          140 -11 callsubr
          -76 hlineto
          2 65 4 53 9 24 rrcurveto
          -68 callsubr
          12 -64 15 -40 54 -37 rrcurveto
          21 25 202 17 35 vhcurveto
          hintmask 11100110
          1 -6 -9 1 -10 hhcurveto
          hintmask 11101001
          -52 -84 -14 -146 hhcurveto
          -68 -77 3 9 -85 hvcurveto
          15 -38 40 -37 29 -12 rrcurveto
          1 -12 2 -24 -30 vvcurveto
          -88 vlineto
          hintmask 11110010
          -18 2 -18 5 -16 8 rrcurveto
          endchar
        </CharString>
        <CharString name="F">
          203 -57 -21 398 98 179 104 -104 116 59 -20 hstemhm
          161 136 hintmask 11101100
          -17 648 rmoveto
          3 16 15 2 18 hhcurveto
          32 47 -16 -14 48 hvcurveto
          1 -19 1 -19 -19 vvcurveto
          -84 -13 -86 -34 -47 vhcurveto
          28 -29 16 -65 -67 vvcurveto
          -59 -13 -71 -27 -39 vhcurveto
          60 -22 58 -37 23 -38 30 40 23 30 57 27 rrcurveto
          -46 29 -26 76 69 vvcurveto
          42 0 40 -1 38 vhcurveto
          5 18 16 2 14 hhcurveto
          31 32 -14 -18 28 hvcurveto
          37 26 45 34 39 23 -45 26 -40 30 -37 25 rrcurveto
          -17 -30 -33 -17 -31 hhcurveto
          -13 -15 1 3 -17 hvcurveto
          115 vlineto
          22 0 22 3 20 vhcurveto
          -2 30 41 -2 31 hhcurveto
          91 122 51 58 65 hvcurveto
          -3 -20 -21 -2 -24 hhcurveto
          -75 -91 15 56 -87 hvcurveto
          hintmask 11011100
          1 -20 5 -17 13 -22 rrcurveto
          -93 -42 5 41 -123 hvcurveto
          -35 -44 -47 -42 -57 -22 rrcurveto
          endchar
        </CharString>
        <CharString name="G">
          198 -52 -21 127 -74 callgsubr
          endchar
        </CharString>
        <CharString name="Gbreve">
          -16 callgsubr
          -14 70 -56 56 0 65 66 -20 hstemhm
          102 153 -136 136 194 122 hintmask 1100100111010000
          537 486 rmoveto
          21 25 202 17 35 vhcurveto
          1 -6 -9 1 -10 hhcurveto
          hintmask 1101001010110000
          -52 -94 -98 callgsubr
          hintmask 1100010011010000
          23 -28 13 -60 -60 vvcurveto
          -78 -20 -78 -42 -11 vhcurveto
          89 -29 157 -27 117 -71 75 63 49 27 63 15 -8 17 -4 101 -7 113 rrcurveto
          31 39 62 7 21 vhcurveto
          hintmask 1010010011010000
          -14 -25 -39 -6 -45 hhcurveto
          -44 -50 6 10 -50 hvcurveto
          -6 -21 -22 -46 -11 -20 rrcurveto
          -5 84 3 -14 34 hhcurveto
          2 -35 1 -30 -52 vvcurveto
          hintmask 1100100111010000
          -46 -1 -40 -2 -10 vhcurveto
          -101 6 -7 7 -80 19 rrcurveto
          93 -3 128 111 vvcurveto
          102 3 89 12 33 vhcurveto
          19 24 2 35 hhcurveto
          43 46 -3 -14 19 hvcurveto
          12 -64 15 -40 54 -37 rrcurveto
          -71 414 -79 callgsubr
        </CharString>
        <CharString name="Gcircumflex">
          -77 callsubr
          -42 342 -94 callsubr
        </CharString>
        <CharString name="Gcommaaccent">
          198 -26 callgsubr
          337 -74 callgsubr
          -288 -642 -88 callgsubr
        </CharString>
        <CharString name="Gdotaccent">
          -77 callsubr
          -294 368 -69 callsubr
          endchar
        </CharString>
        <CharString name="H">
          299 -47 -21 357 120 331 -92 callsubr
          endchar
        </CharString>
        <CharString name="Hbar">
          305 -47 -21 357 116 108 73 -73 210 17 -20 hstemhm
          23 232 -126 126 243 145 -145 224 hintmask 1101010100000000
          308 739 rmoveto
          -7 -48 -42 -9 -51 hhcurveto
          hintmask 1110110100000000
          -43 -47 5 12 -56 -5 callgsubr
          6 -3 6 -2 7 -2 rrcurveto
          1 -10 1 -8 -9 vvcurveto
          -36 -39 1 17 -33 hvcurveto
          -67 callsubr
          31 11 38 5 38 1 -5 -46 -13 -45 -29 -53 rrcurveto
          hintmask 1110101100000000
          34 -43 16 -70 -67 vvcurveto
          -24 -2 -20 -6 -18 vhcurveto
          -20 -55 -25 -50 -45 -27 rrcurveto
          6 44 42 5 58 hhcurveto
          36 47 -3 -9 60 hvcurveto
          -52 73 -11 76 85 vvcurveto
          53 vlineto
          5 41 48 3 58 hhcurveto
          32 26 -2 -4 38 hvcurveto
          -42 vlineto
          -87 0 -88 -35 -37 vhcurveto
          55 -18 54 -44 12 -35 22 35 26 39 63 23 rrcurveto
          -46 29 -6 66 69 vvcurveto
          65 24 68 23 43 vhcurveto
          -38 27 -10 60 -1 56 30 -2 29 -5 26 -9 rrcurveto
          hintmask 1110110010000000
          -20 callsubr
          hintmask 1110110100000000
          -26 -13 -29 -4 -28 -1 rrcurveto
          8 2 7 1 6 vhcurveto
          8 45 17 60 45 27 rrcurveto
          hintmask 1101010100000000
          -8 -61 -60 -8 -56 hhcurveto
          -26 -25 2 4 -24 hvcurveto
          hintmask 1110110100000000
          22 -53 9 -41 2 -49 rrcurveto
          -242 hlineto
          6 60 15 65 32 28 rrcurveto
          88 -334 rmoveto
          -50 -49 0 5 -44 hvcurveto
          103 245 -104 vlineto
          -3 -38 -28 -1 -36 hhcurveto
          endchar
        </CharString>
        <CharString name="Hcircumflex">
          299 -47 -21 357 120 536 -92 callsubr
          240 89 -94 callsubr
        </CharString>
        <CharString name="Hdotbelow">
          299 -252 -21 562 120 331 -92 callsubr
          -20 -936 rmoveto
          -74 callsubr
        </CharString>
        <CharString name="I">
          -57 15 -21 746 -20 hstem
          8 callgsubr
          vstem
          -56 callgsubr
          -34 -38 5 12 -44 hvcurveto
          5 -54 14 -52 52 -21 rrcurveto
          2 -21 1 -20 -19 vvcurveto
          -61 -9 -54 -62 callgsubr
          -41 -85 -57 -34 vhcurveto
          6 44 42 5 58 hhcurveto
          44 52 -3 -9 72 hvcurveto
          -68 73 -15 76 85 vvcurveto
          51 6 54 21 36 vhcurveto
          -22 48 -7 70 50 vvcurveto
          -34 callgsubr
          endchar
        </CharString>
        <CharString name="IJ">
          299 -235 -21 932 63 1 -20 hstemhm
          8 callgsubr
          234 143 hintmask 11011000
          -56 callgsubr
          hintmask 10111000
          -34 -38 5 12 -44 hvcurveto
          5 -54 14 -52 52 -21 rrcurveto
          2 -21 1 -20 -19 vvcurveto
          -61 -9 -54 -62 callgsubr
          -41 -85 -57 -34 vhcurveto
          6 44 42 5 58 hhcurveto
          44 52 -3 -9 72 hvcurveto
          -68 73 -15 76 85 vvcurveto
          51 6 54 21 36 vhcurveto
          -22 48 -7 70 50 vvcurveto
          hintmask 11011000
          -34 callgsubr
          19 -995 rmoveto
          78 65 166 111 67 37 -64 callgsubr
          -29 callgsubr
          -65 callgsubr
          -43 -76 -97 -92 -50 -20 rrcurveto
          endchar
        </CharString>
        <CharString name="Iacute">
          -57 15 -21 949 -20 hstem
          8 callgsubr
          vstem
          -56 callgsubr
          -34 -38 5 12 -44 hvcurveto
          5 -54 14 -52 52 -21 rrcurveto
          2 -21 1 -20 -19 vvcurveto
          -61 -9 -54 -62 callgsubr
          -41 -85 -57 -34 vhcurveto
          6 44 42 5 58 hhcurveto
          44 52 -3 -9 72 hvcurveto
          -68 73 -15 76 85 vvcurveto
          51 6 54 21 36 vhcurveto
          -22 48 -7 70 50 vvcurveto
          -34 callgsubr
          -212 108 -93 callsubr
        </CharString>
        <CharString name="Ibreve">
          -57 15 -21 808 65 66 -20 hstem
          8 callgsubr
          vstem
          -56 callgsubr
          -34 -38 5 12 -44 hvcurveto
          5 -54 14 -52 52 -21 rrcurveto
          2 -21 1 -20 -19 vvcurveto
          -61 -9 -54 -62 callgsubr
          -41 -85 -57 -34 vhcurveto
          6 44 42 5 58 hhcurveto
          44 52 -3 -9 72 hvcurveto
          -68 73 -15 76 85 vvcurveto
          51 6 54 21 36 vhcurveto
          -22 48 -7 70 50 vvcurveto
          -34 callgsubr
          -1 161 -79 callgsubr
        </CharString>
        <CharString name="Icircumflex">
          -57 15 -21 951 -20 hstem
          8 callgsubr
          vstem
          -56 callgsubr
          -34 -38 5 12 -44 hvcurveto
          5 -54 14 -52 52 -21 rrcurveto
          2 -21 1 -20 -19 vvcurveto
          -61 -9 -54 -62 callgsubr
          -41 -85 -57 -34 vhcurveto
          6 44 42 5 58 hhcurveto
          44 52 -3 -9 72 hvcurveto
          -68 73 -15 76 85 vvcurveto
          51 6 54 21 36 vhcurveto
          -22 48 -7 70 50 vvcurveto
          -34 callgsubr
          28 89 -94 callsubr
        </CharString>
        <CharString name="Idieresis">
          -57 15 -21 951 -20 hstem
          8 callgsubr
          vstem
          -56 callgsubr
          -34 -38 5 12 -44 hvcurveto
          5 -54 14 -52 52 -21 rrcurveto
          2 -21 1 -20 -19 vvcurveto
          -61 -9 -54 -62 callgsubr
          -41 -85 -57 -34 vhcurveto
          6 44 42 5 58 hhcurveto
          44 52 -3 -9 72 hvcurveto
          -68 73 -15 76 85 vvcurveto
          51 6 54 21 36 vhcurveto
          -22 48 -7 70 50 vvcurveto
          -34 callgsubr
          -331 115 -87 callgsubr
        </CharString>
        <CharString name="Idotaccent">
          -57 15 -21 951 -20 hstem
          8 callgsubr
          vstem
          -56 callgsubr
          -34 -38 5 12 -44 hvcurveto
          5 -54 14 -52 52 -21 rrcurveto
          2 -21 1 -20 -19 vvcurveto
          -61 -9 -54 -62 callgsubr
          -41 -85 -57 -34 vhcurveto
          6 44 42 5 58 hhcurveto
          44 52 -3 -9 72 hvcurveto
          -68 73 -15 76 85 vvcurveto
          51 6 54 21 36 vhcurveto
          -22 48 -7 70 50 vvcurveto
          -34 callgsubr
          -224 115 -69 callsubr
          endchar
        </CharString>
        <CharString name="Idotbelow">
          -57 -252 -21 1013 -20 hstem
          8 callgsubr
          vstem
          -56 callgsubr
          -34 -38 5 12 -44 hvcurveto
          5 -54 14 -52 52 -21 rrcurveto
          2 -21 1 -20 -19 vvcurveto
          -61 -9 -54 -62 callgsubr
          -41 -85 -57 -34 vhcurveto
          6 44 42 5 58 hhcurveto
          44 52 -3 -9 72 hvcurveto
          -68 73 -15 76 85 vvcurveto
          51 6 54 21 36 vhcurveto
          -22 48 -7 70 50 vvcurveto
          -34 callgsubr
          -231 -936 rmoveto
          -74 callsubr
        </CharString>
        <CharString name="Igrave">
          -57 15 -21 949 -20 hstem
          8 callgsubr
          vstem
          -56 callgsubr
          -34 -38 5 12 -44 hvcurveto
          5 -54 14 -52 52 -21 rrcurveto
          2 -21 1 -20 -19 vvcurveto
          -61 -9 -54 -62 callgsubr
          -41 -85 -57 -34 vhcurveto
          6 44 42 5 58 hhcurveto
          44 52 -3 -9 72 hvcurveto
          -68 73 -15 76 85 vvcurveto
          51 6 54 21 36 vhcurveto
          -22 48 -7 70 50 vvcurveto
          -34 callgsubr
          -83 108 -73 callsubr
        </CharString>
        <CharString name="Imacron">
          -57 15 -21 836 73 18 -20 hstemhm
          8 callgsubr
          hintmask 10110000
          -56 callgsubr
          -34 -38 5 12 -44 hvcurveto
          5 -54 14 -52 52 -21 rrcurveto
          2 -21 1 -20 -19 vvcurveto
          -61 -9 -54 -62 callgsubr
          -41 -85 -57 -34 vhcurveto
          6 44 42 5 58 hhcurveto
          44 52 -3 -9 72 hvcurveto
          -68 73 -15 76 85 vvcurveto
          51 6 54 21 36 vhcurveto
          -22 48 -7 70 50 vvcurveto
          -34 callgsubr
          -305 182 rmoveto
          -67 callsubr
          hintmask 11010000
          -68 callgsubr
          hintmask 10110000
          -42 callsubr
          hintmask 11010000
          -46 callgsubr
          hintmask 10110000
          -61 callgsubr
        </CharString>
        <CharString name="Iogonek">
          -57 -212 -21 973 -20 hstem
          8 callgsubr
          vstem
          -56 callgsubr
          -34 -38 5 12 -44 hvcurveto
          5 -54 14 -52 52 -21 rrcurveto
          2 -21 1 -20 -19 vvcurveto
          -61 -9 -54 -62 callgsubr
          -41 -85 -57 -34 vhcurveto
          34 5 33 4 40 1 -76 -65 rcurveline
          35 -138 -87 callsubr
          75 79 35 -1 41 -4 50 -6 rlinecurve
          -68 73 -15 76 85 vvcurveto
          51 6 54 21 36 vhcurveto
          -22 48 -7 70 50 vvcurveto
          -34 callgsubr
          endchar
        </CharString>
        <CharString name="Itilde">
          -57 15 -21 833 71 45 -20 hstem
          8 callgsubr
          vstem
          -56 callgsubr
          -34 -38 5 12 -44 hvcurveto
          5 -54 14 -52 52 -21 rrcurveto
          2 -21 1 -20 -19 vvcurveto
          -61 -9 -54 -62 callgsubr
          -41 -85 -57 -34 vhcurveto
          6 44 42 5 58 hhcurveto
          44 52 -3 -9 72 hvcurveto
          -68 73 -15 76 85 vvcurveto
          51 6 54 21 36 vhcurveto
          -22 48 -7 70 50 vvcurveto
          -34 callgsubr
          -310 160 -80 callsubr
        </CharString>
        <CharString name="J">
          -71 -235 -21 932 55 8 -20 hstemhm
          134 143 hintmask 11010000
          -8 -256 rmoveto
          78 65 166 111 67 37 -64 callgsubr
          hhcurveto
          hintmask 10110000
          -29 callgsubr
          hintmask 11010000
          -65 callgsubr
          -43 -76 -97 -92 -50 -20 rrcurveto
          endchar
        </CharString>
        <CharString name="Jcircumflex">
          -71 -235 -21 932 55 8 -20 226 -20 hstemhm
          134 143 hintmask 11011000
          -8 -256 rmoveto
          78 65 166 111 67 37 -64 callgsubr
          hhcurveto
          hintmask 10111000
          -29 callgsubr
          hintmask 11011000
          -65 callgsubr
          -43 -76 -97 -92 -50 -20 rrcurveto
          435 1032 -94 callsubr
        </CharString>
        <CharString name="K">
          241 -67 -21 103 -75 callsubr
          endchar
        </CharString>
        <CharString name="Kcommaaccent">
          241 -26 callgsubr
          298 -75 callsubr
          -362 -195 -88 callgsubr
        </CharString>
        <CharString name="L">
          82 -231 66 907 -20 hstem
          122 142 vstem
          -95 callsubr
          endchar
        </CharString>
        <CharString name="Lacute">
          82 -231 66 907 -20 221 -20 hstem
          122 142 vstem
          -95 callsubr
          -684 1020 -93 callsubr
        </CharString>
        <CharString name="Lcaron">
          82 -231 66 907 -20 223 -20 hstem
          122 142 vstem
          -95 callsubr
          -444 1076 -90 callgsubr
        </CharString>
        <CharString name="Lcommaaccent">
          82 -26 callgsubr
          52 66 -66 144 829 -20 hstemhm
          122 142 hintmask 11011000
          -95 callsubr
          -742 17 rmoveto
          16 -15 9 -22 -23 vvcurveto
          -24 -10 -26 -15 -17 vhcurveto
          64 8 46 38 41 76 rrcurveto
          hintmask 10111000
          -70 callsubr
        </CharString>
        <CharString name="Ldot">
          82 -231 66 907 -20 hstem
          122 142 vstem
          -95 callsubr
          -467 432 rmoveto
          -74 callsubr
        </CharString>
        <CharString name="Lslash">
          104 -231 66 907 -20 hstem
          144 142 vstem
          817 -160 rmoveto
          -12 callgsubr
          -89 -77 25 75 -124 hvcurveto
          11 -22 18 -35 17 -22 -79 23 -158 119 -18 53 16 30 35 14 23 9 rrcurveto
          -19 19 -14 74 87 vvcurveto
          81 vlineto
          44 37 60 50 109 76 17 1 rlinecurve
          -54 80 -9 -21 -31 -27 -43 -36 rlinecurve
          -93 -77 rlineto
          89 vlineto
          -28 callsubr
          2 callgsubr
          -76 -69 -26 -108 hhcurveto
          -22 -24 1 3 -25 hvcurveto
          71 -48 28 7 -126 -35 callgsubr
          15 -14 11 -16 8 -17 rrcurveto
          -42 -59 -67 -39 -12 hhcurveto
          66 -80 11 22 30 26 44 37 rlinecurve
          4 3 rlineto
          1 -14 1 -15 -14 -43 callgsubr
          139 66 -192 219 -28 callgsubr
          endchar
        </CharString>
        <CharString name="M">
          457 -84 -21 852 -20 24 -20 hstemhm
          132 108 400 144 hintmask 10111000
          446 59 rmoveto
          194 371 rlineto
          -189 vlineto
          -86 -3 -89 -44 -37 vhcurveto
          56 -22 61 -59 12 -41 20 41 57 52 57 29 rrcurveto
          -46 29 -26 66 69 vvcurveto
          65 24 68 23 43 vhcurveto
          -33 63 -18 55 50 vvcurveto
          84 13 73 80 57 vhcurveto
          -14 -77 -102 -16 -88 hhcurveto
          -14 -15 0 2 -14 hvcurveto
          33 -28 19 -30 16 -46 -166 -337 rcurveline
          -199 343 rlineto
          33 21 44 22 18 vhcurveto
          -1 -13 -13 0 -13 hhcurveto
          hintmask 11011000
          -112 -74 28 -54 hhcurveto
          -8 -8 -1 -2 -7 hvcurveto
          80 -57 45 -66 -84 vvcurveto
          -50 -16 -55 -33 -63 vhcurveto
          32 -48 13 -53 -55 vvcurveto
          -118 -63 -123 -81 -77 vhcurveto
          104 33 48 47 37 63 59 -48 23 -12 59 -16 rrcurveto
          -54 63 -20 53 163 vvcurveto
          153 vlineto
          189 -332 rlineto
          endchar
        </CharString>
        <CharString name="N">
          -3 callsubr
          hstem
          -32 callgsubr
          vstem
          -104 callsubr
          endchar
        </CharString>
        <CharString name="NULL">
          -453 endchar
        </CharString>
        <CharString name="Nacute">
          -3 callsubr
          216 -20 hstem
          -32 callgsubr
          vstem
          -104 callsubr
          -200 717 -93 callsubr
        </CharString>
        <CharString name="Ncaron">
          -3 callsubr
          218 -20 hstem
          -32 callgsubr
          vstem
          -104 callsubr
          40 773 -90 callgsubr
        </CharString>
        <CharString name="Ncommaaccent">
          315 -26 callgsubr
          74 57 -57 122 834 -20 hstemhm
          -32 callgsubr
          hintmask 11011100
          -104 callsubr
          -237 -286 rmoveto
          16 -15 9 -22 -23 vvcurveto
          -24 -10 -26 -15 -17 vhcurveto
          64 8 46 38 41 76 rrcurveto
          hintmask 10111100
          -70 callsubr
        </CharString>
        <CharString name="Ndotaccent">
          -3 callsubr
          218 -20 hstem
          -32 callgsubr
          vstem
          -104 callsubr
          -212 724 -69 callsubr
          endchar
        </CharString>
        <CharString name="Ntilde">
          -3 callsubr
          100 71 45 -20 hstem
          -32 callgsubr
          vstem
          -104 callsubr
          -298 769 -80 callsubr
        </CharString>
        <CharString name="O">
          -24 -21 810 -50 callgsubr
          -106 callsubr
          endchar
        </CharString>
        <CharString name="OE">
          476 -10 -21 378 90 172 101 52 -20 hstem
          125 124 189 135 vstem
          872 733 rmoveto
          -8 -34 -31 -4 -32 hhcurveto
          -49 -24 12 29 -60 hvcurveto
          -40 -84 -114 -12 -108 hhcurveto
          -137 -145 20 10 -40 -5 callgsubr
          10 -4 9 -3 10 -2 rrcurveto
          1 -10 1 -16 -20 vvcurveto
          -54 -8 -81 -37 -48 vhcurveto
          -3 -4 -3 -4 -7 -7 rrcurveto
          21 -15 32 -84 -90 vvcurveto
          -73 -21 -85 -66 -48 vhcurveto
          -1 15 15 0 15 hhcurveto
          116 132 20 17 112 hvcurveto
          77 -16 90 -10 84 -13 116 52 3 7 75 36 rrcurveto
          -7 13 -5 32 36 vvcurveto
          44 7 49 15 27 vhcurveto
          -63 -26 -45 -29 -57 -52 6 -12 4 -30 3 -23 rrcurveto
          -1 -50 -17 -6 -5 hvcurveto
          -55 22 -34 7 -25 17 rrcurveto
          -5 34 -3 49 30 vvcurveto
          27 3 56 5 28 vhcurveto
          5 18 16 2 14 hhcurveto
          31 24 -20 -14 16 hvcurveto
          29 23 36 34 36 17 -43 21 -34 36 -25 22 rrcurveto
          -17 -24 -19 -12 -31 hhcurveto
          -13 -16 2 3 -18 hvcurveto
          147 0 9 4 24 vhcurveto
          13 49 17 14 16 hvcurveto
          -18 17 41 -26 38 hhcurveto
          51 69 33 91 1 hvcurveto
          -623 -678 rmoveto
          2 115 1 88 88 vvcurveto
          114 3 108 14 39 vhcurveto
          4 90 1 1 65 hvcurveto
          7 -35 3 -37 -33 vvcurveto
          -56 -8 -53 -26 -26 vhcurveto
          23 -28 13 -60 -60 vvcurveto
          -41 -9 -46 -14 -38 vhcurveto
          -38 -12 -111 -22 -19 -7 rrcurveto
          endchar
        </CharString>
        <CharString name="Oacute">
          -24 -21 988 -50 callgsubr
          -106 callsubr
          237 485 -93 callsubr
        </CharString>
        <CharString name="Obreve">
          -24 -21 847 65 66 -50 callgsubr
          -106 callsubr
          448 538 -79 callgsubr
        </CharString>
        <CharString name="Ocircumflex">
          -24 -21 990 -50 callgsubr
          -106 callsubr
          477 466 -94 callsubr
        </CharString>
        <CharString name="Odieresis">
          -24 -21 990 -50 callgsubr
          -106 callsubr
          118 492 -87 callgsubr
        </CharString>
        <CharString name="Odotbelow">
          -252 -21 1038 -50 callgsubr
          -106 callsubr
          215 -559 rmoveto
          -74 callsubr
        </CharString>
        <CharString name="Ograve">
          -24 -21 988 -50 callgsubr
          -106 callsubr
          366 485 -73 callsubr
        </CharString>
        <CharString name="Ohungarumlaut">
          -24 -21 988 -50 callgsubr
          -106 callsubr
          151 471 rmoveto
          -60 callsubr
          218 hmoveto
          -60 callsubr
          endchar
        </CharString>
        <CharString name="Omacron">
          -24 -21 875 73 18 -20 hstemhm
          97 124 244 125 hintmask 10111000
          -106 callsubr
          144 559 rmoveto
          -67 callsubr
          hintmask 11011000
          -68 callgsubr
          hintmask 10111000
          -42 callsubr
          hintmask 11011000
          -46 callgsubr
          hintmask 10111000
          -61 callgsubr
        </CharString>
        <CharString name="Oogonek">
          -212 -21 998 -50 callgsubr
          42 362 rmoveto
          29 -9 26 -120 -95 vvcurveto
          -50 -7 -43 -18 -17 vhcurveto
          28 -3 83 -25 78 -20 -46 -40 rcurveline
          35 -138 -87 callsubr
          35 37 44 -8 -42 callgsubr
          rlinecurve
          -43 27 -17 58 61 vvcurveto
          74 24 80 33 41 vhcurveto
          -35 46 -19 82 74 vvcurveto
          49 8 50 18 30 vhcurveto
          -21 callgsubr
          53 -1 78 58 vvcurveto
          115 1 130 3 66 vhcurveto
          10 6 35 8 56 28 62 -11 27 -15 48 -27 rrcurveto
          2 -51 0 -60 -50 vvcurveto
          -110 -3 -126 -2 -106 vhcurveto
          -10 -6 -34 -5 -56 -28 -62 11 -28 15 -48 27 rrcurveto
          endchar
        </CharString>
        <CharString name="Oslash">
          565 -24 -21 66 -21 734 -20 51 -20 hstem
          274 120 244 125 vstem
          215 -75 callgsubr
          endchar
        </CharString>
        <CharString name="Oslashacute">
          563 -24 -21 66 -21 734 -20 230 -20 hstem
          273 120 244 125 vstem
          214 -75 callgsubr
          13 235 -93 callsubr
        </CharString>
        <CharString name="Otilde">
          -24 -21 872 71 45 -50 callgsubr
          -106 callsubr
          139 537 -80 callsubr
        </CharString>
        <CharString name="P">
          239 -87 -21 342 118 417 -20 hstem
          124 139 213 -31 callgsubr
          475 212 rmoveto
          41 54 36 32 86 23 rrcurveto
          -24 49 -8 33 56 vvcurveto
          39 4 41 6 43 vhcurveto
          44 26 29 55 13 28 rrcurveto
          -3 -19 -17 -1 -18 hhcurveto
          -117 -160 57 25 -29 hvcurveto
          -45 -77 -54 -15 -63 hhcurveto
          -34 -37 4 7 -45 hvcurveto
          6 -67 38 -37 46 -14 rrcurveto
          1 -18 1 -19 -19 vvcurveto
          -69 -10 -74 -38 -54 vhcurveto
          28 -29 16 -65 -67 vvcurveto
          -59 -13 -61 -27 -39 vhcurveto
          60 -30 58 -53 23 -54 30 56 27 42 57 39 rrcurveto
          -46 29 -26 66 69 vvcurveto
          41 vlineto
          83 -1 74 -1 55 -20 rrcurveto
          7 154 rmoveto
          -10 -6 -14 -14 -7 -15 rrcurveto
          14 -21 -68 7 -54 hhcurveto
          -17 -16 -1 -1 -13 hvcurveto
          -1 50 0 51 54 vvcurveto
          41 0 43 1 44 vhcurveto
          69 -18 59 -24 86 -15 2 -62 2 -111 2 -37 rrcurveto
          endchar
        </CharString>
        <CharString name="Q">
          -225 -21 1011 -50 callgsubr
          42 362 rmoveto
          29 -9 26 -120 -95 vvcurveto
          -50 -7 -43 -18 -17 vhcurveto
          29 -3 86 -26 80 -21 54 -76 96 -93 186 -55 -59 48 -23 58 -17 65 -13 -14 -12 -12 -14 -9 -22 21 -17 31 -13 29 71 24 97 20 69 5 10 callsubr
          -35 46 -19 82 74 vvcurveto
          49 8 50 18 30 vhcurveto
          -21 callgsubr
          53 -1 78 58 vvcurveto
          115 1 130 3 66 vhcurveto
          10 6 35 8 56 28 62 -11 27 -15 48 -27 rrcurveto
          2 -51 0 -60 -50 vvcurveto
          -110 -3 -126 -2 -106 vhcurveto
          -10 -6 -34 -5 -56 -28 -62 11 -28 15 -48 27 rrcurveto
          endchar
        </CharString>
        <CharString name="R">
          251 -97 -21 133 -21 782 -20 hstemhm
          45 -41 callsubr
          653 -102 callgsubr
          endchar
        </CharString>
        <CharString name="Racute">
          244 -97 -21 133 -21 949 -20 hstemhm
          38 -41 callsubr
          646 -102 callgsubr
          -154 228 -93 callsubr
        </CharString>
        <CharString name="Rcaron">
          244 -97 -21 133 -21 951 -20 hstemhm
          38 -41 callsubr
          646 -102 callgsubr
          86 284 -90 callgsubr
        </CharString>
        <CharString name="Rcommaaccent">
          251 -26 callgsubr
          298 -21 782 -20 hstemhm
          45 -41 callsubr
          653 -102 callgsubr
          -156 -775 -88 callgsubr
        </CharString>
        <CharString name="Rdotbelow">
          251 -252 -21 288 -21 782 -20 hstemhm
          45 -41 callsubr
          653 -102 callgsubr
          -172 -816 rmoveto
          -74 callsubr
        </CharString>
        <CharString name="S">
          -6 callgsubr
          61 -102 callsubr
          endchar
        </CharString>
        <CharString name="Sacute">
          -6 callgsubr
          224 -102 callsubr
          -59 186 -93 callsubr
        </CharString>
        <CharString name="Scaron">
          -6 callgsubr
          226 -102 callsubr
          251 242 -90 callgsubr
        </CharString>
        <CharString name="Schwa">
          136 -9 -21 352 64 351 -20 hstem
          361 152 vstem
          258 737 rmoveto
          -57 -38 -84 -83 -65 -26 rrcurveto
          -32 25 35 -12 36 hhcurveto
          65 67 40 40 14 hvcurveto
          24 -12 13 -6 39 -8 -3 -28 -5 -149 -1 -39 rrcurveto
          1 -36 -77 1 -40 hhcurveto
          -44 -67 -1 -3 -43 hvcurveto
          15 -52 12 -65 -72 vvcurveto
          -60 -8 -66 -21 -67 vhcurveto
          77 -2 128 -17 54 -11 47 46 111 30 57 11 rrcurveto
          -5 17 -8 73 72 vvcurveto
          52 4 51 12 30 vhcurveto
          -12 20 -5 54 57 vvcurveto
          79 9 87 13 20 vhcurveto
          -47 1 -179 29 -50 38 rrcurveto
          113 -628 rmoveto
          -21 -3 -97 -27 -37 -22 rrcurveto
          31 -4 207 -7 27 vhcurveto
          155 hlineto
          -37 4 -121 7 -55 vhcurveto
          endchar
        </CharString>
        <CharString name="Scircumflex">
          -6 callgsubr
          226 -102 callsubr
          221 167 -94 callsubr
        </CharString>
        <CharString name="Sdotbelow">
          137 -252 -21 622 93 164 113 61 -102 callsubr
          -23 -858 rmoveto
          -74 callsubr
        </CharString>
        <CharString name="T">
          210 -46 -21 692 104 57 -89 callgsubr
          endchar
        </CharString>
        <CharString name="Tbar">
          218 -46 -21 494 73 125 104 57 -20 hstem
          261 140 vstem
          683 733 rmoveto
          -2 -18 -18 -2 -21 hhcurveto
          -75 -60 1 56 -87 hvcurveto
          1 -20 5 -17 13 -22 rrcurveto
          -104 -46 5 41 -138 hvcurveto
          -47 -43 -38 -29 -73 -22 1 -3 rcurveline
          2 15 16 3 16 hhcurveto
          65 81 -21 -16 88 hvcurveto
          2 -17 0 -16 -17 vvcurveto
          -94 -52 vlineto
          -61 callsubr
          -67 callsubr
          -60 callgsubr
          52 hlineto
          -1 -66 1 -55 -2 -100 -1 -59 -12 -68 -27 -39 60 -23 51 -30 23 -54 30 56 34 25 57 26 rrcurveto
          -46 29 -26 73 69 vvcurveto
          77 -1 70 -1 69 vhcurveto
          52 hlineto
          40 39 -5 -12 33 hvcurveto
          -20 callsubr
          -62 callsubr
          -51 65 hlineto
          21 1 20 2 20 vhcurveto
          -1 13 14 0 14 hhcurveto
          88 89 48 56 65 hvcurveto
          endchar
        </CharString>
        <CharString name="Tcaron">
          210 -46 -21 692 104 216 -89 callgsubr
          -185 174 -90 callgsubr
        </CharString>
        <CharString name="Tdotbelow">
          210 -252 -21 898 104 57 -89 callgsubr
          -439 -926 rmoveto
          -74 callsubr
        </CharString>
        <CharString name="Thorn">
          221 -47 -21 181 119 558 -20 hstem
          95 147 206 -31 callgsubr
          447 92 rmoveto
          41 54 36 32 86 23 rrcurveto
          -24 49 -8 33 56 vvcurveto
          39 4 41 6 43 vhcurveto
          44 26 29 55 13 28 rrcurveto
          -3 -19 -17 -1 -18 hhcurveto
          -108 -186 48 27 -52 hvcurveto
          11 25 14 23 18 23 -58 28 -28 16 -35 33 -57 -44 -24 -11 -60 -22 rrcurveto
          27 -39 13 -103 -59 vvcurveto
          -62 -13 -55 -31 -46 vhcurveto
          21 -22 20 -61 -57 vvcurveto
          -59 -13 -102 -27 -39 vhcurveto
          19 -6 78 -18 44 -53 38 50 63 19 20 8 -25 15 -18 43 -13 46 76 -1 61 -2 52 -18 rrcurveto
          -205 354 rmoveto
          1 21 0 22 2 23 67 -18 52 -24 84 -14 2 -62 2 -111 2 -37 -10 -6 -14 -14 -7 -15 rrcurveto
          14 -21 -61 7 -54 hhcurveto
          -17 -15 -1 -1 -13 hvcurveto
          endchar
        </CharString>
        <CharString name="U">
          -23 callsubr
          626 -105 callsubr
          endchar
        </CharString>
        <CharString name="Uacute">
          -23 callsubr
          840 -105 callsubr
          -306 312 -93 callsubr
        </CharString>
        <CharString name="Ubreve">
          -23 callsubr
          699 65 66 -20 hstemhm
          89 135 -117 137 201 130 hintmask 11111010
          582 535 rmoveto
          32 1 16 1 10 vhcurveto
          44 10 46 36 8 83 rrcurveto
          -13 -49 -37 -6 -35 hhcurveto
          -39 -36 6 13 -41 hvcurveto
          4 -56 3 -52 2 -47 rrcurveto
          -1 -75 0 -65 -63 vvcurveto
          -114 -3 -108 -14 -39 vhcurveto
          -57 -2 -47 -17 -32 -20 -76 93 rcurveline
          hintmask 11110110
          5 141 15 131 145 vvcurveto
          -26 137 -45 7 -121 11 rrcurveto
          40 -57 15 -63 -69 vvcurveto
          -76 -15 -69 -36 -46 vhcurveto
          hintmask 11111010
          -72 callsubr
          -95 365 -79 callgsubr
        </CharString>
        <CharString name="Ucircumflex">
          -23 callsubr
          842 -105 callsubr
          -66 293 -94 callsubr
        </CharString>
        <CharString name="Udieresis">
          -23 callsubr
          842 -105 callsubr
          -415 319 -87 callgsubr
        </CharString>
        <CharString name="Udotbelow">
          256 -252 -21 275 101 626 -105 callsubr
          -309 -732 rmoveto
          -74 callsubr
        </CharString>
        <CharString name="Ugrave">
          -23 callsubr
          840 -105 callsubr
          -177 312 -73 callsubr
        </CharString>
        <CharString name="Uhungarumlaut">
          -23 callsubr
          840 -105 callsubr
          -392 298 rmoveto
          -60 callsubr
          218 hmoveto
          -60 callsubr
          endchar
        </CharString>
        <CharString name="Umacron">
          -23 callsubr
          727 73 18 -20 hstemhm
          89 135 -117 137 201 130 hintmask 11101010
          582 535 rmoveto
          32 1 16 1 10 vhcurveto
          44 10 46 36 8 83 rrcurveto
          -13 -49 -37 -6 -35 hhcurveto
          -39 -36 6 13 -41 hvcurveto
          4 -56 3 -52 2 -47 rrcurveto
          -1 -75 0 -65 -63 vvcurveto
          -114 -3 -108 -14 -39 vhcurveto
          -57 -2 -47 -17 -32 -20 -76 93 rcurveline
          hintmask 11100110
          5 141 15 131 145 vvcurveto
          -26 137 -45 7 -121 11 rrcurveto
          40 -57 15 -63 -69 vvcurveto
          -76 -15 -69 -36 -46 vhcurveto
          hintmask 11011010
          -72 callsubr
          -399 386 rmoveto
          -67 callsubr
          hintmask 11101010
          -68 callgsubr
          hintmask 11011010
          -42 callsubr
          hintmask 11101010
          -46 callgsubr
          hintmask 11011010
          -61 callgsubr
        </CharString>
        <CharString name="Uogonek">
          257 -212 -21 235 101 626 -20 hstemhm
          89 135 -117 137 201 130 hintmask 11110100
          582 535 rmoveto
          32 1 16 1 10 vhcurveto
          44 10 46 36 8 83 rrcurveto
          -13 -49 -37 -6 -35 hhcurveto
          -39 -36 6 13 -41 hvcurveto
          4 -56 3 -52 2 -47 rrcurveto
          -1 -75 0 -65 -63 vvcurveto
          -114 -3 -108 -14 -39 vhcurveto
          -57 -2 -47 -17 -32 -20 -76 93 rcurveline
          hintmask 11101100
          5 141 15 131 145 vvcurveto
          -26 137 -45 7 -121 11 rrcurveto
          40 -57 15 -63 -69 vvcurveto
          -76 -15 -69 -36 -46 vhcurveto
          hintmask 11110100
          21 -15 12 -84 -90 vvcurveto
          -18 -1 -31 -3 -18 vhcurveto
          64 -53 57 -48 19 -40 9 6 15 7 20 6 -36 -31 rcurveline
          35 -138 -87 callsubr
          66 69 rlineto
          4 32 36 3 40 -92 callgsubr
          endchar
        </CharString>
        <CharString name="Uring">
          -23 callsubr
          683 59 -59 159 hstemhm
          89 135 -117 137 18 166 17 130 hintmask 11101011
          582 535 rmoveto
          32 1 16 1 10 vhcurveto
          44 10 46 36 8 83 rrcurveto
          -13 -49 -37 -6 -35 hhcurveto
          -39 -36 6 13 -41 hvcurveto
          4 -56 3 -52 2 -47 rrcurveto
          -1 -75 0 -65 -63 vvcurveto
          -114 -3 -108 -14 -39 vhcurveto
          -57 -2 -47 -17 -32 -20 -76 93 rcurveline
          hintmask 11100111
          5 141 15 131 145 vvcurveto
          -26 137 -45 7 -121 11 rrcurveto
          40 -57 15 -63 -69 vvcurveto
          -76 -15 -69 -36 -46 vhcurveto
          hintmask 11011011
          -72 callsubr
          -237 410 -36 callsubr
          hintmask 11101011
          -25 callsubr
          endchar
        </CharString>
        <CharString name="Utilde">
          -23 callsubr
          724 71 45 -20 hstemhm
          89 135 -117 137 201 130 hintmask 11111010
          582 535 rmoveto
          32 1 16 1 10 vhcurveto
          44 10 46 36 8 83 rrcurveto
          -13 -49 -37 -6 -35 hhcurveto
          -39 -36 6 13 -41 hvcurveto
          4 -56 3 -52 2 -47 rrcurveto
          -1 -75 0 -65 -63 vvcurveto
          -114 -3 -108 -14 -39 vhcurveto
          -57 -2 -47 -17 -32 -20 -76 93 rcurveline
          hintmask 11110110
          5 141 15 131 145 vvcurveto
          -26 137 -45 7 -121 11 rrcurveto
          40 -57 15 -63 -69 vvcurveto
          -76 -15 -69 -36 -46 vhcurveto
          hintmask 11111010
          -72 callsubr
          -404 364 -80 callsubr
        </CharString>
        <CharString name="V">
          316 -54 -21 820 -20 hstem
          396 -75 rmoveto
          37 45 60 60 66 41 rrcurveto
          4 -1 5 6 vvcurveto
          59 18 146 58 55 vhcurveto
          -12 40 0 7 22 vvcurveto
          221 159 99 23 10 vhcurveto
          -12 callsubr
          -104 -532 -36 -38 -37 39 -127 531 rlineto
          -1 6 -1 15 callsubr
          12 29 16 22 vhcurveto
          -48 -9 -11 5 -49 -47 rrcurveto
          26 -23 -24 25 -121 hhcurveto
          104 136 -573 -95 -5 0 -4 -1 -2 hvcurveto
          59 -34 59 -41 58 -66 rrcurveto
          endchar
        </CharString>
        <CharString name="W">
          -5 callsubr
          38 -20 hstemhm
          123 134 135 125 142 125 -104 127 hintmask 11011100
          605 -87 rmoveto
          37 45 90 60 66 41 rrcurveto
          -8 42 -6 48 47 vvcurveto
          60 21 59 33 45 vhcurveto
          hintmask 11011010
          -20 36 -11 45 45 vvcurveto
          118 61 123 79 6 vhcurveto
          -74 -38 -15 -62 hhcurveto
          -31 -55 1 14 -45 hvcurveto
          27 -10 11 -32 -32 vvcurveto
          -8 -1 -8 -1 -7 vhcurveto
          -38 -522 -36 -38 -87 137 rlineto
          224 vlineto
          107 17 22 27 28 vhcurveto
          hintmask 10111100
          -57 39 -31 62 -20 56 -13 -54 -31 -64 -60 -39 rrcurveto
          37 -46 6 -14 -134 vvcurveto
          -186 vlineto
          -80 -138 -37 39 -35 521 rlineto
          -1 6 0 6 6 vvcurveto
          hintmask 11011100
          28 11 29 16 22 vhcurveto
          -48 -9 -11 5 -49 -47 rrcurveto
          29 -25 -24 22 -114 hhcurveto
          84 -3 44 -366 -194 vvcurveto
          -49 -8 -51 -3 -16 vhcurveto
          59 -34 84 -41 58 -66 36 45 77 130 26 41 21 -39 74 -111 58 -66 rrcurveto
          endchar
        </CharString>
        <CharString name="Wacute">
          -5 callsubr
          230 -98 callsubr
          -243 934 -93 callsubr
        </CharString>
        <CharString name="Wcircumflex">
          -5 callsubr
          232 -98 callsubr
          20 915 -94 callsubr
        </CharString>
        <CharString name="Wdieresis">
          -5 callsubr
          232 -98 callsubr
          -332 941 -87 callgsubr
        </CharString>
        <CharString name="Wgrave">
          -5 callsubr
          230 -98 callsubr
          -54 934 -73 callsubr
        </CharString>
        <CharString name="X">
          239 15 -21 746 -20 hstem
          436 368 rmoveto
          145 261 52 93 52 9 23 4 rlinecurve
          -4 -75 -39 -5 -39 hhcurveto
          -28 -48 1 7 -36 hvcurveto
          10 -6 14 -12 -16 vvcurveto
          -4 -25 -56 -2 -4 vhcurveto
          -83 -187 -85 183 rlineto
          -7 15 0 14 13 vvcurveto
          24 12 21 16 21 vhcurveto
          -51 -2 -39 -6 -18 -33 -25 28 -67 12 -124 1 45 -13 50 -44 29 -47 171 -273 rcurveline
          -197 -313 -16 -26 -48 -26 -15 -4 rlinecurve
          4 75 51 5 39 hhcurveto
          27 18 -3 -6 36 hvcurveto
          -5 6 -3 8 9 vvcurveto
          1 10 2 10 7 15 107 222 rcurveline
          90 -178 rlineto
          4 -7 1 -8 -7 vvcurveto
          -27 -20 -29 -13 -18 vhcurveto
          51 2 39 6 18 33 25 -28 67 -12 124 -1 -45 13 -49 44 -30 47 rrcurveto
          endchar
        </CharString>
        <CharString name="Y">
          304 -79 -21 840 -96 callgsubr
          endchar
        </CharString>
        <CharString name="Yacute">
          4 callgsubr
          223 -96 callgsubr
          50 820 -93 callsubr
        </CharString>
        <CharString name="Ycircumflex">
          4 callgsubr
          225 -96 callgsubr
          299 801 -94 callsubr
        </CharString>
        <CharString name="Ydieresis">
          4 callgsubr
          225 -96 callgsubr
          -53 827 -87 callgsubr
        </CharString>
        <CharString name="Ygrave">
          4 callgsubr
          223 -96 callgsubr
          188 820 -73 callsubr
        </CharString>
        <CharString name="Ytilde">
          304 -79 -21 815 112 -87 87 0 71 45 -20 hstemhm
          312 140 hintmask 10101100
          259 27 rmoveto
          61 -30 59 -43 13 -54 21 56 36 32 58 39 -30 33 -23 98 -2 79 29 36 25 48 40 25 1 82 127 246 109 66 rrcurveto
          hintmask 11001100
          -76 -26 -25 -56 hhcurveto
          hintmask 10101100
          -32 -56 3 22 -44 hvcurveto
          17 -22 21 -28 -29 vvcurveto
          -6 0 -6 -1 -6 vhcurveto
          -102 -249 -37 -38 -38 39 -106 248 rlineto
          -1 6 -1 15 callsubr
          13 29 16 22 vhcurveto
          -52 -2 -49 -16 -18 -33 -26 28 -19 18 -127 1 rrcurveto
          112 -71 105 -200 -124 vvcurveto
          39 -22 36 -44 37 -39 -2 -67 -15 -88 -36 -54 rrcurveto
          -39 872 2 callsubr
          19 33 24 69 1 93 -44 rcurveline
          25 24 41 17 56 1 rrcurveto
          118 vlineto
          hintmask 10011100
          -37 -20 -40 -22 -46 -3 -91 44 rcurveline
          -30 -18 -52 -23 -41 -2 rrcurveto
          endchar
        </CharString>
        <CharString name="Z">
          -25 callgsubr
          20 -20 hstemhm
          218 223 hintmask 00110100
          36 646 rmoveto
          2 10 11 0 11 -82 callsubr
          hintmask 01010100
          -66 callgsubr
          hintmask 10001100
          -89 callsubr
          endchar
        </CharString>
        <CharString name="Zacute">
          -25 callgsubr
          217 -86 callgsubr
          272 196 -93 callsubr
        </CharString>
        <CharString name="Zcaron">
          -25 callgsubr
          219 -86 callgsubr
          519 252 -90 callgsubr
        </CharString>
        <CharString name="Zdotaccent">
          -25 callgsubr
          219 -86 callgsubr
          278 203 -69 callsubr
          endchar
        </CharString>
        <CharString name="Zdotbelow">
          224 -252 -21 238 93 -93 112 -67 -21 624 113 20 -20 hstemhm
          218 223 hintmask 10011010
          36 646 rmoveto
          2 10 11 0 11 -82 callsubr
          hintmask 10101010
          -66 callgsubr
          hintmask 11000110
          -89 callsubr
          170 -848 rmoveto
          -74 callsubr
        </CharString>
        <CharString name="a">
          -40 callgsubr
          43 -20 hstem
          47 134 103 129 vstem
          -104 callgsubr
          endchar
        </CharString>
        <CharString name="aacute">
          -40 callgsubr
          337 -20 hstem
          47 134 103 129 vstem
          -104 callgsubr
          -251 204 rmoveto
          -37 callgsubr
        </CharString>
        <CharString name="abreve">
          -40 callgsubr
          142 65 86 -20 hstem
          47 124 113 129 vstem
          -104 callgsubr
          -59 288 -73 callgsubr
        </CharString>
        <CharString name="acircumflex">
          -40 callgsubr
          337 -20 hstem
          47 134 103 129 vstem
          -104 callgsubr
          -50 204 -94 callgsubr
        </CharString>
        <CharString name="acute">
          -243 -6 callsubr
          9 617 rmoveto
          -37 callgsubr
        </CharString>
        <CharString name="acute.cap">
          -194 811 -21 154 -20 hstem
          10 848 -93 callsubr
        </CharString>
        <CharString name="adieresis">
          -40 callgsubr
          311 -20 hstem
          47 134 103 129 vstem
          -104 callgsubr
          -399 237 rmoveto
          -107 callsubr
          230 hmoveto
          -74 callsubr
        </CharString>
        <CharString name="ae">
          9 callsubr
          43 -76 callgsubr
          endchar
        </CharString>
        <CharString name="aeacute">
          9 callsubr
          337 -76 callgsubr
          114 523 rmoveto
          -37 callgsubr
        </CharString>
        <CharString name="agrave">
          -40 callgsubr
          337 -20 hstem
          47 134 103 129 vstem
          -104 callgsubr
          -119 204 -70 callgsubr
        </CharString>
        <CharString name="amacron">
          -40 callgsubr
          203 73 18 -20 hstemhm
          47 134 103 129 hintmask 11101110
          -104 callgsubr
          -363 322 rmoveto
          -67 callsubr
          hintmask 11110110
          -68 callgsubr
          hintmask 11101110
          -42 callsubr
          hintmask 11110110
          -46 callgsubr
          hintmask 11101110
          -61 callgsubr
        </CharString>
        <CharString name="ampersand">
          292 -16 -21 809 -20 hstem
          60 128 vstem
          723 57 rmoveto
          -178 135 51 131 rlineto
          44 56 22 28 23 hvcurveto
          -80 17 -86 20 -40 15 -53 -156 rcurveline
          -248 288 -9 69 14 5 27 16 17 18 rlinecurve
          28 -13 29 -9 35 -5 16 -71 11 -72 13 -52 71 148 16 65 37 64 -24 2 -51 12 -27 17 -2 -4 -12 -18 -5 -4 -15 5 -69 21 -39 21 -40 -30 -60 -40 -93 -27 rrcurveto
          5 -50 6 -52 2 -65 65 -72 rcurveline
          -103 -56 rlineto
          3 -25 2 -29 -31 vvcurveto
          -69 -6 -69 -5 -70 vhcurveto
          2 -1 4 0 3 -1 53 -11 109 -35 89 -57 49 49 69 46 37 24 190 -138 rcurveline
          -346 149 rmoveto
          -28 20 -65 28 -30 1 7 165 rcurveline
          41 27 157 -174 -19 -14 -47 -37 -16 -16 rlinecurve
          endchar
        </CharString>
        <CharString name="aogonek">
          25 -222 -21 263 226 100 95 43 -20 hstem
          47 134 103 129 vstem
          438 413 rmoveto
          -66 -45 23 48 -44 hvcurveto
          -22 -39 -72 -21 -94 -16 1 1 -8 hhcurveto
          -80 18 33 -16 45 hhcurveto
          32 55 15 20 45 hvcurveto
          -99 vlineto
          -21 -40 -86 -15 -75 hhcurveto
          -17 -16 1 2 -15 hvcurveto
          9 -23 4 -29 -32 vvcurveto
          -53 -1 -57 -13 -35 vhcurveto
          77 -1 59 -17 51 -30 69 83 rcurveline
          5 -12 7 -13 8 -12 -102 -88 rcurveline
          35 -138 -87 callsubr
          59 62 8 -6 15 32 54 58 36 14 rlinecurve
          11 vlineto
          -59 callsubr
          -256 -218 rmoveto
          25 3 39 10 38 15 rrcurveto
          -141 vlineto
          -47 11 -27 -1 -30 2 rrcurveto
          endchar
        </CharString>
        <CharString name="apostrophe">
          -312 3 callsubr
          hintmask 10000000
          34 547 rmoveto
          -55 callgsubr
          endchar
        </CharString>
        <CharString name="approxequal">
          118 173 -21 325 -20 92 -20 hstem
          85 478 rmoveto
          -48 callgsubr
          -200 vmoveto
          -48 callgsubr
          endchar
        </CharString>
        <CharString name="aring">
          -40 callgsubr
          134 57 95 57 hstemhm
          47 134 -56 56 103 59 -59 129 hintmask 1111110100000000
          182 195 rmoveto
          25 3 39 10 38 15 rrcurveto
          -141 vlineto
          -47 11 -27 -1 -30 2 rrcurveto
          258 319 rmoveto
          -66 -45 23 48 -44 hvcurveto
          -22 -39 -72 -21 -94 -16 1 1 -8 hhcurveto
          -80 18 33 -16 45 hhcurveto
          32 55 15 20 45 hvcurveto
          -99 vlineto
          -21 -40 -86 -15 -75 hhcurveto
          -17 -16 1 2 -15 hvcurveto
          9 -23 4 -29 -32 vvcurveto
          -53 -1 -57 -13 -35 vhcurveto
          77 -1 59 -17 51 -30 69 83 rcurveline
          13 -31 24 -34 28 -18 15 32 54 58 36 14 rrcurveto
          11 vlineto
          hintmask 1111101010000000
          -59 callsubr
          -204 371 rmoveto
          -72 -37 -53 -52 -52 37 -52 76 hvcurveto
          hintmask 1111110100000000
          -49 callgsubr
          endchar
        </CharString>
        <CharString name="aringacute">
          -40 callgsubr
          70 57 95 57 226 -20 hstemhm
          47 134 -36 59 80 129 -110 60 hintmask 1111111010000000
          -104 callgsubr
          -184 307 rmoveto
          hintmask 1111110101000000
          -72 -37 -53 -52 -52 37 -52 76 -49 callgsubr
          -87 122 rmoveto
          -37 callgsubr
        </CharString>
        <CharString name="asciicircum">
          6 510 -21 263 -20 hstem
          430 541 rmoveto
          -17 20 -108 98 -76 93 -44 -59 -115 -106 -41 -46 20 -16 15 -18 21 -18 25 25 92 89 28 24 27 -24 91 -89 26 -25 21 18 15 18 20 16 rrcurveto
          endchar
        </CharString>
        <CharString name="asciitilde">
          86 186 -21 197 -20 hstem
          67 291 rmoveto
          -48 callgsubr
          endchar
        </CharString>
        <CharString name="asterisk">
          -17 453 -21 356 -20 hstem
          273 787 rmoveto
          -1 -12 -21 -1 -26 hhcurveto
          -22 -18 1 2 -12 hvcurveto
          8 -38 14 -60 9 -45 -44 39 -42 45 -14 16 -10 -18 -32 -60 -15 -17 34 -11 54 -16 42 -15 -42 -14 -53 -17 -33 -9 14 -20 33 -57 9 -19 14 17 43 46 45 39 rrcurveto
          -9 -45 -14 -60 -8 -37 rrcurveto
          2 12 18 1 22 hhcurveto
          26 21 -1 -1 12 hvcurveto
          -7 20 -18 60 -12 58 35 -30 44 -42 28 -25 7 23 37 57 10 17 -22 4 -66 16 -59 21 58 20 65 15 23 4 -10 18 -36 57 -8 22 -29 -25 -46 -44 -34 -30 rrcurveto
          12 58 18 59 7 21 rrcurveto
          endchar
        </CharString>
        <CharString name="at">
          274 -88 81 492 74 hstem
          51 92 73 114 93 119 67 81 vstem
          474 19 rmoveto
          -20 -2 -47 -6 -39 hhcurveto
          -149 -94 83 157 144 54 108 175 162 75 -103 -124 -24 -8 -24 -13 -25 hvcurveto
          -17 -2 -14 -5 -12 -11 rrcurveto
          -3 25 0 38 57 vvcurveto
          59 0 25 10 2 vhcurveto
          13 -120 vlineto
          -10 -8 rlineto
          -10 vlineto
          16 -50 -45 10 -52 hhcurveto
          -28 -18 -3 -6 -26 hvcurveto
          9 -23 4 -79 -32 vvcurveto
          -53 -1 -57 -13 -35 vhcurveto
          77 -1 59 -17 51 -30 39 83 rcurveline
          -45 21 34 -47 50 hhcurveto
          12 43 40 29 48 1 rrcurveto
          34 46 23 57 58 vvcurveto
          135 -109 141 -209 -236 -85 -184 -139 -182 130 -142 215 42 54 8 6 48 vhcurveto
          -22 22 -21 35 -12 38 rrcurveto
          -154 310 rmoveto
          27 21 -7 -15 44 hvcurveto
          -141 vlineto
          -47 11 -17 -1 -30 2 rrcurveto
          endchar
        </CharString>
        <CharString name="atilde">
          -40 callgsubr
          0 205 116 -20 hstemhm
          47 134 103 129 hintmask 11101110
          -104 callgsubr
          -368 278 -2 callsubr
          hintmask 11011110
          -81 callgsubr
        </CharString>
        <CharString name="b">
          78 -9 -21 776 -20 62 -20 hstem
          64 130 150 134 vstem
          288 69 rmoveto
          -29 9 -49 10 -25 1 rrcurveto
          8 37 1 65 73 vvcurveto
          60 vlineto
          29 19 72 23 54 2 rrcurveto
          -3 -36 -2 -44 -43 vvcurveto
          -45 0 -57 3 -29 vhcurveto
          -18 -9 -27 -22 -14 -14 rrcurveto
          -224 190 rmoveto
          -148 -6 -80 -24 -44 vhcurveto
          11 28 41 5 29 hhcurveto
          43 56 -15 -18 60 hvcurveto
          61 42 85 33 58 10 rrcurveto
          -12 25 -5 55 127 vvcurveto
          51 0 49 15 55 vhcurveto
          -39 11 -38 22 -32 35 -67 -15 -77 -36 -46 -33 rrcurveto
          231 -90 callsubr
          endchar
        </CharString>
        <CharString name="backslash">
          139 21 -21 733 -20 hstem
          574 hmoveto
          -15 8 -39 34 -37 69 -273 510 rcurveline
          -27 50 -13 38 24 vvcurveto
          -154 hlineto
          15 -8 39 -34 37 -69 273 -510 rcurveline
          27 -50 13 -38 -24 vvcurveto
          154 hlineto
          endchar
        </CharString>
        <CharString name="bar">
          -170 -16 -21 768 -20 hstem
          90 103 vstem
          72 -37 rmoveto
          138 -38 callsubr
          544 vlineto
          -39 callgsubr
          -542 7 callsubr
        </CharString>
        <CharString name="braceleft">
          -119 -68 -21 877 -20 hstem
          102 123 vstem
          146 351 rmoveto
          39 36 40 78 43 51 -6 28 43 vvcurveto
          75 18 57 96 18 vhcurveto
          5 -35 -33 3 -33 hhcurveto
          -42 -42 -5 -11 -45 hvcurveto
          24 -7 30 -15 11 -7 rrcurveto
          -55 -26 -11 -49 -58 -35 4 -18 -39 vvcurveto
          -52 -37 -97 -55 -19 vhcurveto
          54 -23 41 -78 -66 -39 -4 -18 -35 vvcurveto
          -58 11 -49 55 -26 vhcurveto
          -11 -7 -30 -15 -24 -7 rrcurveto
          -14 45 34 -4 35 hhcurveto
          35 35 4 6 46 hvcurveto
          -96 18 -18 57 75 43 6 28 51 vvcurveto
          48 -51 89 -31 21 vhcurveto
          endchar
        </CharString>
        <CharString name="braceright">
          -119 -68 -21 877 -20 hstem
          106 123 vstem
          188 351 rmoveto
          -31 -21 -51 -89 -48 -51 6 -28 -43 vvcurveto
          -75 -18 -57 -96 -18 vhcurveto
          -6 46 35 -4 35 hhcurveto
          35 34 4 14 45 hvcurveto
          -24 7 -30 15 -11 7 rrcurveto
          55 26 11 49 58 35 -4 18 39 vvcurveto
          66 41 78 54 23 vhcurveto
          -55 19 -37 97 52 39 4 18 35 vvcurveto
          58 -11 49 -55 26 vhcurveto
          11 7 30 15 24 7 rrcurveto
          11 -45 -42 5 -42 hhcurveto
          -33 -33 -3 -5 -35 hvcurveto
          96 -18 18 -57 -75 -43 -6 -28 -51 vvcurveto
          -43 40 -78 39 -36 vhcurveto
          endchar
        </CharString>
        <CharString name="bracketleft">
          -79 -107 90 720 85 hstem
          89 105 vstem
          351 703 rmoveto
          85 -279 vlineto
          12 -33 5 -39 -40 vvcurveto
          -671 vlineto
          -40 -5 -39 -12 -33 vhcurveto
          279 90 -157 720 hlineto
          endchar
        </CharString>
        <CharString name="bracketright">
          -79 -107 90 720 85 hstem
          180 105 vstem
          180 703 rmoveto
          -720 -157 -90 279 vlineto
          -33 callgsubr
          671 vlineto
          40 5 39 12 33 vhcurveto
          -279 -85 hlineto
          endchar
        </CharString>
        <CharString name="breve">
          -153 583 65 86 -20 hstem
          82 136 vstem
          290 701 -73 callgsubr
        </CharString>
        <CharString name="breve.cap">
          -153 803 65 66 -20 hstem
          290 901 -79 callgsubr
        </CharString>
        <CharString name="brokenbar">
          -167 -15 -21 769 -20 hstem
          91 103 vstem
          73 406 rmoveto
          138 -38 callsubr
          103 vlineto
          -39 callgsubr
          -101 -15 callsubr
          -442 vmoveto
          138 -38 callsubr
          103 vlineto
          -39 callgsubr
          -101 7 callsubr
        </CharString>
        <CharString name="bullet">
          -91 187 -21 276 -20 hstem
          54 305 rmoveto
          79 -34 22 -35 23 -70 39 94 41 20 53 18 -47 22 -52 38 -24 84 -22 -54 -26 -49 -86 -34 rrcurveto
          endchar
        </CharString>
        <CharString name="c">
          -5 -10 -21 515 -91 callgsubr
          endchar
        </CharString>
        <CharString name="cacute">
          -5 -10 -21 809 -91 callgsubr
          -129 648 rmoveto
          -37 callgsubr
        </CharString>
        <CharString name="caron">
          -132 -6 callsubr
          311 736 -86 callsubr
        </CharString>
        <CharString name="caron.alt">
          -282 592 -21 216 -20 hstem
          10 718 rmoveto
          16 -17 9 -26 -27 vvcurveto
          -28 -10 -30 -15 -19 vhcurveto
          64 10 46 44 41 88 rrcurveto
          -70 callsubr
        </CharString>
        <CharString name="caron.cap">
          -92 5 callgsubr
          351 904 -90 callgsubr
        </CharString>
        <CharString name="ccaron">
          -5 -10 -21 809 -91 callgsubr
          112 767 -86 callsubr
        </CharString>
        <CharString name="ccedilla">
          -5 -26 callgsubr
          32 52 0 68 0 52 563 -20 hstemhm
          60 132 -5 74 hintmask 10101100
          186 -116 rmoveto
          6 -6 6 -5 6 -8 rrcurveto
          -8 callgsubr
          14 13 -1 -3 18 hvcurveto
          1 -37 0 -43 1 -6 rrcurveto
          15 -15 -43 7 -18 hhcurveto
          -28 -30 -20 -41 -16 hvcurveto
          hintmask 11011010
          7 13 13 2 12 hhcurveto
          24 20 -11 -21 17 hvcurveto
          25 17 65 17 40 1 rrcurveto
          -4 6 -1 112 20 vvcurveto
          -42 31 rlineto
          -61 62 hlineto
          10 -5 9 -4 7 -5 20 22 62 29 42 8 rrcurveto
          -6 22 -6 28 51 vvcurveto
          27 0 18 1 11 vhcurveto
          -55 -16 -36 -40 -8 -51 -37 3 -53 12 -29 12 rrcurveto
          hintmask 11011100
          6 41 4 58 44 vvcurveto
          51 -4 50 -6 50 vhcurveto
          -38 41 47 -23 30 hhcurveto
          47 49 35 50 25 hvcurveto
          -60 11 -62 22 -44 28 -65 -31 -80 -26 -72 -12 rrcurveto
          15 -47 7 -66 -71 vvcurveto
          -88 -12 -82 -18 -28 vhcurveto
          hintmask 11011010
          44 -1 60 -10 53 -15 rrcurveto
          -77 vlineto
          -13 callsubr
        </CharString>
        <CharString name="ccircumflex">
          -5 -10 -21 809 -91 callgsubr
          112 648 -94 callgsubr
        </CharString>
        <CharString name="cdotaccent">
          -5 -10 -21 783 -91 callgsubr
          -130 681 rmoveto
          -74 callsubr
        </CharString>
        <CharString name="cedilla">
          -204 -10 callgsubr
          -52 172 hstemhm
          57 74 hintmask 11101000
          56 -83 callgsubr
          hlineto
          hintmask 11011000
          120 -75 vlineto
          1 -16 0 -80 -15 vvcurveto
          -13 callsubr
        </CharString>
        <CharString name="cent">
          15 -78 -21 437 198 hstemhm
          69 132 -10 125 hintmask 11010000
          420 28 rmoveto
          -6 22 -6 28 51 vvcurveto
          27 0 18 1 11 vhcurveto
          -55 -16 -36 -40 -8 -51 -37 3 -53 12 -29 12 rrcurveto
          hintmask 11100000
          6 41 4 58 44 vvcurveto
          hintmask 11010000
          51 -4 50 -6 50 vhcurveto
          -38 41 47 -23 30 hhcurveto
          47 49 35 50 25 hvcurveto
          -39 7 -39 11 -35 15 2 29 5 27 9 24 rrcurveto
          -160 hlineto
          12 -26 4 -29 1 -28 -47 -17 -50 -14 -46 -7 rrcurveto
          hintmask 11100000
          15 -47 7 -66 -71 vvcurveto
          -88 -12 -82 -18 -28 vhcurveto
          hintmask 11010000
          42 -1 58 -10 52 -13 rrcurveto
          -35 -2 -39 -16 -34 vhcurveto
          160 hlineto
          -9 26 -6 29 -2 30 28 17 44 19 32 6 rrcurveto
          endchar
        </CharString>
        <CharString name="circumflex">
          -132 -6 callsubr
          311 617 -94 callgsubr
        </CharString>
        <CharString name="circumflex.cap">
          -92 5 callgsubr
          351 829 -94 callsubr
        </CharString>
        <CharString name="colon">
          -168 -33 -21 509 -20 hstem
          48 22 rmoveto
          -107 callsubr
          331 vmoveto
          -74 callsubr
        </CharString>
        <CharString name="comma">
          -228 -131 -21 296 -20 hstem
          36 45 -26 callsubr
        </CharString>
        <CharString name="commaaccent">
          -282 -26 callgsubr
          196 -20 hstem
          10 -156 -88 callgsubr
        </CharString>
        <CharString name="copyright">
          377 7 78 404 245 -78 78 hstemhm
          49 79 149 119 305 80 hintmask 10111100
          413 734 rmoveto
          -251 -113 -184 -181 -180 113 -182 265 240 114 183 182 184 -112 178 -256 hvcurveto
          -78 vmoveto
          192 96 -143 -141 -137 -97 -150 -188 -194 -94 162 122 137 94 150 191 hvcurveto
          58 -511 rmoveto
          17 17 62 26 34 5 rrcurveto
          -5 19 -4 20 87 vvcurveto
          -43 -13 -42 -24 -7 -41 -29 2 -42 10 -24 10 rrcurveto
          5 32 3 58 33 vvcurveto
          42 -3 61 -5 41 vhcurveto
          hintmask 11011100
          -32 34 36 -9 24 hhcurveto
          38 39 29 39 21 hvcurveto
          -48 9 -50 18 -35 22 -53 -25 -82 -20 -57 -10 rrcurveto
          5 -17 17 -31 -32 vvcurveto
          -39 -14 -43 -7 -13 vhcurveto
          7 -18 12 -37 -33 vvcurveto
          -41 -17 -39 -8 -13 vhcurveto
          64 121 -27 -23 36 hvcurveto
          endchar
        </CharString>
        <CharString name="currency">
          106 141 -21 51 76 185 76 51 -20 hstem
          108 78 185 79 vstem
          277 508 rmoveto
          -22 -19 -3 -5 -17 hvcurveto
          -14 17 -13 20 -7 22 -124 -124 rcurveline
          19 -10 19 -12 18 -14 rrcurveto
          -6 -20 -3 -20 -21 vvcurveto
          -21 3 -22 7 -19 vhcurveto
          -17 -14 -20 -11 -20 -7 124 -124 rcurveline
          10 19 12 20 15 20 rrcurveto
          -6 18 21 -2 23 hhcurveto
          20 18 2 5 16 hvcurveto
          15 -18 12 -19 10 -20 124 124 rcurveline
          -22 8 -20 11 -17 14 rrcurveto
          6 20 4 21 22 vvcurveto
          19 -3 19 -6 19 vhcurveto
          19 14 20 12 19 10 -124 124 rcurveline
          -8 -22 -12 -20 -15 -17 rrcurveto
          6 -18 -21 3 -24 hhcurveto
          -76 vmoveto
          64 30 -46 -45 -46 -31 -48 -60 -64 -30 52 39 46 30 48 61 hvcurveto
          endchar
        </CharString>
        <CharString name="d">
          81 -7 -21 774 -20 62 -20 hstem
          54 134 149 -31 callgsubr
          -97 callgsubr
          endchar
        </CharString>
        <CharString name="dagger">
          -16 -33 -21 459 115 221 -20 hstem
          156 125 vstem
          30 538 rmoveto
          -150 vlineto
          -60 callgsubr
          14 -346 hlineto
          -17 callsubr
          347 14 vlineto
          -35 callsubr
        </CharString>
        <CharString name="daggerdbl">
          26 -33 -21 230 115 114 115 221 -20 hstem
          177 125 vstem
          51 538 rmoveto
          -150 vlineto
          -60 callgsubr
          14 -114 -13 hlineto
          -61 callsubr
          -150 vlineto
          -60 callgsubr
          14 -117 hlineto
          -17 callsubr
          118 14 vlineto
          -63 callsubr
          150 -11 callsubr
          -13 114 14 hlineto
          -35 callsubr
        </CharString>
        <CharString name="dcaron">
          81 -7 -21 771 -20 23 -20 62 -20 hstemhm
          54 134 149 130 hintmask 10111100
          -97 callgsubr
          258 253 rmoveto
          15 -19 12 -31 -32 vvcurveto
          -26 -8 -27 -19 -22 vhcurveto
          96 8 47 91 18 53 rrcurveto
          hintmask 11011100
          3 callgsubr
        </CharString>
        <CharString name="dcroat">
          81 -7 -21 626 73 -73 148 42 -20 hstemhm
          54 134 149 130 -130 205 hintmask 10111100
          219 689 rmoveto
          -67 callsubr
          -60 callgsubr
          6 -138 hlineto
          -41 4 -34 9 -41 17 -61 -42 -65 -33 -58 -10 rrcurveto
          12 -25 5 -55 -127 vvcurveto
          -51 0 -49 -15 -55 vhcurveto
          39 -11 38 -22 32 -35 67 15 81 32 46 33 -47 callsubr
          10 -10 21 147 vvcurveto
          332 vlineto
          28 -2 27 -6 24 -8 rrcurveto
          hintmask 11011010
          -20 callsubr
          -24 -12 -28 -4 -26 -2 3 51 9 40 22 26 rrcurveto
          hintmask 10111100
          -27 -56 -48 -15 -44 hhcurveto
          -16 -16 2 5 -15 hvcurveto
          hintmask 11011100
          15 -28 8 -24 4 -30 rrcurveto
          -39 -56 callsubr
          35 -298 rmoveto
          25 -9 37 -10 21 -1 rrcurveto
          -235 vlineto
          -29 -19 -72 -23 -53 -2 rrcurveto
          3 36 2 44 43 vvcurveto
          45 0 57 -3 29 vhcurveto
          21 9 32 22 16 14 rrcurveto
          endchar
        </CharString>
        <CharString name="ddotbelow">
          81 -252 -21 1019 -20 62 -20 hstem
          54 134 149 -31 callgsubr
          -97 callgsubr
          -84 -588 rmoveto
          -74 callsubr
        </CharString>
        <CharString name="degree">
          -107 500 6 callsubr
          55 74 93 73 vstem
          153 735 rmoveto
          -29 -30 -55 -21 -26 -5 rrcurveto
          5 -6 7 -59 -39 vvcurveto
          -38 -5 -24 -9 -8 vhcurveto
          3 4 1 4 hhcurveto
          29 83 -16 -11 15 hvcurveto
          28 28 64 24 33 4 rrcurveto
          -6 34 -3 35 36 vvcurveto
          29 2 26 4 22 vhcurveto
          -1 -11 -9 -1 -8 hhcurveto
          -26 -48 5 15 -46 hvcurveto
          69 -195 rmoveto
          -23 7 -50 5 -22 2 rrcurveto
          1 24 1 15 20 vvcurveto
          24 -1 14 -3 28 vhcurveto
          15 -8 53 -7 30 -3 rrcurveto
          endchar
        </CharString>
        <CharString name="dieresis">
          -13 595 11 callsubr
          10 650 rmoveto
          -107 callsubr
          230 hmoveto
          -74 callsubr
        </CharString>
        <CharString name="dieresis.cap">
          -64 5 callgsubr
          10 855 -87 callgsubr
        </CharString>
        <CharString name="divide">
          3 91 -21 238 103 238 -20 hstem
          139 146 rmoveto
          -107 callsubr
          401 vmoveto
          -107 callsubr
          -100 -118 16 callgsubr
          -60 callgsubr
          153 hlineto
          40 39 -5 -12 33 hvcurveto
          138 vlineto
          -20 callgsubr
        </CharString>
        <CharString name="dollar">
          150 -70 -21 564 182 131 -20 hstem
          87 117 vstem
          421 186 rmoveto
          -16 -19 -13 -10 -16 -20 -60 20 -33 5 -79 38 rrcurveto
          88 -55 33 -62 vhcurveto
          -7 -104 1 -72 -9 -94 rrcurveto
          27 11 18 22 25 hvcurveto
          62 -18 39 -17 43 -19 rrcurveto
          -15 -15 callsubr
          160 hlineto
          -12 33 -5 39 39 vvcurveto
          56 46 41 25 56 21 rrcurveto
          -5 70 -6 19 69 vvcurveto
          31 2 29 3 25 vhcurveto
          -331 117 rlineto
          79 vlineto
          43 19 16 13 27 25 25 -15 18 -19 37 -1 16 -59 45 -38 61 -3 rrcurveto
          58 0 73 42 51 vhcurveto
          -67 3 -62 7 -56 26 2 34 5 32 9 29 rrcurveto
          -160 hlineto
          13 -33 4 -37 1 -36 rrcurveto
          -29 -56 -65 -16 -60 hhcurveto
          -10 -9 0 1 -9 hvcurveto
          -44 20 -33 35 -10 vhcurveto
          4 -34 -2 -57 9 -65 318 -132 rcurveline
          endchar
        </CharString>
        <CharString name="dotaccent">
          -243 595 11 callsubr
          10 650 rmoveto
          -74 callsubr
        </CharString>
        <CharString name="dotaccent.cap">
          -263 5 callgsubr
          10 855 -69 callsubr
          endchar
        </CharString>
        <CharString name="dotbelow">
          -243 -252 11 callsubr
          10 -197 rmoveto
          -74 callsubr
        </CharString>
        <CharString name="dotlessi">
          -188 -7 -21 513 -20 hstem
          68 -31 callgsubr
          -93 callgsubr
          endchar
        </CharString>
        <CharString name="dotlessj">
          -187 -26 callgsubr
          768 -20 hstem
          69 -31 callgsubr
          7 -283 rmoveto
          75 90 89 63 54 18 rrcurveto
          4 vlineto
          -23 25 -3 39 122 vvcurveto
          377 -53 callsubr
          -480 vlineto
          -17 -75 -32 -66 -48 -68 rrcurveto
          endchar
        </CharString>
        <CharString name="e">
          -27 callsubr
          21 -20 hstem
          59 123 vstem
          -105 callgsubr
          endchar
        </CharString>
        <CharString name="eacute">
          -27 callsubr
          315 -20 hstem
          59 123 vstem
          -105 callgsubr
          -12 223 rmoveto
          -37 callgsubr
        </CharString>
        <CharString name="ebreve">
          -27 callsubr
          120 65 86 -20 hstem
          59 123 vstem
          -105 callgsubr
          200 307 -73 callgsubr
        </CharString>
        <CharString name="ecaron">
          -27 callsubr
          315 -20 hstem
          59 123 vstem
          -105 callgsubr
          219 342 -86 callsubr
        </CharString>
        <CharString name="ecircumflex">
          -27 callsubr
          315 -20 hstem
          59 123 vstem
          -105 callgsubr
          219 223 -94 callgsubr
        </CharString>
        <CharString name="edieresis">
          -27 callsubr
          289 -20 hstem
          59 123 vstem
          -105 callgsubr
          -140 256 rmoveto
          -107 callsubr
          230 hmoveto
          -74 callsubr
        </CharString>
        <CharString name="edotaccent">
          -27 callsubr
          289 -20 hstem
          59 123 vstem
          -105 callgsubr
          -23 256 rmoveto
          -74 callsubr
        </CharString>
        <CharString name="edotbelow">
          8 -252 -21 513 223 21 -20 hstem
          59 123 vstem
          -105 callgsubr
          -27 -591 rmoveto
          -74 callsubr
        </CharString>
        <CharString name="egrave">
          -27 callsubr
          315 -20 hstem
          59 123 vstem
          -105 callgsubr
          130 223 -70 callgsubr
        </CharString>
        <CharString name="eight">
          78 -5 -21 763 -20 hstem
          71 132 112 142 vstem
          68 652 rmoveto
          1 -45 2 -118 -84 vvcurveto
          118 -10 -118 -30 rlineto
          -49 1 -53 -41 vvcurveto
          -49 -2 -38 -7 -16 vhcurveto
          44 -16 104 -76 40 -53 23 33 70 76 113 26 rrcurveto
          229 vlineto
          -23 28 -84 29 107 10 rlineto
          214 vlineto
          11 4 16 20 20 vvcurveto
          -69 2 -63 16 -66 56 -90 -55 -46 -18 -82 -12 rrcurveto
          247 -531 rmoveto
          -35 24 -72 47 -5 4 rrcurveto
          146 vlineto
          65 31 47 -40 rlineto
          -109 317 rmoveto
          47 -33 28 -19 35 -16 rrcurveto
          -145 vlineto
          -62 -14 -46 44 -1 75 0 72 -1 36 rlinecurve
          endchar
        </CharString>
        <CharString name="ellipsis">
          208 -33 11 callsubr
          27 22 rmoveto
          -107 callsubr
          210 hmoveto
          -107 callsubr
          210 hmoveto
          -74 callsubr
        </CharString>
        <CharString name="emacron">
          -27 callsubr
          181 73 18 -20 hstemhm
          59 123 hintmask 11011000
          -105 callgsubr
          -94 341 rmoveto
          -67 callsubr
          hintmask 11101000
          -68 callgsubr
          hintmask 11011000
          -42 callsubr
          hintmask 11101000
          -46 callgsubr
          hintmask 11011000
          -61 callgsubr
        </CharString>
        <CharString name="emdash">
          46 215 -29 callsubr
          61 336 -64 callsubr
        </CharString>
        <CharString name="endash">
          46 215 -29 callsubr
          61 336 -64 callsubr
        </CharString>
        <CharString name="eng">
          73 -26 callgsubr
          304 -21 494 -20 hstem
          69 130 138 124 vstem
          473 404 rmoveto
          -55 26 -26 22 -46 42 -48 -50 -42 -35 -57 -37 rrcurveto
          83 vlineto
          -85 callsubr
          215 vlineto
          123 55 13 -14 rlineto
          -50 1 -49 1 -297 vhcurveto
          -17 -75 -32 -66 -48 -68 35 -22 rcurveline
          75 90 83 63 54 18 rrcurveto
          4 vlineto
          -23 25 -3 39 122 vvcurveto
          1 273 4 27 7 26 rrcurveto
          endchar
        </CharString>
        <CharString name="eogonek">
          8 -212 -21 473 223 21 -20 hstem
          59 123 vstem
          420 27 rmoveto
          -9 25 -3 22 45 vvcurveto
          15 0 15 1 16 vhcurveto
          -63 -18 -21 -29 -7 -42 -37 3 -77 11 -31 12 3 28 5 39 1 39 -14 callgsubr
          -47 -46 -45 -32 -57 -11 rrcurveto
          9 -30 13 -54 -81 vvcurveto
          -64 -8 -98 -22 -35 vhcurveto
          39 -1 84 -18 55 -28 -52 -46 rcurveline
          35 -138 -87 callsubr
          70 74 40 13 45 10 30 4 rlinecurve
          -248 367 rmoveto
          -10 37 48 -7 31 hhcurveto
          -31 5 -29 7 -27 vhcurveto
          -117 -29 -1 36 -3 42 -7 55 rlinecurve
          endchar
        </CharString>
        <CharString name="equal">
          60 117 103 -99 -21 217 103 18 -20 hstemhm
          hintmask 10010000
          68 438 16 callgsubr
          hintmask 10100000
          -60 callgsubr
          153 13 callsubr
          hintmask 10010000
          138 vlineto
          hintmask 10100000
          -9 callgsubr
          hintmask 01010000
          -61 callsubr
          -200 vmoveto
          -138 vlineto
          hintmask 10100000
          -60 callgsubr
          153 -39 callsubr
          hintmask 10100000
          -20 callgsubr
        </CharString>
        <CharString name="eth">
          65 -7 -21 816 -20 hstem
          58 129 147 132 vstem
          113 788 rmoveto
          50 -39 40 -49 32 -53 -89 -18 rcurveline
          13 -66 111 22 29 -58 20 -58 16 -49 rlinecurve
          -168 61 -31 -31 -69 -53 -32 -24 rlinecurve
          10 -13 13 -118 -78 vvcurveto
          -75 -9 -49 -18 -16 vhcurveto
          1 6 8 1 8 hhcurveto
          57 127 -31 -23 30 hvcurveto
          -43 callsubr
          -7 51 -4 48 47 vvcurveto
          29 2 29 3 29 vhcurveto
          -6 100 -33 103 -46 88 95 20 rcurveline
          -18 66 -112 -24 -29 46 -32 40 -32 31 rlinecurve
          75 -714 rmoveto
          -47 14 -59 10 -45 5 rrcurveto
          3 47 2 51 39 vvcurveto
          9 callgsubr
          endchar
        </CharString>
        <CharString name="etilde">
          8 -11 -21 495 183 116 -20 hstem
          59 123 vstem
          -105 callgsubr
          -99 297 rmoveto
          -116 vlineto
          -81 callgsubr
        </CharString>
        <CharString name="exclam">
          -154 -33 -21 843 -20 hstem
          91 125 vstem
          73 201 rmoveto
          -9 callsubr
          364 vlineto
          40 5 39 12 33 vhcurveto
          -160 hlineto
          17 -35 1 -41 -37 vvcurveto
          -362 -15 callsubr
          -17 -179 rmoveto
          -74 callsubr
        </CharString>
        <CharString name="exclamdown">
          -158 -26 callgsubr
          843 -20 hstem
          88 125 vstem
          70 305 rmoveto
          17 -35 1 -41 -37 vvcurveto
          -362 vlineto
          -17 callsubr
          364 vlineto
          40 5 39 12 33 vhcurveto
          -177 179 rmoveto
          23 -39 33 -42 40 -21 17 20 58 43 19 12 -45 32 -31 26 -22 45 -16 -20 -56 -40 -20 -16 rrcurveto
          endchar
        </CharString>
        <CharString name="f">
          -85 -7 -21 483 170 150 -20 hstem
          98 -31 callgsubr
          41 hmoveto
          -54 callgsubr
          9 28 18 31 19 20 rlinecurve
          4 -141 22 vlineto
          121 -3 37 -10 36 vhcurveto
          20 13 rlineto
          -36 56 45 -23 36 hhcurveto
          37 29 26 63 22 hvcurveto
          -78 17 -62 19 -47 25 -55 callsubr
          endchar
        </CharString>
        <CharString name="f_f">
          258 10 callgsubr
          213 -31 callgsubr
          712 455 rmoveto
          -141 22 hlineto
          -13 callgsubr
          -28 23 31 -18 30 hhcurveto
          33 31 22 53 19 hvcurveto
          -63 12 -39 26 -27 24 -30 callsubr
          -42 -213 22 vlineto
          -51 callgsubr
          17 11 16 16 50 hhcurveto
          12 13 -1 -2 16 hvcurveto
          -253 vlineto
          -107 -20 -21 -37 -9 vhcurveto
          -12 vlineto
          -54 callgsubr
          9 28 18 31 19 20 rlinecurve
          endchar
        </CharString>
        <CharString name="f_i">
          186 10 callgsubr
          214 -31 callgsubr
          413 622 rmoveto
          -107 callsubr
          141 -137 rmoveto
          -17 -41 -95 -13 -52 hhcurveto
          -138 22 hlineto
          -51 callgsubr
          27 17 16 29 86 hhcurveto
          -348 vlineto
          -41 11 -35 23 -32 vhcurveto
          5 hlineto
          40 12 36 9 42 7 rrcurveto
          -53 callgsubr
          endchar
        </CharString>
        <CharString name="f_l">
          193 -43 -21 852 -20 hstem
          98 130 216 -31 callgsubr
          41 hmoveto
          -54 callgsubr
          9 28 18 31 19 20 rlinecurve
          4 -141 12 callsubr
          -36 56 45 -23 36 hhcurveto
          26 22 12 30 18 hvcurveto
          5 -17 1 -18 -27 vvcurveto
          -513 -27 callgsubr
          1 -7 rlineto
          -65 callsubr
          484 vlineto
          69 -40 callsubr
          -27 -56 -48 -46 -44 hhcurveto
          -6 hlineto
          -76 16 -60 19 -46 25 -55 callsubr
          endchar
        </CharString>
        <CharString name="five">
          64 11 -21 59 100 460 96 30 -20 hstem
          88 127 vstem
          449 429 rmoveto
          -81 58 -156 -58 rlineto
          34 3 33 34 vvcurveto
          17 -1 66 -2 17 vhcurveto
          -10 37 41 -11 26 hhcurveto
          108 27 58 68 10 hvcurveto
          -28 -62 -63 -2 -65 hhcurveto
          -67 -68 12 17 -68 hvcurveto
          9 -29 11 -106 -99 vvcurveto
          -64 -4 -60 -13 -34 vhcurveto
          26 -12 32 -12 16 -9 13 6 75 32 72 29 1 -66 0 -195 2 -8 rrcurveto
          28 -28 -82 14 -33 hhcurveto
          -54 -55 -39 -77 -32 hvcurveto
          11 27 24 5 23 hhcurveto
          44 37 -20 -39 33 hvcurveto
          47 30 121 33 79 1 rrcurveto
          -9 14 -1 321 40 vvcurveto
          endchar
        </CharString>
        <CharString name="florin">
          133 -91 -21 567 130 150 -20 hstem
          211 -31 callgsubr
          342 385 rmoveto
          95 -13 9 28 18 31 19 20 rlinecurve
          4 -141 22 vlineto
          90 -12 59 -1 5 -21 callsubr
          1 -19 -86 vvcurveto
          -43 vlineto
          -27 -24 -31 -17 -26 -10 rrcurveto
          -11 82 -206 vlineto
          -121 3 -37 10 -36 vhcurveto
          -20 -13 rlineto
          25 -36 -34 12 -28 hhcurveto
          -37 -26 -23 -44 -4 hvcurveto
          62 -25 56 -13 39 -23 48 41 59 37 58 15 rrcurveto
          -20 40 0 26 119 vvcurveto
          endchar
        </CharString>
        <CharString name="four">
          106 19 -21 106 108 0 95 430 -20 hstemhm
          308 126 hintmask 11011000
          299 49 rmoveto
          30 -15 35 -25 -7 callgsubr
          40 32 vlineto
          39 5 -9 -15 18 hvcurveto
          hintmask 10111000
          -18 28 -4 71 -1 20 rrcurveto
          -71 358 hlineto
          -39 3 -97 14 -48 55 -18 -101 -191 -296 -25 -16 rrcurveto
          7 -7 9 -30 -37 vvcurveto
          -14 -2 -16 -3 -15 vhcurveto
          6 26 55 1 63 hhcurveto
          130 hlineto
          7 394 rmoveto
          -299 -164 vlineto
          63 75 89 197 12 27 rrcurveto
          endchar
        </CharString>
        <CharString name="fourinferior">
          -88 21 -21 117 57 211 -20 hstemhm
          30 248 -90 90 hintmask 11110000
          183 34 -80 callgsubr
          hintmask 11101000
          -31 callsubr
          endchar
        </CharString>
        <CharString name="foursuperior">
          -102 424 -21 62 -20 75 57 211 -20 hstemhm
          24 248 -90 90 hintmask 11111000
          177 437 -80 callgsubr
          hintmask 11110100
          -31 callsubr
          endchar
        </CharString>
        <CharString name="fraction">
          10 21 -21 788 -20 hstem
          55 111 -88 callsubr
          endchar
        </CharString>
        <CharString name="g">
          12 callgsubr
          743 -99 callgsubr
          endchar
        </CharString>
        <CharString name="gbreve">
          12 callgsubr
          840 65 86 -99 callgsubr
          160 314 -73 callgsubr
        </CharString>
        <CharString name="gcircumflex">
          12 callgsubr
          1035 -99 callgsubr
          169 230 -94 callgsubr
        </CharString>
        <CharString name="gcommaaccent">
          12 callgsubr
          1028 -99 callgsubr
          94 257 rmoveto
          -16 15 -9 22 23 vvcurveto
          24 10 26 15 17 vhcurveto
          -64 -8 -46 -38 -41 -76 rrcurveto
          -42 4 42 -32 51 hhcurveto
          15 39 13 16 26 14 rrcurveto
          endchar
        </CharString>
        <CharString name="gdotaccent">
          12 callgsubr
          1009 -99 callgsubr
          -73 263 rmoveto
          -74 callsubr
        </CharString>
        <CharString name="germandbls">
          66 -98 -21 907 -20 hstemhm
          66 125 159 106 -106 122 hintmask 11101000
          48 -119 rmoveto
          -9 callsubr
          695 vlineto
          165 -51 rlineto
          -102 vlineto
          -128 -111 rlineto
          -81 vlineto
          52 -28 25 -21 45 -32 rrcurveto
          -154 vlineto
          -81 -85 -56 -39 -19 vhcurveto
          8 -3 70 24 125 50 50 23 rlinecurve
          -5 24 -2 28 37 vvcurveto
          37 2 107 5 28 vhcurveto
          -2 -137 80 3 -8 hvcurveto
          8 vlineto
          128 100 rlineto
          hintmask 11110000
          -3 11 -1 136 15 vvcurveto
          26 3 25 6 19 vhcurveto
          -71 12 -103 24 -44 22 -54 -65 -56 -48 -71 -54 rrcurveto
          -627 7 callsubr
        </CharString>
        <CharString name="grave">
          -243 -6 callsubr
          200 617 -70 callgsubr
        </CharString>
        <CharString name="grave.cap">
          -194 811 -21 154 -20 hstem
          249 848 -73 callsubr
        </CharString>
        <CharString name="greater">
          11 178 -21 388 -20 hstem
          421 417 rmoveto
          -356 128 rlineto
          -102 vlineto
          242 -91 -242 -93 rlineto
          -102 vlineto
          356 130 rlineto
          endchar
        </CharString>
        <CharString name="guillemotleft">
          210 22 -21 454 -20 hstem
          24 232 -52 callgsubr
          69 -223 -52 callgsubr
          endchar
        </CharString>
        <CharString name="guillemotright">
          210 22 -21 454 -20 hstem
          438 455 -52 callsubr
          -471 223 -52 callsubr
          endchar
        </CharString>
        <CharString name="guilsinglleft">
          -60 22 -21 454 -20 hstem
          24 232 -52 callgsubr
          endchar
        </CharString>
        <CharString name="guilsinglright">
          -60 22 -21 454 -20 hstem
          168 455 -52 callsubr
          endchar
        </CharString>
        <CharString name="h">
          71 -78 -21 120 -81 callsubr
          endchar
        </CharString>
        <CharString name="hbar">
          68 -78 -21 120 -21 558 73 -73 188 42 -20 hstemhm
          -25 224 -130 130 -130 225 42 123 hintmask 1110110010000000
          -29 649 rmoveto
          -67 callsubr
          hintmask 1110101010000000
          29 10 34 6 35 1 rrcurveto
          -479 -37 callsubr
          205 vlineto
          123 55 13 -14 rlineto
          -76 1 -76 -76 vvcurveto
          -29 -11 -117 -15 -53 vhcurveto
          6 -6 38 40 62 49 52 19 rlinecurve
          -6 27 -3 25 118 vvcurveto
          138 4 41 10 36 vhcurveto
          -55 26 -26 22 -46 42 -48 -50 -42 -35 -57 -37 rrcurveto
          196 vlineto
          35 -1 34 -6 30 -10 rrcurveto
          hintmask 1110100110000000
          -20 callsubr
          hintmask 1110101010000000
          -15 -31 -35 -3 -33 hhcurveto
          70 -40 callsubr
          hintmask 1101110010000000
          -27 -56 -48 -15 -44 hhcurveto
          -16 -16 2 5 -15 hvcurveto
          hintmask 1110101010000000
          21 -39 7 -32 2 -51 rrcurveto
          -33 -35 3 15 -30 hvcurveto
          endchar
        </CharString>
        <CharString name="hcircumflex">
          68 -78 -21 120 -81 callsubr
          208 710 -94 callgsubr
        </CharString>
        <CharString name="hdotbelow">
          68 -252 -21 294 -81 callsubr
          -132 -104 rmoveto
          -74 callsubr
        </CharString>
        <CharString name="hungarumlaut">
          -52 -6 callsubr
          10 617 -58 callgsubr
        </CharString>
        <CharString name="hungarumlaut.cap">
          -5 805 -21 160 -20 hstem
          10 834 rmoveto
          -60 callsubr
          218 hmoveto
          -60 callsubr
          endchar
        </CharString>
        <CharString name="hyphen">
          -4 215 -29 callsubr
          61 336 16 callgsubr
          -4 callsubr
          138 vlineto
          -8 callsubr
        </CharString>
        <CharString name="i">
          -188 -7 -21 780 -20 hstem
          68 -31 callgsubr
          -93 callgsubr
          -158 -19 callsubr
          endchar
        </CharString>
        <CharString name="iacute">
          -188 -7 -21 806 -20 hstem
          68 -31 callgsubr
          -93 callgsubr
          -154 162 rmoveto
          -37 callgsubr
        </CharString>
        <CharString name="ibreve">
          -188 -7 -21 611 65 86 -20 hstem
          68 136 vstem
          -93 callgsubr
          78 246 -73 callgsubr
        </CharString>
        <CharString name="icircumflex">
          -188 -7 -21 806 -20 hstem
          68 -31 callgsubr
          -93 callgsubr
          87 162 -94 callgsubr
        </CharString>
        <CharString name="idieresis">
          -188 -7 -21 780 -20 hstem
          68 -31 callgsubr
          -93 callgsubr
          -272 -19 callsubr
          230 hmoveto
          -74 callsubr
        </CharString>
        <CharString name="idotbelow">
          -188 -252 -21 1025 -20 hstem
          68 -31 callgsubr
          -93 callgsubr
          -158 -19 callsubr
          3 -847 rmoveto
          -74 callsubr
        </CharString>
        <CharString name="igrave">
          -188 -7 -21 806 -20 hstem
          68 -31 callgsubr
          -93 callgsubr
          18 162 -70 callgsubr
        </CharString>
        <CharString name="ij">
          77 -26 callgsubr
          1035 -20 hstem
          68 130 135 -31 callgsubr
          -93 callgsubr
          -158 -19 callsubr
          231 -933 -78 callgsubr
        </CharString>
        <CharString name="imacron">
          -188 -7 -21 672 73 18 -20 hstemhm
          68 130 hintmask 10110000
          -93 callgsubr
          -226 280 rmoveto
          -67 callsubr
          hintmask 11010000
          -68 callgsubr
          hintmask 10110000
          -42 callsubr
          hintmask 11010000
          -46 callgsubr
          hintmask 10110000
          -61 callgsubr
        </CharString>
        <CharString name="iogonek">
          -187 -212 -21 985 -20 hstem
          68 -31 callgsubr
          180 485 rmoveto
          -42 -11 -60 -12 -47 -7 rrcurveto
          -11 vlineto
          37 -16 rlineto
          -348 vlineto
          -26 4 -24 9 -22 vhcurveto
          -78 -68 35 -138 -87 callsubr
          51 54 30 8 29 7 32 5 rlinecurve
          -53 callgsubr
          -158 -19 callsubr
          endchar
        </CharString>
        <CharString name="itilde">
          -188 -7 -21 790 -20 hstem
          68 -31 callgsubr
          -93 callgsubr
          -231 236 rmoveto
          -116 vlineto
          -81 callgsubr
        </CharString>
        <CharString name="j">
          -187 -26 callgsubr
          1035 -20 hstem
          69 -31 callgsubr
          7 -283 -78 callgsubr
        </CharString>
        <CharString name="jcircumflex">
          -187 -26 callgsubr
          1061 -20 hstem
          69 -31 callgsubr
          7 -283 rmoveto
          75 90 89 63 54 18 rrcurveto
          4 vlineto
          -23 25 -3 39 122 vvcurveto
          377 -53 callsubr
          -480 vlineto
          -17 -75 -32 -66 -48 -68 rrcurveto
          313 878 -94 callgsubr
        </CharString>
        <CharString name="k">
          48 -60 -21 102 -67 callgsubr
          endchar
        </CharString>
        <CharString name="kcommaaccent">
          48 -26 callgsubr
          304 -67 callgsubr
          -11 -427 -88 callgsubr
        </CharString>
        <CharString name="kgreenlandic">
          49 -60 -21 102 -21 508 -20 hstem
          70 130 127 -31 callgsubr
          311 -81 rmoveto
          31 31 68 43 54 23 rrcurveto
          -5 24 -2 28 37 vvcurveto
          37 2 26 5 28 vhcurveto
          -45 26 -52 23 -70 14 rrcurveto
          4 vlineto
          148 56 rlineto
          -3 11 -1 27 15 vvcurveto
          26 3 25 6 19 vhcurveto
          -70 14 -51 18 -40 26 -34 -34 -27 -24 -28 -18 rrcurveto
          28 vlineto
          28 5 19 10 9 vhcurveto
          -15 -52 -41 -7 -35 hhcurveto
          -17 -16 2 5 -14 hvcurveto
          23 -42 7 -33 -73 vvcurveto
          -266 vlineto
          -35 -10 -23 -17 -6 vhcurveto
          -15 184 -71 callsubr
          141 vlineto
          47 -19 40 -21 40 -28 rrcurveto
          -83 vlineto
          -51 -11 -70 -13 -35 vhcurveto
          -103 474 rmoveto
          151 -30 2 -33 -153 -62 rlineto
          endchar
        </CharString>
        <CharString name="l">
          -182 -43 -21 810 -20 62 -20 hstem
          70 -31 callgsubr
          19 -28 -84 callgsubr
          endchar
        </CharString>
        <CharString name="lacute">
          -182 -43 -21 810 -20 220 -20 hstem
          70 -31 callgsubr
          78 814 rmoveto
          44 -31 115 88 -19 12 -58 43 -17 20 rlinecurve
          -124 -974 -84 callgsubr
          endchar
        </CharString>
        <CharString name="lcaron">
          -182 -43 -21 807 -20 23 -20 62 -20 hstemhm
          70 130 hintmask 10111000
          19 -28 -84 callgsubr
          226 665 rmoveto
          15 -19 12 -31 -32 vvcurveto
          -26 -8 -27 -19 -22 vhcurveto
          96 8 47 91 18 53 rrcurveto
          hintmask 11011000
          3 callgsubr
        </CharString>
        <CharString name="lcommaaccent">
          -182 -26 callgsubr
          1029 -20 62 -20 hstem
          70 -31 callgsubr
          19 -28 -84 callgsubr
          42 -135 -88 callgsubr
        </CharString>
        <CharString name="ldot">
          -40 -43 -21 810 -20 62 -20 hstem
          70 -31 callgsubr
          19 -28 -84 callgsubr
          230 333 rmoveto
          -74 callsubr
        </CharString>
        <CharString name="less">
          11 178 -21 388 -20 hstem
          43 287 rmoveto
          356 -130 rlineto
          102 vlineto
          -242 93 242 91 rlineto
          102 vlineto
          -356 -128 rlineto
          endchar
        </CharString>
        <CharString name="logicalnot">
          151 249 -21 158 104 18 -20 hstemhm
          hintmask 10100000
          46 508 16 callgsubr
          hintmask 11000000
          24 8 27 6 28 2 rrcurveto
          315 hlineto
          -31 -158 rlineto
          2 10 41 1 11 hhcurveto
          10 44 -1 -2 9 hvcurveto
          hintmask 10100000
          280 vlineto
          -15 -9 -15 -2 -15 -3 rrcurveto
          hintmask 11000000
          -3 -22 -22 -1 -23 hhcurveto
          -263 hlineto
          hintmask 10100000
          -61 callgsubr
        </CharString>
        <CharString name="lslash">
          -156 -43 -21 810 -20 62 -20 hstem
          81 -31 callgsubr
          30 -28 rmoveto
          -65 callsubr
          235 vlineto
          124 106 -38 52 -86 -74 rlineto
          165 -90 callsubr
          -249 vlineto
          -92 -78 38 -52 54 46 rlineto
          -180 -27 callgsubr
          endchar
        </CharString>
        <CharString name="m">
          306 11 callgsubr
          494 -20 hstem
          70 130 124 124 127 123 vstem
          555 -89 rmoveto
          38 40 62 49 52 19 rrcurveto
          -6 27 -3 25 118 vvcurveto
          138 4 41 10 36 vhcurveto
          -55 26 -26 22 -46 42 -42 -48 -38 -33 -49 -36 6 27 rcurveline
          -55 26 -26 22 -46 42 -44 -50 -39 -34 -52 -37 rrcurveto
          82 vlineto
          -85 callsubr
          222 vlineto
          111 48 13 -14 rlineto
          -265 vlineto
          -37 -11 -21 -16 -6 vhcurveto
          -15 178 -71 callsubr
          91 vlineto
          49 0 53 1 29 vhcurveto
          112 48 13 -14 rlineto
          -76 1 -76 -76 vvcurveto
          -29 -11 -117 -15 -53 vhcurveto
          endchar
        </CharString>
        <CharString name="macron">
          -106 644 14 callgsubr
          735 -44 callgsubr
        </CharString>
        <CharString name="macron.cap">
          -106 830 14 callgsubr
          921 -44 callgsubr
        </CharString>
        <CharString name="minus">
          60 308 -29 callsubr
          68 429 -64 callsubr
        </CharString>
        <CharString name="mu">
          110 -116 -21 622 -20 hstem
          94 -50 callsubr
          43 -57 callgsubr
        </CharString>
        <CharString name="multiply">
          2 198 -21 365 -20 hstem
          312 177 rmoveto
          97 98 -32 14 -31 25 -28 28 rlinecurve
          -18 17 18 18 28 28 31 25 32 14 rlinecurve
          -97 98 -13 -37 -28 -30 -27 -26 rlinecurve
          -17 -17 -17 18 -28 28 -25 31 -14 32 rlinecurve
          -98 -97 37 -13 30 -28 26 -27 rlinecurve
          16 -17 -16 -16 -26 -27 -30 -28 -37 -13 rlinecurve
          98 -97 14 32 25 31 28 28 rlinecurve
          17 17 17 -16 27 -26 28 -30 13 -37 rlinecurve
          endchar
        </CharString>
        <CharString name="n">
          69 11 callgsubr
          494 1 callsubr
          -101 callsubr
          endchar
        </CharString>
        <CharString name="nacute">
          6 callgsubr
          778 1 callsubr
          -101 callsubr
          -17 245 rmoveto
          -37 callgsubr
        </CharString>
        <CharString name="napostrophe">
          6 callgsubr
          3 callsubr
          69 130 137 123 hintmask 11101100
          -101 callsubr
          -221 175 rmoveto
          25 -1 9 -3 28 -1 8 70 18 93 9 27 rrcurveto
          -1 -12 -26 -1 -26 hhcurveto
          hintmask 11011100
          -22 -23 1 2 -12 hvcurveto
          11 -52 9 -98 4 -36 rrcurveto
          endchar
        </CharString>
        <CharString name="ncaron">
          6 callgsubr
          778 1 callsubr
          -101 callsubr
          224 364 -86 callsubr
        </CharString>
        <CharString name="ncommaaccent">
          67 -26 callgsubr
          304 -21 494 1 callsubr
          -101 callsubr
          -4 -528 -88 callgsubr
        </CharString>
        <CharString name="ndotaccent">
          6 callgsubr
          752 1 callsubr
          -101 callsubr
          -18 278 rmoveto
          -74 callsubr
        </CharString>
        <CharString name="nine">
          62 11 -21 70 78 597 -20 hstem
          74 124 105 131 vstem
          286 735 rmoveto
          -36 -30 -100 -42 -92 -1 rrcurveto
          7 -49 9 -77 -78 vvcurveto
          -52 -4 -53 -11 -46 vhcurveto
          48 -16 40 -24 32 -37 122 76 rcurveline
          -34 -3 -83 -34 vvcurveto
          -17 1 -16 2 -17 vhcurveto
          23 -25 -33 10 -35 hhcurveto
          -62 -65 -33 -54 -29 hvcurveto
          60 -11 82 -22 44 -28 rrcurveto
          42 59 73 28 71 4 5 -1 5 hhcurveto
          -15 42 -6 184 82 vvcurveto
          168 23 94 6 42 vhcurveto
          -79 1 -51 33 -47 30 rrcurveto
          17 -141 rmoveto
          -190 vlineto
          -105 -68 rlineto
          248 vlineto
          6 4 43 18 9 23 rrcurveto
          endchar
        </CharString>
        <CharString name="notequal">
          87 -12 232 -103 103 97 103 -103 203 hstemhm
          hintmask 10100000
          81 438 16 callgsubr
          -60 callgsubr
          62 hlineto
          -46 -97 rlineto
          -15 hlineto
          -61 callsubr
          -138 vlineto
          24 8 27 6 28 2 -22 -47 rcurveline
          -24 -51 -27 -24 -10 -6 rrcurveto
          114 hlineto
          17 10 28 17 36 vhcurveto
          hintmask 01100000
          22 48 rlineto
          106 hlineto
          -17 callgsubr
          -56 hlineto
          45 97 rlineto
          12 13 callsubr
          138 vlineto
          -23 -12 -26 -4 -26 -2 9 19 rcurveline
          hintmask 10010000
          24 51 28 24 10 6 rrcurveto
          -114 hlineto
          -17 -10 -28 -17 -36 vhcurveto
          hintmask 10100000
          -9 -19 rlineto
          -110 hlineto
          -61 callgsubr
        </CharString>
        <CharString name="ntilde">
          6 callgsubr
          762 1 callsubr
          -101 callsubr
          -94 319 rmoveto
          -116 vlineto
          -81 callgsubr
        </CharString>
        <CharString name="numbersign">
          248 21 -21 238 93 117 93 192 -20 hstem
          41 349 rmoveto
          -128 vlineto
          32 11 37 5 39 1 -33 -127 rcurveline
          -20 -77 -30 -26 -15 -8 rrcurveto
          144 hlineto
          -1 3 -1 4 5 vvcurveto
          30 13 57 3 13 vhcurveto
          33 126 rlineto
          117 hlineto
          -33 -127 -19 -74 -31 -29 -15 -8 rlinecurve
          144 hlineto
          -1 3 -1 4 5 vvcurveto
          30 13 58 3 12 vhcurveto
          33 126 rlineto
          54 13 callsubr
          128 -11 callsubr
          -29 hlineto
          31 117 rlineto
          48 13 callsubr
          128 -11 callsubr
          -22 hlineto
          21 81 18 68 33 35 -10 callsubr
          -117 hlineto
          21 81 20 78 31 25 -10 callsubr
          -26 hlineto
          -61 callsubr
          -128 vlineto
          12 33 39 5 42 hhcurveto
          -30 -117 rlineto
          -20 hlineto
          -61 callsubr
          256 99 rmoveto
          117 hlineto
          -30 -117 rlineto
          -118 hlineto
          endchar
        </CharString>
        <CharString name="o">
          58 -7 -21 512 -20 hstem
          -38 callgsubr
          vstem
          -103 callsubr
          endchar
        </CharString>
        <CharString name="oacute">
          58 -7 -21 806 -20 hstem
          -38 callgsubr
          vstem
          -103 callsubr
          -155 260 rmoveto
          -37 callgsubr
        </CharString>
        <CharString name="obreve">
          58 -7 -21 611 65 86 -20 hstem
          -38 callgsubr
          vstem
          -103 callsubr
          68 344 -73 callgsubr
        </CharString>
        <CharString name="ocircumflex">
          58 -7 -21 806 -20 hstem
          -38 callgsubr
          vstem
          -103 callsubr
          77 260 -94 callgsubr
        </CharString>
        <CharString name="odieresis">
          58 -7 -21 780 -20 hstem
          -38 callgsubr
          vstem
          -103 callsubr
          -282 293 rmoveto
          -107 callsubr
          230 hmoveto
          -74 callsubr
        </CharString>
        <CharString name="odotbelow">
          58 -250 -21 755 -20 hstem
          -38 callgsubr
          vstem
          -103 callsubr
          -165 -552 rmoveto
          -74 callsubr
        </CharString>
        <CharString name="oe">
          282 -23 callgsubr
          9 -20 32 -20 hstemhm
          57 129 147 123 hintmask 11011100
          214 -1 callgsubr
          -75 -9 -49 -18 -16 vhcurveto
          1 6 8 1 8 hhcurveto
          57 127 -31 -23 30 hvcurveto
          21 22 20 19 21 18 54 -7 85 -24 43 -32 37 27 97 26 50 6 rrcurveto
          -9 25 -3 22 45 vvcurveto
          15 0 15 1 16 vhcurveto
          -63 -18 -21 -29 -7 -42 -37 3 -77 11 -31 12 3 28 5 39 1 39 78 13 88 13 81 6 rrcurveto
          -16 42 -10 80 56 vvcurveto
          18 1 15 2 12 vhcurveto
          -77 2 -110 5 -54 11 rrcurveto
          hintmask 10101100
          -7 -39 -33 -2 -29 hhcurveto
          hintmask 11011100
          -52 -39 7 5 -33 hvcurveto
          119 -254 rmoveto
          -45 -4 -63 -10 -45 vhcurveto
          -45 12 -52 9 -41 5 rrcurveto
          3 47 2 51 39 vvcurveto
          49 -3 47 -6 56 vhcurveto
          28 -15 61 -14 58 -5 rrcurveto
          5 -31 4 -43 -54 vvcurveto
          229 147 rmoveto
          -31 5 -29 7 -27 vhcurveto
          -117 -29 rlineto
          1 11 0 11 12 vvcurveto
          29 -4 36 -5 34 vhcurveto
          -10 37 45 -7 31 hhcurveto
          endchar
        </CharString>
        <CharString name="ogonek">
          -204 -212 -21 32 230 hstem
          193 29 rmoveto
          -75 hlineto
          -103 -89 35 -138 -87 callsubr
          rlineto
          endchar
        </CharString>
        <CharString name="ograve">
          58 -7 -21 806 -20 hstem
          -38 callgsubr
          vstem
          -103 callsubr
          -2 260 -70 callgsubr
        </CharString>
        <CharString name="ohungarumlaut">
          58 -7 -21 806 -20 hstem
          -38 callgsubr
          vstem
          -103 callsubr
          -233 260 -58 callgsubr
        </CharString>
        <CharString name="omacron">
          58 -7 -21 672 73 18 -20 hstemhm
          -38 callgsubr
          hintmask 10111000
          -103 callsubr
          -236 378 rmoveto
          -67 callsubr
          hintmask 11011000
          -68 callgsubr
          hintmask 10111000
          -42 callsubr
          hintmask 11011000
          -46 callgsubr
          hintmask 10111000
          -61 callgsubr
        </CharString>
        <CharString name="one">
          -36 19 -21 738 -20 hstem
          171 137 vstem
          308 172 rmoveto
          492 vlineto
          -39 9 -77 8 -48 55 -26 -67 -48 -79 -70 -22 rrcurveto
          -11 21 24 -6 24 hhcurveto
          44 43 19 35 15 hvcurveto
          -549 vlineto
          32 -15 35 -32 -7 callgsubr
          endchar
        </CharString>
        <CharString name="onehalf">
          322 21 -21 39 83 344 -20 342 -20 hstem
          109 95 408 97 vstem
          177 111 -88 callsubr
          16 -676 rmoveto
          -79 callsubr
          -49 callsubr
          -244 501 -78 callsubr
          endchar
        </CharString>
        <CharString name="oneinferior">
          -171 21 -21 392 -20 hstem
          105 95 vstem
          200 105 -78 callsubr
          endchar
        </CharString>
        <CharString name="onequarter">
          325 21 -21 117 57 292 -20 342 -20 hstemhm
          109 95 247 248 -90 90 hintmask 11111100
          604 34 -80 callgsubr
          hintmask 11111010
          -31 callsubr
          -432 -196 -88 callsubr
          -228 -175 -78 callsubr
          endchar
        </CharString>
        <CharString name="onesuperior">
          -190 417 -21 70 -20 342 -20 hstem
          97 95 vstem
          192 501 -78 callsubr
          endchar
        </CharString>
        <CharString name="onethird">
          336 21 -21 466 -20 342 -20 hstem
          108 95 vstem
          204 111 -88 callsubr
          -256 -175 -78 callsubr
          366 -500 -95 callgsubr
          endchar
        </CharString>
        <CharString name="oogonek">
          58 -210 -21 715 -20 hstem
          -38 callgsubr
          vstem
          214 -1 callgsubr
          -75 -9 -49 -18 -16 vhcurveto
          1 6 8 1 8 hhcurveto
          37 68 -14 -15 50 hvcurveto
          -63 -55 35 -138 -87 callsubr
          103 104 85 45 64 8 rlinecurve
          -12 68 -6 69 73 vvcurveto
          58 4 52 8 43 vhcurveto
          -2 -14 -13 -1 -29 hhcurveto
          -52 -56 9 30 -92 hvcurveto
          118 -410 rmoveto
          -47 14 -59 10 -45 5 rrcurveto
          3 47 2 51 39 vvcurveto
          9 callgsubr
          endchar
        </CharString>
        <CharString name="ordfeminine">
          -71 390 -21 33 159 70 66 30 -20 hstem
          57 93 73 90 vstem
          151 525 rmoveto
          18 2 27 7 27 10 rrcurveto
          -98 vlineto
          -33 7 -19 0 -21 1 rrcurveto
          180 223 rmoveto
          -46 -31 17 33 -31 hvcurveto
          -15 -27 -51 -15 -66 -11 1 1 -6 hhcurveto
          -56 13 23 -11 31 hhcurveto
          23 38 10 14 32 hvcurveto
          -69 vlineto
          -15 -28 -60 -10 -53 hhcurveto
          -12 -11 0 2 -10 hvcurveto
          6 -16 3 -21 -22 vvcurveto
          -37 -1 -40 -9 -25 vhcurveto
          54 41 -12 -21 36 hvcurveto
          48 58 9 -22 17 -24 20 -12 rlinecurve
          10 22 38 41 25 10 rrcurveto
          7 vlineto
          -24 6 -8 13 89 vvcurveto
          69 3 29 14 22 vhcurveto
          endchar
        </CharString>
        <CharString name="ordmasculine">
          -54 390 -21 358 -20 hstem
          62 90 103 87 vstem
          172 727 rmoveto
          -42 -41 -48 -30 -36 -7 rrcurveto
          7 -9 9 -82 -55 vvcurveto
          -52 -7 -35 -12 -11 vhcurveto
          1 4 6 1 5 hhcurveto
          40 89 -22 -16 21 hvcurveto
          39 40 62 33 46 6 rrcurveto
          -8 47 -5 49 51 vvcurveto
          40 3 37 6 30 vhcurveto
          -2 -10 -9 0 -20 hhcurveto
          -37 -39 6 21 -64 hvcurveto
          82 -287 rmoveto
          -33 10 -41 7 -31 3 rrcurveto
          2 33 1 36 27 vvcurveto
          35 -2 33 -4 39 vhcurveto
          21 -11 47 -10 42 -4 rrcurveto
          endchar
        </CharString>
        <CharString name="oslash">
          146 -7 -21 39 -21 494 -20 hstemhm
          95 129 146 126 hintmask 01111000
          252 -59 callgsubr
          146 -166 1 callgsubr
        </CharString>
        <CharString name="oslashacute">
          136 -7 -21 39 -21 788 -20 hstemhm
          85 129 146 126 hintmask 01111000
          242 -59 callgsubr
          -13 377 rmoveto
          -96 callsubr
          159 -543 1 callgsubr
        </CharString>
        <CharString name="otilde">
          58 -7 -21 473 201 116 -20 hstem
          -38 callgsubr
          vstem
          -103 callsubr
          -241 334 rmoveto
          -116 vlineto
          -81 callgsubr
        </CharString>
        <CharString name="p">
          82 -26 callgsubr
          772 -20 hstem
          69 130 149 134 vstem
          69 196 rmoveto
          -323 -41 callgsubr
          -67 -15 -81 -32 -46 -33 -13 31 -24 34 -28 18 -15 -32 -54 -58 -36 -14 rrcurveto
          -11 vlineto
          35 -10 10 -21 -147 vvcurveto
          213 -126 -30 callgsubr
        </CharString>
        <CharString name="paragraph">
          205 -148 -21 768 110 22 -20 hstem
          274 89 82 80 vstem
          256 -169 rmoveto
          124 -38 callsubr
          656 82 -655 vlineto
          -37 0 -41 -16 -35 vhcurveto
          113 -38 callsubr
          658 vlineto
          68 22 26 32 11 73 rrcurveto
          -15 -76 -34 -4 -107 hhcurveto
          -157 -131 11 11 -98 hvcurveto
          11 -54 4 -53 -55 vvcurveto
          -65 -6 -69 -8 -75 vhcurveto
          44 -38 22 -9 47 -52 rrcurveto
          11 43 37 0 53 hhcurveto
          -328 7 callsubr
        </CharString>
        <CharString name="parenleft">
          -20 -81 -21 890 -20 hstem
          38 149 vstem
          38 338 rmoveto
          -148 55 -153 126 -79 vhcurveto
          -11 -7 -24 -23 -24 -7 rrcurveto
          -17 70 49 -6 57 hhcurveto
          33 35 2 3 43 hvcurveto
          -200 38 -60 198 199 vvcurveto
          199 60 204 200 38 vhcurveto
          6 -42 -34 3 -32 hhcurveto
          -58 -50 -10 -17 -71 hvcurveto
          24 -7 24 -23 11 -7 rrcurveto
          -116 -67 -65 -166 -153 vvcurveto
          endchar
        </CharString>
        <CharString name="parenright">
          -20 -81 -21 890 -20 hstem
          246 149 vstem
          395 338 rmoveto
          153 -65 166 -116 67 vhcurveto
          11 7 24 23 24 7 rrcurveto
          17 -71 -50 10 -58 hhcurveto
          -32 -34 -3 -6 -42 hvcurveto
          200 -38 60 -204 -199 vvcurveto
          -199 -60 -198 -200 -38 vhcurveto
          -3 43 35 -2 33 hhcurveto
          57 49 6 17 70 hvcurveto
          -24 7 -24 23 -11 7 rrcurveto
          126 79 55 153 148 vvcurveto
          endchar
        </CharString>
        <CharString name="percent">
          341 -1 callsubr
          hintmask 11011110
          211 111 -88 callsubr
          8 -329 -84 callsubr
          -618 434 rmoveto
          -25 2 -59 -45 vvcurveto
          -63 -3 -64 -7 -16 vhcurveto
          22 -7 110 -43 26 -25 15 17 57 40 58 13 rrcurveto
          282 vlineto
          hintmask 10111110
          -39 4 -41 7 -33 28 -45 -28 -84 -14 -38 -2 rrcurveto
          181 -271 rmoveto
          -17 13 -67 24 -3 1 rrcurveto
          2 36 1 38 36 vvcurveto
          51 -1 44 -1 23 vhcurveto
          -17 24 45 -13 19 hhcurveto
          endchar
        </CharString>
        <CharString name="period">
          -212 -33 11 callsubr
          27 22 rmoveto
          -74 callsubr
        </CharString>
        <CharString name="periodcentered">
          -198 257 11 callsubr
          34 312 rmoveto
          -74 callsubr
        </CharString>
        <CharString name="perthousand">
          688 -1 callsubr
          72 95 85 98 hintmask 1101111110000000
          211 111 -88 callsubr
          8 -329 -84 callsubr
          -618 434 rmoveto
          -25 2 -59 -45 vvcurveto
          -63 -3 -64 -7 -16 vhcurveto
          22 -7 110 -43 26 -25 15 17 57 40 58 13 rrcurveto
          282 vlineto
          hintmask 1011111110000000
          -39 4 -41 7 -33 28 -45 -28 -84 -14 -38 -2 rrcurveto
          181 -271 rmoveto
          -17 13 -67 24 -3 1 rrcurveto
          2 36 1 38 36 vvcurveto
          51 -1 44 -1 23 vhcurveto
          -17 24 45 -13 19 hhcurveto
          602 -364 -84 callsubr
          endchar
        </CharString>
        <CharString name="plus">
          23 171 4 callsubr
          hstemhm
          49 4 callsubr
          hintmask 01010000
          49 429 16 callgsubr
          -60 callgsubr
          hintmask 01001000
          25 -24 hlineto
          hintmask 10010000
          -34 callsubr
          138 -38 callsubr
          hintmask 01010000
          25 25 vlineto
          hintmask 10000100
          -17 callgsubr
          hintmask 10010000
          -24 25 hlineto
          hintmask 00101000
          -39 callgsubr
          hintmask 10001000
          -24 -24 vlineto
          hintmask 10010000
          -61 callgsubr
        </CharString>
        <CharString name="plusminus">
          62 110 103 -99 -21 188 4 callsubr
          hstemhm
          69 4 callsubr
          hintmask 10010100
          69 539 16 callgsubr
          -60 callgsubr
          hintmask 10010010
          25 -24 hlineto
          hintmask 10100100
          -34 callsubr
          138 -38 callsubr
          hintmask 10010100
          25 25 vlineto
          hintmask 10100001
          -17 callgsubr
          hintmask 10100100
          -24 25 hlineto
          hintmask 10001010
          -39 callgsubr
          hintmask 10100001
          -24 -24 vlineto
          hintmask 01100100
          -61 callsubr
          -308 vmoveto
          -138 vlineto
          hintmask 10100100
          -60 callgsubr
          153 hlineto
          hintmask 01100001
          -63 callsubr
          138 vlineto
          hintmask 10100100
          -20 callgsubr
        </CharString>
        <CharString name="q">
          80 -26 callgsubr
          769 -20 hstem
          53 134 150 -31 callgsubr
          243 387 rmoveto
          29 -9 49 -10 25 -1 rrcurveto
          -8 -37 -1 -65 -73 vvcurveto
          -60 vlineto
          -29 -19 -72 -23 -54 -2 rrcurveto
          3 36 2 44 43 vvcurveto
          45 0 57 -3 29 vhcurveto
          18 9 27 22 14 14 rrcurveto
          224 -190 rmoveto
          148 6 80 24 44 vhcurveto
          -11 -28 -41 -5 -29 hhcurveto
          -43 -56 15 18 -60 hvcurveto
          -61 -42 -85 -33 -58 -10 rrcurveto
          12 -25 5 -55 -127 vvcurveto
          -51 0 -49 -15 -55 vhcurveto
          39 -11 38 -22 32 -35 67 15 77 36 46 33 rrcurveto
          -182 vlineto
          -69 -8 -55 -27 -32 vhcurveto
          27 56 48 15 44 hhcurveto
          16 16 -2 -5 15 hvcurveto
          -25 45 -5 36 67 vvcurveto
          endchar
        </CharString>
        <CharString name="question">
          51 -33 -21 683 95 64 -20 hstem
          150 367 rmoveto
          10 -28 6 -30 -51 vvcurveto
          -23 -6 -23 -10 -21 vhcurveto
          160 hlineto
          -11 31 -6 66 37 vvcurveto
          155 102 rlineto
          40 1 243 9 14 vhcurveto
          -79 1 -121 33 -47 30 rrcurveto
          -39 -33 -37 -20 -44 hhcurveto
          -23 -24 5 11 -27 hvcurveto
          -77 32 55 -39 54 hhcurveto
          33 82 14 28 28 hvcurveto
          -2 -8 0 -132 -1 -72 rrcurveto
          -171 -437 rmoveto
          -74 callsubr
        </CharString>
        <CharString name="questiondown">
          48 -26 callgsubr
          64 95 683 -20 hstem
          351 138 rmoveto
          -10 28 -6 30 51 vvcurveto
          23 6 23 10 21 vhcurveto
          -160 hlineto
          11 -31 6 -66 -37 vvcurveto
          -155 -102 rlineto
          -40 -1 -243 -9 -14 vhcurveto
          79 -1 121 -33 47 -30 rrcurveto
          39 33 37 20 44 hhcurveto
          23 24 -5 -11 27 hvcurveto
          77 -32 -55 39 -54 hhcurveto
          -33 -82 -14 -28 -28 hvcurveto
          2 8 0 132 1 72 rrcurveto
          171 437 rmoveto
          -20 16 -56 40 -16 20 -22 -45 -31 -26 -45 -32 19 -12 58 -43 17 -20 40 21 33 42 23 39 rrcurveto
          endchar
        </CharString>
        <CharString name="quotedbl">
          -99 3 callsubr
          hintmask 10000000
          63 547 rmoveto
          -55 callgsubr
          160 hmoveto
          hintmask 10000000
          -55 callgsubr
          endchar
        </CharString>
        <CharString name="quotedblbase">
          -10 -91 6 callsubr
          35 45 -22 callsubr
          210 hmoveto
          -71 callgsubr
          endchar
        </CharString>
        <CharString name="quotedblleft">
          -25 508 6 callsubr
          192 586 rmoveto
          -44 callsubr
          200 hmoveto
          -44 callsubr
          endchar
        </CharString>
        <CharString name="quotedblright">
          -18 508 6 callsubr
          47 644 -22 callsubr
          200 hmoveto
          -71 callgsubr
          endchar
        </CharString>
        <CharString name="quoteleft">
          -225 508 6 callsubr
          192 586 rmoveto
          -44 callsubr
          endchar
        </CharString>
        <CharString name="quoteright">
          -218 508 6 callsubr
          47 644 -22 callsubr
          endchar
        </CharString>
        <CharString name="quotesinglbase">
          -220 -91 6 callsubr
          35 45 -22 callsubr
          endchar
        </CharString>
        <CharString name="quotesingle">
          -259 3 callsubr
          hintmask 10000000
          63 547 rmoveto
          -55 callgsubr
          endchar
        </CharString>
        <CharString name="r">
          -38 21 -21 486 -85 callgsubr
          endchar
        </CharString>
        <CharString name="racute">
          -38 21 -21 778 -85 callgsubr
          -60 296 rmoveto
          -37 callgsubr
        </CharString>
        <CharString name="rcaron">
          -38 21 -21 778 -85 callgsubr
          181 415 -86 callsubr
        </CharString>
        <CharString name="rcommaaccent">
          -38 -26 callgsubr
          196 87 486 -85 callgsubr
          -139 -477 -88 callgsubr
        </CharString>
        <CharString name="rdotbelow">
          -38 -252 -21 294 -21 486 -85 callgsubr
          -155 -518 rmoveto
          -74 callsubr
        </CharString>
        <CharString name="registered">
          38 385 46 47 -20 284 46 hstem
          42 48 67 60 56 61 68 47 vstem
          244 788 rmoveto
          -139 -63 -102 -101 -100 63 -100 148 133 63 101 102 101 -61 99 -144 hvcurveto
          -46 vmoveto
          107 51 -78 -76 -77 -52 -80 -103 -107 -50 89 65 77 50 80 104 hvcurveto
          95 -264 rmoveto
          -3 11 -2 28 30 vvcurveto
          13 0 17 2 3 vhcurveto
          -10 8 -11 9 -7 9 13 6 9 5 3 2 rrcurveto
          -3 8 -3 25 12 vvcurveto
          2 0 4 1 2 vhcurveto
          6 4 4 9 11 vvcurveto
          -46 -23 9 9 -12 hvcurveto
          -17 -8 -63 -19 -32 -2 rrcurveto
          7 -10 5 -47 -41 vvcurveto
          -31 -3 -40 -9 -14 vhcurveto
          81 -23 -3 20 -3 40 -2 27 rlinecurve
          10 6 12 5 15 9 17 -17 rcurveline
          -20 1 -30 -18 vvcurveto
          -15 -1 -12 -3 -13 vhcurveto
          8 14 30 9 26 hhcurveto
          -73 153 rmoveto
          -49 -23 rlineto
          68 vlineto
          -4 18 13 -6 18 hhcurveto
          endchar
        </CharString>
        <CharString name="ring">
          -215 575 57 95 57 hstem
          10 59 99 60 vstem
          119 784 rmoveto
          -72 -37 -53 -52 -52 37 -52 76 -49 callgsubr
          endchar
        </CharString>
        <CharString name="ring.cap">
          -267 787 59 -59 159 hstemhm
          10 166 hintmask 01100000
          93 946 -36 callsubr
          hintmask 10100000
          -25 callsubr
          endchar
        </CharString>
        <CharString name="s">
          7 -9 -21 391 82 41 -20 hstem
          70 117 89 -31 callgsubr
          190 403 rmoveto
          -23 38 65 -19 40 hhcurveto
          45 29 25 57 24 hvcurveto
          -85 6 -63 14 -40 21 -89 -38 -51 -15 -52 -1 rrcurveto
          13 -38 6 -44 -60 vvcurveto
          -25 -1 -27 -5 -57 vhcurveto
          68 18 85 16 58 5 rrcurveto
          1 -9 0 -8 -24 vvcurveto
          -38 -4 -34 -8 -42 vhcurveto
          48 -108 -63 22 -31 hhcurveto
          -21 -27 -16 -48 -2 -41 99 -5 42 -12 31 -30 rrcurveto
          31 45 93 23 82 hhcurveto
          -6 31 -3 63 75 vvcurveto
          -66 callsubr
          endchar
        </CharString>
        <CharString name="sacute">
          7 -9 -21 391 82 335 -20 hstem
          70 117 89 -31 callgsubr
          190 403 rmoveto
          -23 38 65 -19 40 hhcurveto
          45 29 25 57 24 hvcurveto
          -85 6 -63 14 -40 21 -89 -38 -51 -15 -52 -1 rrcurveto
          13 -38 6 -44 -60 vvcurveto
          -25 -1 -27 -5 -57 vhcurveto
          68 18 85 16 58 5 rrcurveto
          1 -9 0 -8 -24 vvcurveto
          -38 -4 -34 -8 -42 vhcurveto
          48 -108 -63 22 -31 hhcurveto
          -21 -27 -16 -48 -2 -41 99 -5 42 -12 31 -30 rrcurveto
          31 45 93 23 82 hhcurveto
          -6 31 -3 63 75 vvcurveto
          -66 callsubr
          -28 214 rmoveto
          -37 callgsubr
        </CharString>
        <CharString name="scaron">
          7 -9 -21 391 82 335 -20 hstem
          70 117 89 -31 callgsubr
          190 403 rmoveto
          -23 38 65 -19 40 hhcurveto
          45 29 25 57 24 hvcurveto
          -85 6 -63 14 -40 21 -89 -38 -51 -15 -52 -1 rrcurveto
          13 -38 6 -44 -60 vvcurveto
          -25 -1 -27 -5 -57 vhcurveto
          68 18 85 16 58 5 rrcurveto
          1 -9 0 -8 -24 vvcurveto
          -38 -4 -34 -8 -42 vhcurveto
          48 -108 -63 22 -31 hhcurveto
          -21 -27 -16 -48 -2 -41 99 -5 42 -12 31 -30 rrcurveto
          31 45 93 23 82 hhcurveto
          -6 31 -3 63 75 vvcurveto
          -66 callsubr
          213 333 -86 callsubr
        </CharString>
        <CharString name="schwa">
          13 -11 -21 224 64 228 -20 hstem
          284 123 vstem
          207 484 rmoveto
          -57 -38 -54 -17 -65 -26 1 -7 16 -49 9 -30 62 24 62 22 27 25 24 -12 22 -18 39 -8 -3 -28 -5 -29 -1 -39 rrcurveto
          1 -36 -39 1 -40 hhcurveto
          -44 -45 -1 -3 -43 hvcurveto
          16 -42 10 -120 -56 vvcurveto
          -18 -1 -15 -2 -12 vhcurveto
          77 -2 49 -8 54 -11 47 46 85 32 57 11 rrcurveto
          -9 30 -13 54 81 vvcurveto
          64 8 98 22 35 vhcurveto
          -47 1 -133 26 -50 38 rrcurveto
          87 -375 rmoveto
          -21 -3 -59 -27 -37 -22 rrcurveto
          31 -4 77 -7 27 vhcurveto
          117 hlineto
          1 -37 3 9 7 -55 rrcurveto
          endchar
        </CharString>
        <CharString name="scircumflex">
          7 -9 -21 391 82 335 -20 hstem
          70 117 89 -31 callgsubr
          190 403 rmoveto
          -23 38 65 -19 40 hhcurveto
          45 29 25 57 24 hvcurveto
          -85 6 -63 14 -40 21 -89 -38 -51 -15 -52 -1 rrcurveto
          13 -38 6 -44 -60 vvcurveto
          -25 -1 -27 -5 -57 vhcurveto
          68 18 85 16 58 5 rrcurveto
          1 -9 0 -8 -24 vvcurveto
          -38 -4 -34 -8 -42 vhcurveto
          48 -108 -63 22 -31 hhcurveto
          -21 -27 -16 -48 -2 -41 99 -5 42 -12 31 -30 rrcurveto
          31 45 93 23 82 hhcurveto
          -6 31 -3 63 75 vvcurveto
          -66 callsubr
          213 214 -94 callgsubr
        </CharString>
        <CharString name="sdotbelow">
          7 -252 -21 634 82 41 -20 hstem
          70 117 89 -31 callgsubr
          190 403 rmoveto
          -23 38 65 -19 40 hhcurveto
          45 29 25 57 24 hvcurveto
          -85 6 -63 14 -40 21 -89 -38 -51 -15 -52 -1 rrcurveto
          13 -38 6 -44 -60 vvcurveto
          -25 -1 -27 -5 -57 vhcurveto
          68 18 85 16 58 5 rrcurveto
          1 -9 0 -8 -24 vvcurveto
          -38 -4 -34 -8 -42 vhcurveto
          48 -108 -63 22 -31 hhcurveto
          -21 -27 -16 -48 -2 -41 99 -5 42 -12 31 -30 rrcurveto
          31 45 93 23 82 hhcurveto
          -6 31 -3 63 75 vvcurveto
          -66 callsubr
          -58 -600 rmoveto
          -74 callsubr
        </CharString>
        <CharString name="section">
          56 -189 -21 67 116 674 83 61 -20 hstemhm
          42 72 -24 24 33 83 34 86 37 26 -26 83 hintmask 1111101110000000
          237 710 rmoveto
          -32 22 35 -31 53 hhcurveto
          45 44 22 61 22 hvcurveto
          -85 6 -60 28 -43 27 -61 -34 -90 -14 -61 -6 rrcurveto
          -11 -34 -5 -32 -29 vvcurveto
          hintmask 1111011101000000
          -81 48 -142 -88 vvcurveto
          -19 -2 -16 -5 -13 vhcurveto
          78 -12 103 -231 -81 vvcurveto
          -23 0 -26 -13 -27 vhcurveto
          -44 60 -54 29 -64 1 -3 -42 -20 -47 -16 -27 75 -2 46 -35 31 -30 rrcurveto
          31 45 113 23 82 hhcurveto
          20 49 8 44 39 vvcurveto
          hintmask 1111101110000000
          81 -57 140 75 vvcurveto
          16 3 13 6 9 vhcurveto
          -108 66 -84 225 68 vvcurveto
          13 0 13 7 15 vhcurveto
          -85 8 rmoveto
          -2 -10 -3 -41 -10 -159 240 -343 -189 vvcurveto
          -25 -5 -39 -18 -28 vhcurveto
          -35 -8 rlineto
          12 21 9 55 23 135 -236 388 145 vvcurveto
          20 2 41 8 19 vhcurveto
          endchar
        </CharString>
        <CharString name="semicolon">
          -186 -131 -21 607 -20 hstem
          39 353 rmoveto
          -107 callsubr
          18 -308 -26 callsubr
        </CharString>
        <CharString name="seven">
          58 19 -21 570 126 41 -20 hstem
          115 145 vstem
          330 199 rmoveto
          -9 -18 -9 -13 -11 hhcurveto
          -18 -14 27 21 119 92 106 141 186 hvcurveto
          -2 9 -2 10 11 vvcurveto
          19 4 22 8 23 vhcurveto
          -22 -66 -79 -14 -77 hhcurveto
          -74 -73 13 28 -59 hvcurveto
          -8 -97 -13 -42 -40 -71 rrcurveto
          -3 11 9 -1 8 hhcurveto
          36 23 36 28 11 hvcurveto
          -12 37 33 -5 32 hhcurveto
          45 41 9 11 44 hvcurveto
          -73 -74 -154 -165 -145 vvcurveto
          -89 83 -78 82 -39 vhcurveto
          12 77 58 66 44 4 -27 10 -23 18 -14 26 rrcurveto
          endchar
        </CharString>
        <CharString name="six">
          64 11 -21 597 78 70 -20 hstem
          82 131 105 124 vstem
          230 -10 rmoveto
          36 30 100 42 92 1 rrcurveto
          -7 49 -9 77 78 vvcurveto
          52 4 53 11 46 vhcurveto
          -48 16 -40 24 -32 37 -122 -76 rcurveline
          34 3 83 34 vvcurveto
          17 -1 16 -2 17 vhcurveto
          -23 25 33 -10 35 hhcurveto
          62 65 33 54 29 hvcurveto
          -60 11 -82 22 -44 28 rrcurveto
          -42 -59 -73 -28 -71 -4 -5 1 -5 hhcurveto
          15 -42 6 -184 -82 vvcurveto
          -168 -23 -94 -6 -42 vhcurveto
          79 -1 51 -33 47 -30 rrcurveto
          -17 141 rmoveto
          190 vlineto
          105 68 rlineto
          -248 vlineto
          -6 -4 -43 -18 -9 -23 rrcurveto
          endchar
        </CharString>
        <CharString name="slash">
          139 21 -21 733 -20 hstem
          18 hmoveto
          154 hlineto
          24 13 38 27 50 vhcurveto
          273 510 37 69 39 34 15 8 rlinecurve
          -154 hlineto
          -24 -13 -38 -27 -50 vhcurveto
          -273 -510 -37 -69 -39 -34 -15 -8 rlinecurve
          endchar
        </CharString>
        <CharString name="space">
          -228 endchar
        </CharString>
        <CharString name="sterling">
          67 -44 -21 440 208 150 -20 hstem
          122 -31 callgsubr
          62 61 rmoveto
          -126 vlineto
          18 34 51 36 63 1 143 -71 rcurveline
          37 23 46 32 63 hhcurveto
          128 vlineto
          -36 -26 -88 -33 -37 hhcurveto
          -8 hlineto
          -43 12 -15 23 85 vvcurveto
          122 vlineto
          95 -13 9 28 18 31 19 20 rlinecurve
          4 -141 60 vlineto
          121 -3 37 -10 36 -21 callsubr
          0 -26 -119 vvcurveto
          -80 vlineto
          -27 -24 -29 -18 -27 -10 rrcurveto
          -11 83 -113 vlineto
          -107 -20 -21 -40 -10 vhcurveto
          endchar
        </CharString>
        <CharString name="t">
          -105 -7 -21 420 211 56 -20 hstem
          89 -31 callgsubr
          314 372 rmoveto
          -2 callgsubr
          rrcurveto
          4 -141 53 vlineto
          25 7 100 10 26 vhcurveto
          -57 -30 -49 -22 -58 -4 rrcurveto
          10 -14 7 -79 -23 vvcurveto
          -32 vlineto
          -27 -24 -29 -18 -27 -10 rrcurveto
          -11 83 -372 vlineto
          21 -10 36 -20 30 -18 25 22 63 34 44 15 rrcurveto
          14 vlineto
          -51 3 -38 34 69 vvcurveto
          221 vlineto
          endchar
        </CharString>
        <CharString name="tbar">
          -91 -7 -21 85 147 63 125 0 211 56 -20 hstemhm
          20 209 -130 130 -130 240 hintmask 11011100
          324 372 rmoveto
          -2 callgsubr
          rrcurveto
          4 -141 53 vlineto
          25 7 100 10 26 vhcurveto
          -57 -30 -49 -22 -58 -4 rrcurveto
          hintmask 11101010
          10 -14 7 -79 -23 vvcurveto
          -32 vlineto
          -27 -24 -29 -18 -27 -10 rrcurveto
          -11 83 -125 vlineto
          -28 1 -30 4 -25 13 rrcurveto
          hintmask 11101100
          2 -18 2 -16 -15 vvcurveto
          -16 -2 -15 -2 -18 vhcurveto
          hintmask 11101010
          25 9 28 5 30 2 rrcurveto
          -183 vlineto
          21 -10 36 -20 30 -18 25 22 63 34 44 15 rrcurveto
          14 vlineto
          -51 3 -38 34 69 vvcurveto
          41 vlineto
          42 39 -5 -12 33 hvcurveto
          hintmask 11101001
          -3 18 -1 15 16 vvcurveto
          15 1 16 3 18 vhcurveto
          hintmask 11101100
          -17 -35 -41 -1 -38 hhcurveto
          117 vlineto
          endchar
        </CharString>
        <CharString name="tcaron">
          -105 -7 -21 420 211 140 -20 hstem
          89 -31 callgsubr
          314 372 rmoveto
          -2 callgsubr
          rrcurveto
          4 -141 53 vlineto
          25 7 100 10 26 vhcurveto
          -57 -30 -49 -22 -58 -4 rrcurveto
          10 -14 7 -79 -23 vvcurveto
          -32 vlineto
          -27 -24 -29 -18 -27 -10 rrcurveto
          -11 83 -372 vlineto
          21 -10 36 -20 30 -18 25 22 63 34 44 15 rrcurveto
          14 vlineto
          -51 3 -38 34 69 vvcurveto
          221 vlineto
          54 260 -22 callsubr
          endchar
        </CharString>
        <CharString name="tdotbelow">
          -105 -252 -21 665 211 56 -20 hstem
          89 -31 callgsubr
          314 372 rmoveto
          -2 callgsubr
          rrcurveto
          4 -141 53 vlineto
          25 7 100 10 26 vhcurveto
          -57 -30 -49 -22 -58 -4 rrcurveto
          10 -14 7 -79 -23 vvcurveto
          -32 vlineto
          -27 -24 -29 -18 -27 -10 rrcurveto
          -11 83 -372 vlineto
          21 -10 36 -20 30 -18 25 22 63 34 44 15 rrcurveto
          14 vlineto
          -51 3 -38 34 69 vvcurveto
          221 vlineto
          -136 -581 rmoveto
          -74 callsubr
        </CharString>
        <CharString name="thorn">
          79 -26 callgsubr
          1029 -20 62 -20 hstem
          66 130 149 134 vstem
          66 605 rmoveto
          -732 -41 callgsubr
          -65 -15 -78 -30 -46 -32 rrcurveto
          223 -90 callsubr
          213 -535 -30 callgsubr
        </CharString>
        <CharString name="three">
          51 11 -21 597 78 70 -20 hstem
          287 135 vstem
          175 -10 rmoveto
          47 30 151 33 79 1 rrcurveto
          -9 14 -15 241 40 vvcurveto
          8 -70 19 -57 31 vhcurveto
          49 18 19 10 53 17 rrcurveto
          71 7 96 15 47 vhcurveto
          -5 -5 -1 -4 hhcurveto
          -71 -73 28 42 -59 hvcurveto
          -44 -28 -82 -22 -60 -11 rrcurveto
          -54 29 65 -33 62 hhcurveto
          35 33 10 23 25 hvcurveto
          -2 -17 -1 -16 -17 -34 3 -33 -34 vvcurveto
          -95 -39 -40 26 -41 -46 41 -53 40 23 101 -59 1 -12 1 -182 2 -10 rlinecurve
          -89 -21 rlineto
          71 -38 -49 21 -48 hhcurveto
          -8 -8 -1 -1 -8 hvcurveto
          3 -14 2 -16 -20 vvcurveto
          -21 -2 -24 -8 -28 vhcurveto
          42 -8 66 -43 20 -22 rrcurveto
          endchar
        </CharString>
        <CharString name="threeinferior">
          -100 22 -21 118 192 71 -20 hstem
          126 1 -95 callgsubr
          endchar
        </CharString>
        <CharString name="threequarters">
          328 21 -21 117 57 614 -20 21 -20 hstemhm
          618 90 hintmask 11011000
          113 408 -95 callgsubr
          500 -374 -80 callgsubr
          -31 callsubr
          -410 -196 rmoveto
          -32 -72 -26 -31 -15 -8 rrcurveto
          154 hlineto
          -1 3 -1 4 5 vvcurveto
          30 20 60 4 10 vhcurveto
          255 565 rlineto
          hintmask 11101000
          32 72 26 31 15 8 rrcurveto
          -154 hlineto
          1 -3 1 -4 -5 vvcurveto
          -30 -20 -60 -4 -10 vhcurveto
          endchar
        </CharString>
        <CharString name="threesuperior">
          -110 429 -21 118 192 71 -20 hstem
          120 408 -95 callgsubr
          endchar
        </CharString>
        <CharString name="tilde">
          -76 596 -21 187 -20 hstem
          20 691 rmoveto
          -116 vlineto
          -81 callgsubr
        </CharString>
        <CharString name="tilde.cap">
          -76 805 -21 44 71 45 -20 hstem
          20 900 -80 callsubr
        </CharString>
        <CharString name="trademark">
          311 382 -21 274 69 33 -20 hstem
          141 79 153 72 159 77 vstem
          101 733 rmoveto
          -13 -26 -19 -26 -22 -17 35 -4 29 -6 30 -8 rrcurveto
          -105 vlineto
          -36 0 -67 -16 -24 vhcurveto
          21 -5 15 -10 20 -36 21 33 21 10 15 7 rrcurveto
          1 1 1 1 hhcurveto
          -21 8 0 80 42 vvcurveto
          91 vlineto
          78 6 10 40 26 29 rrcurveto
          -4 -30 -26 -2 -23 hhcurveto
          -64 -16 14 15 -74 hvcurveto
          344 -169 rmoveto
          80 -154 79 156 rlineto
          -35 vlineto
          -53 -3 -62 -22 -15 vhcurveto
          21 -6 28 -17 13 -17 11 21 34 11 12 6 rrcurveto
          -17 15 0 46 42 vvcurveto
          114 vlineto
          33 3 47 33 41 vhcurveto
          -84 -3 -43 -28 -63 -179 -59 134 23 59 -156 12 rrcurveto
          28 -21 10 -35 -38 vvcurveto
          -123 vlineto
          -75 -21 -31 -33 -48 vhcurveto
          49 4 24 23 13 21 14 -22 30 -19 40 -5 rrcurveto
          -32 38 -12 32 98 vvcurveto
          endchar
        </CharString>
        <CharString name="two">
          97 -12 -21 76 130 564 -20 hstem
          320 137 vstem
          66 -33 rmoveto
          57 73 65 19 53 hhcurveto
          64 40 -25 -24 37 hvcurveto
          129 167 rlineto
          3 -12 -10 1 -9 hhcurveto
          -38 -20 -21 -7 -9 hvcurveto
          12 -23 -45 24 -77 hhcurveto
          -36 -37 -9 -9 -30 hvcurveto
          41 111 64 90 200 36 rrcurveto
          -18 26 -11 58 31 vvcurveto
          74 vlineto
          23 4 22 6 11 vhcurveto
          -1 -3 -3 0 -4 hhcurveto
          -45 -118 45 56 -66 hvcurveto
          -36 -47 -110 -59 -52 -11 rrcurveto
          -26 23 45 -11 52 hhcurveto
          54 62 12 22 54 hvcurveto
          -149 vlineto
          -165 -67 -101 -179 -162 vvcurveto
          -32 4 -32 8 -29 vhcurveto
          endchar
        </CharString>
        <CharString name="twoinferior">
          -69 21 -21 39 83 0 167 103 -20 hstemhm
          219 97 hintmask 11011000
          55 hmoveto
          -79 callsubr
          hintmask 10111000
          -49 callsubr
          endchar
        </CharString>
        <CharString name="twosuperior">
          -68 417 -21 39 83 0 167 51 -20 72 -20 hstemhm
          223 97 hintmask 11011100
          59 396 rmoveto
          -79 callsubr
          hintmask 10111100
          -49 callsubr
          endchar
        </CharString>
        <CharString name="twothirds">
          336 21 -21 435 83 218 -20 72 -20 hstem
          213 103 vstem
          237 111 -88 callsubr
          -443 -280 rmoveto
          -79 callsubr
          -49 callsubr
          529 -395 -95 callgsubr
          endchar
        </CharString>
        <CharString name="u">
          77 -7 -21 513 -20 hstem
          68 -50 callsubr
          -103 callgsubr
          endchar
        </CharString>
        <CharString name="uacute">
          77 -7 -21 806 -20 hstem
          68 -50 callsubr
          -103 callgsubr
          151 174 rmoveto
          -37 callgsubr
        </CharString>
        <CharString name="ubreve">
          77 -7 -21 470 141 0 65 86 -20 hstemhm
          68 125 138 130 hintmask 11011100
          -103 callgsubr
          383 258 rmoveto
          -26 6 -20 8 -26 18 rrcurveto
          hintmask 10111100
          -56 -4 -34 -29 -33 hhcurveto
          -32 -31 28 58 -2 hvcurveto
          -26 -17 -13 -6 -33 -10 rrcurveto
          -81 16 61 -37 61 hhcurveto
          65 65 42 76 12 hvcurveto
          endchar
        </CharString>
        <CharString name="ucircumflex">
          77 -7 -21 806 -20 hstem
          68 -50 callsubr
          -103 callgsubr
          392 174 -94 callgsubr
        </CharString>
        <CharString name="udieresis">
          77 -7 -21 780 -20 hstem
          68 -50 callsubr
          -103 callgsubr
          33 207 rmoveto
          -107 callsubr
          230 hmoveto
          -74 callsubr
        </CharString>
        <CharString name="udotbelow">
          77 -252 -21 758 -20 hstem
          68 -50 callsubr
          -103 callgsubr
          285 -640 rmoveto
          -74 callsubr
        </CharString>
        <CharString name="ugrave">
          77 -7 -21 806 -20 hstem
          68 -50 callsubr
          -103 callgsubr
          323 174 -70 callgsubr
        </CharString>
        <CharString name="uhungarumlaut">
          77 -7 -21 806 -20 hstem
          68 -50 callsubr
          -103 callgsubr
          82 174 -58 callgsubr
        </CharString>
        <CharString name="umacron">
          77 -7 -21 470 202 0 73 18 -20 hstemhm
          68 125 138 130 hintmask 11011100
          -103 callgsubr
          79 292 rmoveto
          -67 callsubr
          -68 callgsubr
          18 1 18 3 18 vhcurveto
          hintmask 10101100
          -46 callgsubr
          hintmask 11011100
          -61 callgsubr
        </CharString>
        <CharString name="underscore">
          148 -177 -29 callsubr
          57 -56 16 callgsubr
          hintmask 10000000
          -60 callgsubr
          263 -39 callsubr
          -11 callgsubr
          -261 -24 callgsubr
        </CharString>
        <CharString name="uni00A0">
          -228 endchar
        </CharString>
        <CharString name="uni00AD">
          50 257 -29 callsubr
          63 378 -64 callsubr
        </CharString>
        <CharString name="uni015E">
          137 -10 callgsubr
          428 93 164 113 61 -20 hstem
          99 125 145 138 vstem
          290 -83 callgsubr
          53 hlineto
          30 41 61 19 62 hhcurveto
          -17 67 -5 77 73 vvcurveto
          77 5 72 4 53 vhcurveto
          -142 -6 -70 -3 -65 -20 rrcurveto
          -9 38 -6 40 38 vvcurveto
          46 9 46 21 40 vhcurveto
          -29 45 91 -26 37 hhcurveto
          53 50 55 70 26 hvcurveto
          -6 -24 -26 -6 -26 hhcurveto
          -82 -75 34 27 -41 hvcurveto
          -64 -37 -53 -24 -75 hhcurveto
          -35 -24 6 1 -13 hvcurveto
          42 -56 12 -75 -74 vvcurveto
          -67 -8 -67 -8 -55 vhcurveto
          85 21 107 18 73 5 rrcurveto
          15 -19 6 -48 -52 vvcurveto
          -58 -8 -64 -12 -33 vhcurveto
          -133 63 -95 66 -39 1 rrcurveto
          4 -15 1 -13 -14 vvcurveto
          -44 -19 -39 -31 -36 vhcurveto
          124 -7 76 -20 54 -23 rrcurveto
          -64 vlineto
          -13 callsubr
        </CharString>
        <CharString name="uni015F">
          7 -10 callgsubr
          440 82 41 -20 hstem
          70 117 1 74 14 -31 callgsubr
          187 -83 callgsubr
          79 hlineto
          15 45 56 9 52 hhcurveto
          -6 31 -3 63 75 vvcurveto
          -66 callsubr
          -23 38 65 -19 40 hhcurveto
          45 29 25 57 24 hvcurveto
          -85 6 -63 14 -40 21 -89 -38 -51 -15 -52 -1 rrcurveto
          13 -38 6 -44 -60 vvcurveto
          -25 -1 -27 -5 -57 vhcurveto
          68 18 85 16 58 5 rrcurveto
          1 -9 0 -8 -24 vvcurveto
          -38 -4 -34 -8 -42 vhcurveto
          48 -108 -63 22 -31 hhcurveto
          -21 -27 -16 -48 -2 -41 91 -5 43 -10 31 -25 rrcurveto
          -47 vlineto
          -13 callsubr
        </CharString>
        <CharString name="uni0162">
          210 -10 callgsubr
          704 104 57 -20 hstem
          258 138 vstem
          304 -83 callgsubr
          57 hlineto
          23 27 29 17 39 18 rrcurveto
          -46 29 -26 73 69 129 -2 112 113 vvcurveto
          21 1 20 2 20 vhcurveto
          -1 13 14 0 14 hhcurveto
          88 89 48 56 65 hvcurveto
          -2 4 rlineto
          -2 -18 -18 -2 -21 hhcurveto
          -75 -60 1 56 -87 hvcurveto
          1 -20 5 -17 13 -22 rrcurveto
          -104 -46 5 41 -138 hvcurveto
          -47 -43 -38 -29 -73 -22 1 -3 rcurveline
          2 15 16 3 16 hhcurveto
          65 81 -21 -16 88 hvcurveto
          2 -17 0 -16 -17 -181 -3 -39 -168 vvcurveto
          -59 -13 -68 -27 -39 vhcurveto
          34 -13 31 -16 25 -20 rrcurveto
          -61 vlineto
          -13 callsubr
        </CharString>
        <CharString name="uni0163">
          -105 -10 callgsubr
          471 211 56 -20 hstemhm
          89 130 -85 85 hintmask 11111100
          133 -83 callgsubr
          74 hlineto
          30 18 39 19 31 11 rrcurveto
          14 vlineto
          -51 3 -38 34 69 vvcurveto
          221 vlineto
          95 -12 -2 callgsubr
          rlinecurve
          4 -141 53 vlineto
          25 7 100 10 26 vhcurveto
          -57 -30 -49 -22 -58 -4 rrcurveto
          10 -14 7 -79 -23 vvcurveto
          -32 vlineto
          -27 -24 -29 -18 -27 -10 rrcurveto
          -11 83 -372 vlineto
          hintmask 11111010
          45 -23 rlineto
          -67 vlineto
          -13 callsubr
        </CharString>
        <CharString name="uni01C4">
          896 -35 93 -93 112 -110 -21 64 -21 624 113 11 -20 21 -20 227 -36 callgsubr
          270 223 hintmask 1000001111100000
          596 -45 callgsubr
          -32 callsubr
          hintmask 0011010111100000
          -101 callgsubr
          225 502 rmoveto
          2 10 11 0 11 hhcurveto
          hintmask 0011100111100000
          -82 callsubr
          hintmask 0100100111100000
          -66 callgsubr
          hintmask 1000100111100000
          -89 callsubr
          519 252 -90 callgsubr
        </CharString>
        <CharString name="uni01C5">
          666 -33 -21 54 5 callsubr
          281 -20 21 -20 60 -36 callgsubr
          hintmask 1111011110000000
          596 -45 callgsubr
          -32 callsubr
          hintmask 1111101110000000
          -101 callgsubr
          528 36 -100 callsubr
          10 58 39 1 144 hhcurveto
          22 61 -3 -5 17 hvcurveto
          10 22 7 39 34 vvcurveto
          12 -1 10 -1 9 vhcurveto
          -65 -5 -122 8 -95 -21 108 96 rcurveline
          158 540 -86 callsubr
        </CharString>
        <CharString name="uni01C6">
          525 -7 -21 28 5 callsubr
          290 -20 62 -20 hstem
          54 134 149 -31 callgsubr
          -97 callgsubr
          617 -211 -100 callsubr
          10 58 39 1 144 hhcurveto
          22 61 -3 -5 17 hvcurveto
          10 22 7 39 34 vvcurveto
          12 -1 10 -1 9 vhcurveto
          -65 -5 -122 8 -95 -21 108 96 rcurveline
          158 540 -86 callsubr
        </CharString>
        <CharString name="uni01C7">
          362 -235 -21 25 66 841 55 -15 23 3 -20 hstemhm
          122 142 303 143 hintmask 11100110
          425 -256 rmoveto
          41 33 rlineto
          -5 22 23 -3 26 -28 callgsubr
          -4 13 rlineto
          -12 callgsubr
          -47 -44 7 18 -49 hvcurveto
          61 41 59 38 34 18 -64 callgsubr
          hhcurveto
          hintmask 11010110
          -29 callgsubr
          hintmask 11100110
          -65 callgsubr
          -16 -28 -24 -30 -25 -28 -20 10 -22 13 -23 14 9 -18 14 -27 14 -21 -7 -7 rcurveline
          -83 32 -139 107 -17 50 16 30 35 14 23 9 rrcurveto
          -19 19 -14 74 87 vvcurveto
          253 vlineto
          hintmask 11010110
          -28 callsubr
          hintmask 11001110
          2 callgsubr
          hhcurveto
          hintmask 11010110
          -76 -69 -26 -108 hhcurveto
          -22 -24 1 3 -25 hvcurveto
          71 -48 28 7 -126 -35 callgsubr
          45 -40 8 -66 -57 -43 callgsubr
          hhcurveto
          101 63 -101 -56 111 hvcurveto
          -16 -8 rlineto
          endchar
        </CharString>
        <CharString name="uni01C8">
          254 -26 callgsubr
          52 66 907 -20 30 -20 hstemhm
          122 142 246 130 hintmask 11101100
          448 -283 rmoveto
          16 20 17 18 17 16 rrcurveto
          -1 12 13 -1 14 -28 callgsubr
          -4 13 rlineto
          -12 callgsubr
          -42 -39 6 13 -42 hvcurveto
          25 17 23 11 19 6 rrcurveto
          4 vlineto
          -23 25 -3 39 122 vvcurveto
          377 -53 callsubr
          -480 vlineto
          -4 -17 -5 -16 -5 -16 -20 10 -21 12 -23 14 11 -22 18 -35 17 -22 -79 23 -158 119 -18 53 16 30 35 14 23 9 rrcurveto
          -19 19 -14 74 87 vvcurveto
          253 vlineto
          -28 callsubr
          2 callgsubr
          -76 -69 -26 -108 hhcurveto
          -22 -24 1 3 -25 hvcurveto
          71 -48 28 7 -126 -35 callgsubr
          45 -40 8 -66 -57 -43 callgsubr
          hhcurveto
          116 66 -135 -43 147 hvcurveto
          -9 -15 -10 -14 -10 -15 -3 callgsubr
          hintmask 11011100
          -19 12 -58 43 -17 20 -40 -21 -33 -42 -23 -39 rrcurveto
          endchar
        </CharString>
        <CharString name="uni01C9">
          77 -26 callgsubr
          1029 -20 62 -20 hstem
          70 130 133 -31 callgsubr
          19 -28 -84 callgsubr
          253 -262 -78 callgsubr
        </CharString>
        <CharString name="uni01CA">
          686 -235 -21 47 57 828 55 8 -20 28 -20 hstemhm
          -32 callgsubr
          257 143 hintmask 11100111
          749 -256 rmoveto
          19 16 24 18 26 20 rrcurveto
          -4 27 27 -3 29 hhcurveto
          92 103 20 46 117 hvcurveto
          -7 -48 -43 -2 -40 hhcurveto
          -57 -51 10 16 -46 hvcurveto
          52 35 50 32 30 16 -64 callgsubr
          hhcurveto
          hintmask 11010111
          -29 callgsubr
          hintmask 11100111
          -65 callgsubr
          -13 -22 -18 -25 -19 -23 -18 9 -17 10 -17 9 23 -59 rcurveline
          -6 -6 -39 5 -42 8 -74 80 rlinecurve
          -9 48 -3 53 39 vvcurveto
          89 21 93 31 77 vhcurveto
          -33 63 -16 55 50 vvcurveto
          84 45 66 80 57 vhcurveto
          hintmask 11001111
          -4 callgsubr
          hhcurveto
          hintmask 11010111
          -58 -77 -28 -120 hhcurveto
          -13 -13 0 1 -13 hvcurveto
          39 -15 21 -29 3 -40 rrcurveto
          1 6 -175 -205 vvcurveto
          -27 5 -37 3 -63 vhcurveto
          -20 30 -107 159 -91 208 -48 119 rlinecurve
          5 35 21 25 36 14 rrcurveto
          -1 -13 -13 0 -13 hhcurveto
          hintmask 11001111
          -107 -84 28 -53 hhcurveto
          -8 -8 -1 -2 -7 hvcurveto
          80 -57 45 -66 -84 vvcurveto
          -50 -16 -55 -33 -63 vhcurveto
          32 -48 13 -53 -55 vvcurveto
          -118 -63 -123 -81 -77 vhcurveto
          101 33 56 47 36 63 59 -48 23 -12 59 -16 rrcurveto
          -54 63 -20 53 163 vvcurveto
          102 vlineto
          88 -189 149 -254 247 -82 -14 -10 -13 -7 -10 -5 rrcurveto
          endchar
        </CharString>
        <CharString name="uni01CB">
          578 -26 callgsubr
          74 57 899 -20 25 -20 hstemhm
          -32 callgsubr
          200 130 hintmask 11101110
          772 -283 rmoveto
          24 29 25 26 25 22 rrcurveto
          -2 18 18 -1 19 hhcurveto
          92 103 20 46 117 hvcurveto
          -7 -48 -43 -2 -40 hhcurveto
          -50 -44 8 12 -42 hvcurveto
          16 9 15 7 13 4 rrcurveto
          4 vlineto
          -23 25 -3 39 122 vvcurveto
          377 -53 callsubr
          -480 vlineto
          -2 -10 -3 -9 -3 -10 -42 23 rcurveline
          26 -66 -42 5 -43 3 -79 86 rlinecurve
          -9 48 -3 53 39 vvcurveto
          89 21 93 31 77 vhcurveto
          -33 63 -16 55 50 vvcurveto
          84 45 66 80 57 vhcurveto
          -4 callgsubr
          -58 -77 -28 -120 hhcurveto
          -13 -13 0 1 -13 hvcurveto
          39 -15 21 -29 3 -40 rrcurveto
          1 6 -175 -205 vvcurveto
          -27 5 -37 3 -63 vhcurveto
          -20 30 -107 159 -91 208 -48 119 rlinecurve
          5 35 21 25 36 14 rrcurveto
          -1 -13 -13 0 -13 -107 -84 28 -53 hhcurveto
          -8 -8 -1 -2 -7 hvcurveto
          80 -57 45 -66 -84 vvcurveto
          -50 -16 -55 -33 -63 vhcurveto
          32 -48 13 -53 -55 vvcurveto
          -118 -63 -123 -81 -77 vhcurveto
          101 33 56 47 36 63 59 -48 23 -12 59 -16 rrcurveto
          -54 63 -20 53 163 vvcurveto
          102 vlineto
          94 -200 161 -273 275 -65 -13 -22 -14 -22 -15 -22 -3 callgsubr
          hintmask 11011110
          -19 12 -58 43 -17 20 -40 -21 -33 -42 -23 -39 rrcurveto
          endchar
        </CharString>
        <CharString name="uni01CC">
          328 -26 callgsubr
          304 -21 752 -45 callsubr
          127 -31 callgsubr
          -101 callsubr
          325 -655 -78 callgsubr
        </CharString>
        <CharString name="uni01F1">
          897 -35 93 -93 112 -110 -21 64 -21 624 113 11 -20 21 -20 37 -36 callgsubr
          270 223 hintmask 1000100111100000
          596 -45 callgsubr
          hintmask 1000001011100000
          -32 callsubr
          hintmask 0011010011100000
          -101 callgsubr
          225 502 rmoveto
          2 10 11 0 11 hhcurveto
          hintmask 0011100111100000
          -82 callsubr
          hintmask 0100100111100000
          -66 callgsubr
          hintmask 1000100111100000
          -89 callsubr
          endchar
        </CharString>
        <CharString name="uni01F2">
          666 -33 -21 54 5 callsubr
          281 -20 21 -20 37 -36 callgsubr
          hintmask 1111001110000000
          596 -45 callgsubr
          hintmask 1111010110000000
          -32 callsubr
          hintmask 1111100110000000
          -101 callgsubr
          528 36 -100 callsubr
          10 58 39 1 144 hhcurveto
          22 61 -3 -5 17 hvcurveto
          10 22 7 39 34 vvcurveto
          12 -1 10 -1 9 vhcurveto
          -65 -5 -122 8 -95 -21 108 96 rcurveline
          endchar
        </CharString>
</ttFont>
